<svg width="46" height="40" viewBox="0 0 46 40" fill="none" xmlns="http://www.w3.org/2000/svg">
<rect width="45.8537" height="40" rx="20" fill="#3E3B3B"/>
<path d="M11.6309 24.4737C11.6309 27.1072 13.7733 29.2497 16.4068 29.2497C19.0402 29.2497 21.1827 27.1072 21.1827 24.4737C21.1827 21.8402 19.0402 19.6978 16.4068 19.6978C13.7733 19.6977 11.6309 21.8402 11.6309 24.4737ZM20.394 24.4737C20.394 26.6722 18.6053 28.4609 16.4069 28.4609C14.2084 28.4609 12.4197 26.6722 12.4197 24.4737C12.4197 22.2752 14.2083 20.4866 16.4068 20.4866C18.6053 20.4866 20.394 22.2751 20.394 24.4737Z" fill="#FFBE2E"/>
<path d="M36.0933 21.1917C36.0924 21.1896 36.0917 21.1875 36.0907 21.1854L32.8916 14.5532C32.4496 13.6367 31.7154 12.9098 30.8345 12.4621L30.5326 11.836C30.0297 10.7935 28.9568 10.1199 27.7994 10.1199C26.1262 10.1199 24.7649 11.4811 24.7649 13.1544V14.3195C24.4991 14.7962 24.316 15.325 24.235 15.8864H22.7651C22.6841 15.325 22.501 14.7962 22.2351 14.3194V13.1544C22.2351 11.4812 20.8739 10.1199 19.2007 10.1199C18.0432 10.1199 16.9704 10.7935 16.4675 11.836L16.1655 12.4621C15.2846 12.9098 14.5505 13.6368 14.1085 14.5532L13.5544 15.7019C13.4597 15.898 13.5421 16.1338 13.7382 16.2285C13.9344 16.323 14.1702 16.2408 14.2648 16.0446L14.8189 14.8958C15.447 13.5936 16.7872 12.7521 18.233 12.7521C20.3231 12.7521 22.0235 14.4525 22.0235 16.5426V21.3944C21.6521 20.7176 21.1574 20.1053 20.5539 19.5921C20.388 19.451 20.1391 19.4711 19.998 19.637C19.8569 19.8029 19.877 20.0519 20.0429 20.193C21.3017 21.2633 22.0235 22.8236 22.0235 24.4737C22.0235 27.5711 19.5036 30.0911 16.4062 30.0911C13.3088 30.0911 10.7888 27.5712 10.7888 24.4738C10.7888 21.3764 13.3087 18.8565 16.4061 18.8565C17.2113 18.8565 17.9884 19.0231 18.716 19.3518C18.9143 19.4414 19.1481 19.3533 19.2378 19.1547C19.3275 18.9562 19.2392 18.7226 19.0408 18.6329C18.2104 18.2579 17.324 18.0677 16.4061 18.0677C15.038 18.0677 13.7689 18.499 12.7271 19.2325L13.5328 17.5621C13.6274 17.3659 13.5451 17.1302 13.3489 17.0355C13.1528 16.9411 12.917 17.0232 12.8223 17.2194L10.9093 21.1854C10.9083 21.1875 10.9076 21.1896 10.9067 21.1917C10.3313 22.1522 10 23.2749 10 24.4738C10 28.0061 12.8737 30.8799 16.4061 30.8799C19.894 30.8799 22.7394 28.0781 22.8106 24.607H24.1895C24.2607 28.0781 27.1061 30.8799 30.5939 30.8799C34.1263 30.8799 37 28.0061 37 24.4738C37 23.2749 36.6687 22.1522 36.0933 21.1917ZM32.1811 14.8958L34.2729 19.2324C33.2311 18.4989 31.962 18.0676 30.5939 18.0676C28.176 18.0676 26.0669 19.4143 24.9766 21.3969V16.5426C24.9766 14.4525 26.677 12.7521 28.7671 12.7521C30.2129 12.7521 31.553 13.5936 32.1811 14.8958ZM24.1878 23.8182H22.8123V16.6752H24.1878V23.8182ZM27.7994 10.9087C28.6172 10.9087 29.3769 11.3637 29.768 12.0762C29.4428 12.0025 29.1074 11.9634 28.7671 11.9634C27.5162 11.9634 26.381 12.4677 25.5537 13.2835V13.1544C25.5537 11.9161 26.5611 10.9087 27.7994 10.9087ZM18.233 11.9633C17.8926 11.9633 17.5573 12.0024 17.232 12.0762C17.6232 11.3636 18.3829 10.9086 19.2007 10.9086C20.4389 10.9086 21.4463 11.916 21.4463 13.1543V13.2835C20.619 12.4677 19.4838 11.9633 18.233 11.9633ZM30.5939 30.0911C27.4965 30.0911 24.9766 27.5712 24.9766 24.4738C24.9766 21.3764 27.4965 18.8565 30.5939 18.8565C33.6913 18.8565 36.2112 21.3764 36.2112 24.4738C36.2112 27.5712 33.6913 30.0911 30.5939 30.0911Z" fill="#FFBE2E"/>
<path d="M32.3861 20.0477C32.1842 19.9657 31.9541 20.0629 31.8722 20.2647C31.7902 20.4665 31.8874 20.6966 32.0892 20.7785C33.6032 21.3935 34.5814 22.844 34.5814 24.4737C34.5814 26.6723 32.7928 28.4609 30.5943 28.4609C28.3958 28.4609 26.6072 26.6723 26.6072 24.4737C26.6072 22.2796 28.3922 20.4911 30.5865 20.4868C30.8043 20.4864 30.9805 20.3094 30.9801 20.0916C30.9796 19.8741 30.8032 19.698 30.5857 19.698C30.5854 19.698 30.5851 19.698 30.5849 19.698C27.9567 19.7031 25.8184 21.8455 25.8184 24.4737C25.8184 27.1072 27.9608 29.2497 30.5942 29.2497C33.2277 29.2497 35.3702 27.1072 35.3702 24.4737C35.3702 22.5215 34.1989 20.7841 32.3861 20.0477Z" fill="#FFBE2E"/>
</svg>
