<svg width="260" height="156" viewBox="0 0 260 156" fill="none" xmlns="http://www.w3.org/2000/svg">
<path d="M97.6277 34.6924C97.0745 32.4795 96.7979 29.9901 96.7979 27.5007C96.7979 26.6708 95.4149 26.6708 95.4149 27.5007C95.4149 30.8199 93.7553 37.4584 97.0745 39.6713C97.6277 40.2245 98.4576 39.3947 98.4576 38.8414C98.4576 37.4584 97.9043 36.0754 97.6277 34.6924Z" fill="black"/>
<path d="M113.115 45.2033C108.69 45.7565 104.817 46.5863 100.668 44.3735C100.115 44.0969 99.8382 44.6501 100.391 44.9267C104.54 47.9693 109.243 49.3524 113.945 46.8629C115.051 46.3097 113.945 44.9267 113.115 45.2033Z" fill="black"/>
<path d="M133.034 30.82C130.821 31.6498 129.162 33.3094 127.225 34.6924C125.013 36.352 123.076 38.0117 121.14 39.9479C120.587 40.5011 121.417 41.6075 122.246 41.0543C123.906 39.3947 125.842 38.2883 127.779 36.9053C129.715 35.5222 132.204 34.4158 133.864 32.7562C134.694 31.9264 134.14 30.2667 133.034 30.82Z" fill="black"/>
<path d="M151.566 10.9043C146.587 12.8405 141.884 17.5428 138.288 21.4153C137.735 22.2451 138.565 23.0749 139.395 22.5217C141.608 20.5855 144.097 18.6492 146.587 16.9896C148.523 15.6066 150.736 14.5002 152.395 12.8405C153.225 11.7341 152.395 10.6277 151.566 10.9043Z" fill="black"/>
<path d="M176.181 0.670007C171.202 0.393402 166.224 2.32963 161.798 3.98926C160.968 4.26587 161.245 5.37228 162.075 5.37228C166.777 3.98926 171.479 3.43605 176.181 3.15945C177.564 2.88284 177.564 0.670007 176.181 0.670007Z" fill="black"/>
<path d="M194.714 9.79802C193.331 8.13839 191.395 6.47876 189.735 5.09574C188.352 3.98932 186.693 5.64895 187.799 7.03197C189.182 8.41499 190.565 10.0746 191.948 11.7342C193.332 13.3939 194.714 15.8833 196.65 17.2663C197.48 17.8195 198.587 16.9897 198.31 15.8833C198.31 13.6705 196.374 11.4576 194.714 9.79802Z" fill="black"/>
<path d="M199.97 24.7346C199.97 23.6282 198.035 23.6282 198.035 24.7346C197.758 27.5006 197.205 29.9901 196.651 32.7561C196.098 35.2456 194.715 37.735 194.715 40.5011C194.715 41.8841 196.651 42.4373 197.205 41.0543C199.694 36.352 200.247 29.7135 199.97 24.7346Z" fill="black"/>
<path d="M188.078 52.6716C186.695 54.6079 185.312 56.5441 183.929 58.4803C182.823 60.4166 180.886 62.3528 180.609 64.5656C180.609 65.6721 181.716 65.9487 182.546 65.6721C184.482 64.8422 185.312 62.3528 186.141 60.6932C187.524 58.4803 188.631 55.9909 190.014 53.7781C190.568 52.395 188.908 51.5652 188.078 52.6716Z" fill="black"/>
<path d="M174.245 72.8638C171.756 75.0767 169.819 77.2895 168.16 79.7789C166.5 82.2684 164.287 85.8642 164.841 88.9069C165.117 90.2899 166.5 90.5665 167.33 89.4601C168.713 87.5239 168.99 84.7578 169.819 82.545C170.926 79.2257 172.862 76.1831 175.075 73.417C175.628 73.1404 174.798 72.3106 174.245 72.8638Z" fill="black"/>
<path d="M158.478 99.971C155.989 102.184 154.053 104.673 152.393 107.716C150.733 110.759 148.797 114.631 149.35 117.951C149.627 119.057 151.287 119.057 151.563 118.227C153.223 115.737 153.223 112.418 154.329 109.652C155.436 106.61 157.372 103.567 159.585 100.801C160.138 100.248 159.308 99.1412 158.478 99.971Z" fill="black"/>
<path d="M158.202 142.291C156.266 141.185 154.606 140.355 153.223 138.696C151.84 136.483 151.287 133.164 151.287 130.674C151.287 129.844 149.904 129.844 149.904 130.674C149.351 135.93 150.457 145.057 157.649 144.781C158.755 144.504 159.308 142.845 158.202 142.291Z" fill="black"/>
<path d="M187.523 151.973C184.481 151.696 181.438 152.249 178.396 152.249C174.523 151.973 170.927 150.866 167.884 148.653C167.331 148.377 167.055 149.207 167.331 149.483C173.14 153.908 181.162 157.781 188.354 154.738C189.736 153.908 188.906 151.973 187.523 151.973Z" fill="black"/>
<path d="M211.036 133.164C209.1 134.27 207.44 135.93 205.228 137.313C203.291 138.419 201.078 138.972 198.866 139.249C197.482 139.526 197.482 141.462 198.866 141.462C203.845 141.738 210.207 140.079 212.973 135.376C214.079 133.993 212.419 132.61 211.036 133.164Z" fill="black"/>
<path d="M222.375 116.567C218.779 120.163 214.907 124.035 212.417 128.461C211.587 129.844 213.524 130.674 214.353 129.567C217.396 125.695 222.375 122.929 224.588 118.226C224.864 116.844 223.481 115.461 222.375 116.567Z" fill="black"/>
<path d="M243.121 116.844C242.291 115.184 240.078 114.078 238.419 113.248C236.482 112.418 234.27 112.142 232.057 112.142C230.674 112.142 230.674 114.078 232.057 114.078C233.993 114.078 235.653 114.632 237.312 115.461C238.696 116.291 239.802 117.674 241.185 118.504C242.291 119.333 243.674 117.95 243.121 116.844Z" fill="black"/>
<path d="M259.718 127.631C255.846 121.27 253.356 114.078 250.037 107.439C248.377 104.397 243.952 107.163 245.335 110.205C247.824 115.737 250.037 121.546 253.356 126.802C250.867 127.078 248.377 127.355 245.611 127.631C244.505 127.908 242.569 127.908 241.739 129.015L241.463 129.291C241.463 129.291 241.186 129.291 241.186 129.568C240.633 130.121 241.186 131.227 241.739 131.227C242.016 131.504 242.293 131.504 242.846 131.504C244.229 131.78 245.612 131.504 247.271 131.504C250.867 131.227 254.187 130.95 257.782 131.227C259.442 131.504 260.548 129.291 259.718 127.631Z" fill="black"/>
<path d="M92.5884 24.4027C90.7509 23.2667 88.6509 22.2184 86.6387 21.4324C84.6264 20.6464 82.0017 19.7733 80.1652 20.3867C79.1158 20.7372 79.0292 22.2242 79.9916 22.4861C81.7415 23.3597 83.928 22.921 85.8526 23.4447C88.0397 23.8807 89.7896 24.7543 91.8895 25.8027C92.8518 26.0645 93.2884 24.7522 92.5884 24.4027Z" fill="black"/>
<path d="M60.748 32.8777C56.4915 34.2097 52.8285 35.7154 48.3519 34.2763C47.7583 34.1026 47.5845 34.6962 48.1781 34.8699C52.8025 37.1256 57.6758 37.6497 61.86 34.3631C62.8503 33.6218 61.5154 32.4578 60.748 32.8777Z" fill="black"/>
<path d="M39.819 30.3633C37.7185 29.4741 35.5635 28.1976 33.5748 26.7002C32.9119 26.201 32.0799 27.3058 32.7428 27.805C35.3944 29.8016 39.6993 35.1207 43.4637 33.8002C44.2384 33.691 44.0746 32.529 43.6327 32.1962C42.5279 31.3643 41.0903 30.9743 39.819 30.3633Z" fill="black"/>
<path d="M66.0273 30.4863C68.667 26.8913 70.7257 23.508 75.1846 22.0149C75.7657 21.8031 75.554 21.222 74.9729 21.4338C69.9111 22.3565 65.6748 24.8218 64.2514 29.9485C63.8929 31.1324 65.6579 31.2792 66.0273 30.4863Z" fill="black"/>
<path d="M26.5845 24.4027C24.747 23.2667 22.647 22.2184 20.6347 21.4324C18.6225 20.6464 15.9978 19.7733 14.1613 20.3867C13.1119 20.7372 13.0253 22.2242 13.9877 22.4861C15.7376 23.3597 17.9241 22.921 19.8487 23.4447C22.0358 23.8807 23.7857 24.7543 25.8856 25.8027C26.8479 26.0645 27.2845 24.7522 26.5845 24.4027Z" fill="black"/>
<path d="M7.88224 21.0283C5.9702 21.5963 3.77416 21.2083 2.04489 22.1222C0.743022 22.589 0.25378 24.1748 1.06641 25.2939C1.96058 26.1487 3.44523 26.0278 4.58402 26.0896C5.4585 26.07 5.88589 25.6229 6.13051 24.8299C7.08653 24.5459 8.04255 24.2619 8.81579 23.6321C10.1992 22.901 9.52996 20.3788 7.88224 21.0283Z" fill="black"/>
</svg>
