<svg width="288" height="120" viewBox="0 0 288 120" fill="none" xmlns="http://www.w3.org/2000/svg">
<path d="M83.0288 62.7818C81.1653 61.4665 79.3308 59.761 77.7058 57.8751C77.1642 57.2464 76.1164 58.1492 76.6581 58.7778C78.8247 61.2924 81.9005 67.405 85.8595 66.9148C86.6397 66.9728 86.7267 65.8025 86.3656 65.3834C85.4629 64.3357 84.1411 63.649 83.0288 62.7818Z" fill="black"/>
<path d="M101.627 60.6335C98.6349 63.9414 96.2429 67.0977 91.6552 68.1296C91.0555 68.2811 91.2071 68.8808 91.8067 68.7292C96.936 68.3261 101.401 66.3045 103.339 61.3492C103.816 60.2079 102.075 59.8823 101.627 60.6335Z" fill="black"/>
<path d="M108.363 35.5524C105.855 40.2691 105.362 46.9009 105.165 52.1817C105.288 53.1715 106.458 53.2585 106.726 52.2977C107.138 49.3865 107.76 46.2947 108.563 43.4124C109.127 41.1008 110.081 38.8182 110.255 36.4776C110.162 35.0978 108.811 34.8012 108.363 35.5524Z" fill="black"/>
<path d="M120.333 11.7303C116.38 14.7707 113.872 19.4874 111.603 23.6335C111.154 24.3847 112.086 25.0424 112.715 24.5007C115.375 20.3836 118.576 16.8952 121.958 13.6163C122.825 12.504 121.38 10.8276 120.333 11.7303Z" fill="black"/>
<path d="M140.334 6.54872C138.203 6.19416 135.652 6.20069 133.492 6.23622C131.722 6.30076 131.548 8.64136 133.289 8.96693C135.24 9.11165 137.371 9.46651 139.502 9.82108C141.633 10.1754 144.306 11.1589 146.675 10.9428C147.665 10.8202 147.962 9.4694 147.03 8.81174C145.585 7.13532 142.674 6.72274 140.334 6.54872Z" fill="black"/>
<path d="M154.066 14.4344C153.344 13.5962 151.877 14.8598 152.6 15.698C154.196 17.9741 155.401 20.2211 156.787 22.678C157.993 24.9251 158.57 27.7138 160.376 29.8093C161.279 30.8571 163.107 30.0124 162.623 28.6032C161.44 23.4159 157.526 18.0258 154.066 14.4344Z" fill="black"/>
<path d="M180.158 38.7566C177.969 39.1825 176.17 39.6372 174.039 39.2826C171.547 38.5089 168.961 36.3554 167.336 34.4694C166.794 33.8404 165.746 34.7432 166.288 35.3722C169.3 39.7148 176.096 45.9075 181.364 41.004C182.022 40.0722 181.357 38.4538 180.158 38.7566Z" fill="black"/>
<path d="M189.888 38.3686C192.868 37.6956 195.593 36.2331 198.488 35.2968C202.258 34.3676 206.02 34.3141 209.595 35.4831C210.207 35.5756 210.215 34.7009 209.866 34.5233C202.978 32.1002 194.153 30.8845 188.247 35.9928C187.187 37.2078 188.572 38.7943 189.888 38.3686Z" fill="black"/>
<path d="M236.583 34.4336C234.353 34.478 232.102 35.1404 229.497 35.2951C227.267 35.3395 225.059 34.7655 222.984 33.9491C221.637 33.5295 220.71 35.2294 221.925 35.8918C226.164 38.5184 232.544 40.1073 237.223 37.3034C238.857 36.6191 238.062 34.6097 236.583 34.4336Z" fill="black"/>
<path d="M261.237 30.0491C259.525 29.3335 257.126 29.9396 255.327 30.3943C253.319 31.0295 251.462 32.2647 249.786 33.709C248.738 34.6118 250.002 36.0783 251.049 35.1756C252.516 33.9117 254.135 33.2479 255.934 32.7932C257.524 32.5189 259.265 32.8444 260.853 32.5703C262.233 32.4764 262.378 30.5265 261.237 30.0491Z" fill="black"/>
<path d="M284.255 27.3889C277.169 25.0969 270.588 21.2734 263.741 18.4108C260.497 17.189 258.95 22.1733 261.984 23.5756C267.48 26.1414 272.949 29.0979 278.894 30.9128C277.188 32.7473 275.483 34.5818 273.568 36.5969C272.91 37.5286 271.443 38.7925 271.537 40.1727L271.508 40.5621C271.508 40.5621 271.299 40.7427 271.479 40.9522C271.421 41.7324 272.562 42.2095 272.981 41.8484C273.372 41.8774 273.581 41.6966 274 41.3358C275.229 40.642 276.096 39.5303 277.353 38.447C279.897 35.8903 282.23 33.5138 285.136 31.3766C286.573 30.5032 285.967 28.1045 284.255 27.3889Z" fill="black"/>
<path d="M72.4957 58.2758C70.3621 58.6146 68.0869 59.191 66.0494 59.9091C64.0119 60.6271 61.4536 61.6788 60.4627 63.3423C59.8964 64.2928 60.8015 65.4759 61.7014 65.0461C63.5974 64.5657 64.9675 62.8062 66.7674 61.9466C68.7089 60.8494 70.6049 60.369 72.88 59.7925C73.78 59.3628 73.2541 58.0836 72.4957 58.2758Z" fill="black"/>
<path d="M53.9085 85.4787C51.5532 89.2663 49.761 92.7979 45.4302 94.6298C44.8671 94.8856 45.123 95.4487 45.6861 95.1929C50.6618 93.8833 54.6959 91.0993 55.7205 85.8783C55.9868 84.6703 54.2157 84.6598 53.9085 85.4787Z" fill="black"/>
<path d="M36.4135 97.2337C34.2418 97.9312 31.776 98.3708 29.2919 98.5344C28.4639 98.589 28.5548 99.969 29.3828 99.9145C32.6949 99.6963 39.4281 100.916 41.418 97.4585C41.9337 96.8701 41.0511 96.0967 40.4991 96.133C39.1191 96.2239 37.7754 96.8668 36.4135 97.2337Z" fill="black"/>
<path d="M56.3454 80.2212C55.9986 75.7746 55.3498 71.8677 57.7533 67.8261C58.0553 67.2863 57.5156 66.9843 57.2135 67.5241C53.9812 71.5271 52.3809 76.1599 54.6489 80.9729C55.1501 82.1039 56.5831 81.063 56.3454 80.2212Z" fill="black"/>
<path d="M22.4957 101.357C20.3621 101.696 18.0869 102.272 16.0494 102.99C14.0119 103.708 11.4536 104.76 10.4627 106.423C9.89642 107.374 10.8015 108.557 11.7014 108.127C13.5974 107.647 14.9675 105.887 16.7674 105.028C18.7089 103.93 20.6049 103.45 22.88 102.873C23.78 102.444 23.2541 101.165 22.4957 101.357Z" fill="black"/>
<path d="M6.12273 111.009C5.04495 112.687 3.12799 113.827 2.41443 115.648C1.73283 116.851 2.39734 118.372 3.74345 118.69C4.97881 118.754 6.02463 117.693 6.92774 116.996C7.57738 116.411 7.60934 115.793 7.27708 115.033C7.81597 114.193 8.35486 113.354 8.52953 112.372C9.10038 110.915 6.94704 109.441 6.12273 111.009Z" fill="black"/>
</svg>
