<svg width="260" height="131" viewBox="0 0 260 131" fill="none" xmlns="http://www.w3.org/2000/svg">
<path d="M97.4246 34.0489C96.8714 31.8361 96.5948 29.3467 96.5948 26.8572C96.5948 26.0274 95.2118 26.0274 95.2118 26.8572C95.2118 30.1765 93.5522 36.815 96.8714 39.0278C97.4246 39.581 98.2544 38.7512 98.2544 38.198C98.2544 36.815 97.7012 35.432 97.4246 34.0489Z" fill="black"/>
<path d="M112.912 44.56C108.486 45.1132 104.614 45.943 100.465 43.7302C99.9117 43.4536 99.6351 44.0068 100.188 44.2834C104.337 47.326 109.04 48.7091 113.742 46.2196C114.848 45.6664 113.742 44.2834 112.912 44.56Z" fill="black"/>
<path d="M132.831 30.1765C130.618 31.0063 128.958 32.666 127.022 34.049C124.809 35.7086 122.873 37.3682 120.937 39.3045C120.384 39.8577 121.214 40.9641 122.043 40.4109C123.703 38.7513 125.639 37.6448 127.575 36.2618C129.512 34.8788 132.001 33.7724 133.661 32.1128C134.491 31.2829 133.937 29.6233 132.831 30.1765Z" fill="black"/>
<path d="M151.362 10.2609C146.384 12.1971 141.681 16.8994 138.085 20.7719C137.532 21.6017 138.362 22.4315 139.192 21.8783C141.405 19.942 143.894 18.0058 146.384 16.3462C148.32 14.9632 150.533 13.8567 152.192 12.1971C153.022 11.0907 152.192 9.98428 151.362 10.2609Z" fill="black"/>
<path d="M175.978 0.026574C170.999 -0.250031 166.02 1.6862 161.595 3.34583C160.765 3.62243 161.042 4.72885 161.871 4.72885C166.574 3.34583 171.276 2.79262 175.978 2.51601C177.361 2.23941 177.361 0.026574 175.978 0.026574Z" fill="black"/>
<path d="M194.511 9.15458C193.128 7.49496 191.192 5.83533 189.532 4.45231C188.149 3.34589 186.489 5.00551 187.596 6.38854C188.979 7.77156 190.362 9.43119 191.745 11.0908C193.128 12.7504 194.511 15.2399 196.447 16.6229C197.277 17.1761 198.383 16.3463 198.107 15.2399C198.107 13.027 196.171 10.8142 194.511 9.15458Z" fill="black"/>
<path d="M199.767 24.0912C199.767 22.9847 197.831 22.9847 197.831 24.0912C197.555 26.8572 197.002 29.3467 196.448 32.1127C195.895 34.6021 194.512 37.0916 194.512 39.8576C194.512 41.2406 196.448 41.7939 197.002 40.4108C199.491 35.7086 200.044 29.07 199.767 24.0912Z" fill="black"/>
<path d="M187.875 52.0282C186.492 53.9644 185.109 55.9007 183.726 57.8369C182.62 59.7731 180.683 61.7094 180.406 63.9222C180.406 65.0286 181.513 65.3052 182.342 65.0286C184.279 64.1988 185.109 61.7094 185.938 60.0497C187.321 57.8369 188.428 55.3475 189.811 53.1346C190.364 51.7516 188.705 50.9218 187.875 52.0282Z" fill="black"/>
<path d="M174.042 72.2204C171.553 74.4332 169.616 76.6461 167.957 79.1355C166.297 81.625 164.084 85.2208 164.637 88.2635C164.914 89.6465 166.297 89.9231 167.127 88.8167C168.51 86.8804 168.786 84.1144 169.616 81.9016C170.723 78.5823 172.659 75.5397 174.872 72.7736C175.425 72.497 174.595 71.6672 174.042 72.2204Z" fill="black"/>
<path d="M173.421 108.24C171.485 107.134 169.825 106.304 168.442 104.644C167.059 102.431 166.506 99.1121 166.506 96.6227C166.506 95.7924 165.123 95.7924 165.123 96.6227C164.569 101.878 165.676 111.006 172.868 110.73C173.974 110.453 174.527 108.793 173.421 108.24Z" fill="black"/>
<path d="M193.442 120.593C191.33 119.876 188.987 119.734 186.485 118.993C184.373 118.277 182.492 116.986 180.819 115.513C179.694 114.66 178.245 115.943 179.161 116.979C182.254 120.891 187.713 124.555 193.068 123.509C194.837 123.422 194.773 121.262 193.442 120.593Z" fill="black"/>
<path d="M219.854 115.83C214.885 116.911 209.535 118.077 205.048 120.454C203.602 121.17 204.783 122.914 206.079 122.432C210.732 120.818 216.416 121.182 220.819 118.422C221.799 117.408 221.383 115.497 219.854 115.83Z" fill="black"/>
<path d="M242.918 116.2C242.088 114.541 239.875 113.434 238.216 112.605C236.279 111.775 234.067 111.499 231.854 111.499C230.471 111.499 230.471 113.434 231.854 113.434C233.79 113.434 235.45 113.988 237.109 114.818C238.493 115.648 239.599 117.031 240.982 117.86C242.088 118.689 243.471 117.307 242.918 116.2Z" fill="black"/>
<path d="M259.515 126.988C255.643 120.626 253.153 113.434 249.834 106.796C248.174 103.753 243.749 106.519 245.132 109.562C247.621 115.094 249.834 120.903 253.153 126.158C250.664 126.435 248.174 126.711 245.408 126.988C244.302 127.265 242.366 127.265 241.536 128.372L241.26 128.648C241.26 128.648 240.983 128.648 240.983 128.924C240.43 129.477 240.983 130.584 241.536 130.584C241.813 130.86 242.09 130.86 242.643 130.86C244.026 131.137 245.409 130.86 247.068 130.86C250.664 130.584 253.983 130.307 257.579 130.584C259.239 130.86 260.345 128.648 259.515 126.988Z" fill="black"/>
<path d="M92.3853 23.7593C90.5477 22.6233 88.4478 21.5749 86.4355 20.7889C84.4232 20.0029 81.7986 19.1298 79.9621 19.7432C78.9127 20.0938 78.8261 21.5808 79.7884 21.8426C81.5384 22.7163 83.7249 22.2776 85.6495 22.8012C87.8365 23.2373 89.5865 24.1109 91.6864 25.1593C92.6487 25.4211 93.0853 24.1088 92.3853 23.7593Z" fill="black"/>
<path d="M60.5449 32.2342C56.2884 33.5663 52.6254 35.072 48.1487 33.6329C47.5551 33.4592 47.3814 34.0528 47.975 34.2265C52.5993 36.4822 57.4727 37.0063 61.6569 33.7197C62.6472 32.9784 61.3123 31.8144 60.5449 32.2342Z" fill="black"/>
<path d="M39.6159 29.7199C37.5154 28.8307 35.3603 27.5542 33.3716 26.0567C32.7087 25.5576 31.8768 26.6624 32.5397 27.1616C35.1913 29.1582 39.4962 34.4772 43.2605 33.1567C44.0352 33.0476 43.8715 31.8855 43.4296 31.5528C42.3247 30.7208 40.8871 30.3308 39.6159 29.7199Z" fill="black"/>
<path d="M65.8242 29.8429C68.4639 26.2478 70.5226 22.8645 74.9815 21.3715C75.5626 21.1597 75.3509 20.5786 74.7697 20.7903C69.708 21.7131 65.4717 24.1784 64.0483 29.305C63.6897 30.4889 65.4548 30.6357 65.8242 29.8429Z" fill="black"/>
<path d="M26.3814 23.7593C24.5438 22.6233 22.4439 21.5749 20.4316 20.7889C18.4193 20.0029 15.7947 19.1298 13.9582 19.7432C12.9088 20.0938 12.8222 21.5808 13.7845 21.8426C15.5345 22.7163 17.721 22.2776 19.6456 22.8012C21.8326 23.2373 23.5826 24.1109 25.6825 25.1593C26.6448 25.4211 27.0814 24.1088 26.3814 23.7593Z" fill="black"/>
<path d="M7.67911 20.3849C5.76708 20.9529 3.57103 20.5649 1.84177 21.4788C0.539897 21.9455 0.0506555 23.5314 0.863286 24.6505C1.75746 25.5053 3.2421 25.3844 4.38089 25.4462C5.25537 25.4265 5.68276 24.9794 5.92739 24.1865C6.8834 23.9025 7.83942 23.6185 8.61267 22.9886C9.99608 22.2575 9.32684 19.7353 7.67911 20.3849Z" fill="black"/>
</svg>
