<svg width="182" height="121" viewBox="0 0 182 121" fill="none" xmlns="http://www.w3.org/2000/svg">
<path d="M97.2841 0.56172C131.82 2.07104 158.611 29.1412 157.213 60.9466C155.814 92.752 126.75 117.381 92.214 115.872C57.6783 114.362 30.8871 87.2923 32.2855 55.4869C33.684 23.6815 62.7483 -0.947598 97.2841 0.56172Z" fill="url(#paint0_linear_1_22558)" stroke="#3E3B3B"/>
<g opacity="0.23">
<path opacity="0.23" d="M91.3445 100.598C118.657 100.598 140.799 79.745 140.799 54.0212C140.799 28.2974 118.657 7.44409 91.3445 7.44409C64.0317 7.44409 41.8904 28.2974 41.8904 54.0212C41.8904 79.745 64.0317 100.598 91.3445 100.598Z" fill="#91B3FA"/>
</g>
<g opacity="0.68">
<g style="mix-blend-mode:soft-light" opacity="0.68">
<path d="M110.856 58.5025C110.841 68.7692 110.135 79.057 108.316 89.1786C107.856 91.7108 107.324 94.2229 106.69 96.7155C106.064 99.2122 105.306 101.674 104.418 104.09C103.51 106.499 102.458 108.873 101.031 111.042C100.312 112.118 99.4955 113.153 98.4913 113.997C97.9883 114.428 97.4282 114.787 96.8268 115.066C96.2154 115.348 95.5529 115.503 94.8795 115.523C94.207 115.538 93.5384 115.416 92.9153 115.163C92.301 114.91 91.7271 114.569 91.2118 114.15C90.1805 113.328 89.3491 112.308 88.6134 111.239C87.1597 109.085 86.0929 106.716 85.176 104.311C84.2773 101.899 83.511 99.4391 82.8807 96.9434C82.2398 94.4533 81.7013 91.9379 81.2382 89.4107C80.3136 84.3546 79.6829 79.2503 79.2578 74.1326C78.8328 69.0148 78.6237 63.8768 78.5974 58.7405C78.5847 56.1728 78.655 53.605 78.7464 51.039C78.8379 48.473 78.9844 45.9086 79.1698 43.3485C79.5508 38.2273 80.1197 33.118 80.9655 28.0501C81.3889 25.5178 81.885 22.9948 82.4802 20.4946C83.0654 17.9903 83.7835 15.5187 84.6316 13.0902C85.0642 11.8781 85.5366 10.6795 86.076 9.50873C86.6105 8.33301 87.232 7.19852 87.9352 6.11462C88.6447 5.03672 89.4592 4.00861 90.4752 3.18477C90.9814 2.76757 91.548 2.4292 92.1558 2.18114C92.7688 1.93378 93.427 1.81732 94.0879 1.83929C94.7471 1.86378 95.3954 2.01512 95.9971 2.28497C96.5933 2.55502 97.1512 2.90211 97.6565 3.3173C98.6725 4.1386 99.509 5.14223 100.252 6.1965C101.732 8.3194 102.847 10.6609 103.813 13.0429C104.761 15.4349 105.576 17.8769 106.254 20.3579C106.941 22.8353 107.524 25.338 108.026 27.8585C110.016 37.9454 110.825 48.2341 110.856 58.5025ZM110.094 58.5025C110.104 53.3873 109.9 48.2771 109.482 43.172C109.058 38.0746 108.425 32.9914 107.476 27.9648C107.002 25.4511 106.451 22.9526 105.794 20.4819C105.147 18.0089 104.364 15.5731 103.449 13.1856C102.517 10.8112 101.434 8.47809 99.9992 6.36954C99.2779 5.32371 98.4634 4.32937 97.4872 3.52072C97.0035 3.11491 96.4684 2.77434 95.8955 2.50781C95.3252 2.24199 94.7076 2.09165 94.0786 2.0655C93.4498 2.05048 92.8249 2.16783 92.2447 2.40989C91.6648 2.65467 91.1254 2.98535 90.6445 3.39073C89.67 4.19769 88.8801 5.21313 88.1892 6.28175C87.5103 7.3616 86.9126 8.49016 86.4011 9.65813C85.8804 10.823 85.424 12.0174 85.0083 13.2244C84.1918 15.6474 83.505 18.112 82.9509 20.6077C82.3862 23.1012 81.9206 25.6183 81.526 28.1455C80.7386 33.2008 80.2281 38.2974 79.9038 43.4033C79.5796 48.5093 79.4687 53.627 79.4737 58.7439C79.4602 63.8591 79.64 68.9704 80.0131 74.0777C80.3974 79.1786 80.9859 84.2659 81.8672 89.3043C82.3083 91.8223 82.824 94.3275 83.442 96.8075C84.0484 99.2887 84.79 101.735 85.6636 104.136C86.5518 106.524 87.5915 108.873 88.9961 110.988C89.703 112.037 90.5074 113.033 91.4819 113.821C91.9617 114.217 92.4975 114.541 93.0719 114.782C93.6407 115.02 94.2536 115.135 94.8702 115.12C95.4861 115.096 96.0909 114.949 96.6482 114.686C97.2118 114.419 97.736 114.076 98.206 113.667C99.1602 112.85 99.9467 111.843 100.641 110.785C102.021 108.653 103.046 106.298 103.924 103.906C104.786 101.501 105.519 99.0527 106.12 96.5703C106.73 94.0886 107.24 91.5825 107.677 89.0629C108.552 84.0245 109.134 78.9338 109.52 73.8354C109.906 68.7371 110.096 63.6194 110.093 58.5025H110.094Z" fill="white"/>
</g>
<g style="mix-blend-mode:soft-light" opacity="0.68">
<path d="M136.834 58.5025C136.798 65.1143 135.946 71.7286 134.171 78.104C132.364 84.4651 129.641 90.5848 125.945 96.0832C124.101 98.8344 121.997 101.403 119.662 103.754C117.327 106.107 114.733 108.189 111.928 109.961C109.118 111.727 106.083 113.11 102.904 114.074C96.5088 116.015 89.6797 116.018 83.2827 114.084C80.102 113.122 77.0647 111.741 74.2514 109.976C71.4439 108.206 68.846 106.125 66.507 103.774C64.1679 101.424 62.06 98.8559 60.2121 96.1052C56.508 90.6101 53.7775 84.4879 51.9648 78.126C51.073 74.9344 50.4059 71.6846 49.9684 68.4003C49.0701 61.8323 49.0721 55.173 49.9743 48.6055C50.4148 45.3243 51.0842 42.0776 51.9775 38.8891C53.797 32.5281 56.53 26.4101 60.2366 20.9201C62.0852 18.1722 64.1934 15.6071 66.5324 13.2599C68.8705 10.9116 71.4676 8.83454 74.2742 7.0685C77.087 5.31217 80.1215 3.93635 83.2979 2.97718C89.6832 1.03432 96.505 1.03696 102.889 2.98478C106.063 3.94706 109.096 5.32602 111.906 7.08539C114.709 8.85313 117.303 10.9319 119.637 13.2819C121.973 15.6297 124.077 18.1954 125.921 20.9437C129.62 26.4303 132.347 32.5475 134.157 38.906C135.941 45.2781 136.794 51.8907 136.834 58.5025ZM135.96 58.5025C135.951 51.9658 135.134 45.419 133.404 39.1128C131.674 32.8066 129.045 26.7308 125.442 21.2611C123.645 18.522 121.589 15.9612 119.301 13.6136C117.008 11.2763 114.475 9.16186 111.705 7.40445C108.933 5.64412 105.937 4.26293 102.796 3.29794C96.4792 1.34352 89.7158 1.34646 83.4003 3.30638C80.2608 4.27496 77.2659 5.65956 74.496 7.42302C71.7292 9.18296 69.2002 11.2991 66.9108 13.6372C64.6278 15.9848 62.5757 18.5451 60.7827 21.283C57.1844 26.7528 54.5708 32.8302 52.8394 39.128C51.9841 42.2822 51.3462 45.4911 50.9302 48.7321C50.0736 55.2178 50.0756 61.7877 50.9361 68.2729C51.3547 71.513 51.9951 74.7207 52.8529 77.8736C54.5877 84.168 57.2056 90.2429 60.8064 95.7068C62.6009 98.443 64.6541 101.002 66.9379 103.347C69.2239 105.682 71.7546 107.797 74.5214 109.551C77.2902 111.305 80.2816 112.683 83.4164 113.648C89.72 115.616 96.4759 115.619 102.781 113.656C105.918 112.695 108.912 111.319 111.683 109.566C114.452 107.814 116.984 105.701 119.277 103.368C121.564 101.023 123.621 98.4643 125.418 95.7279C129.026 90.264 131.65 84.1857 133.394 77.8888C135.138 71.5919 135.946 65.0392 135.96 58.5025Z" fill="white"/>
</g>
<g style="mix-blend-mode:soft-light" opacity="0.68">
<path d="M42.0556 35.9374L55.1915 35.8319L68.3266 35.772L94.5975 35.7239L120.868 35.7771L134.003 35.842L147.139 35.9535C147.144 35.9535 147.149 35.9545 147.154 35.9564C147.159 35.9584 147.163 35.9613 147.167 35.9649C147.17 35.9685 147.173 35.9728 147.175 35.9775C147.177 35.9822 147.178 35.9872 147.177 35.9923C147.177 36.0022 147.173 36.0117 147.166 36.0187C147.159 36.0257 147.149 36.0299 147.139 36.0303L134.003 36.1442L120.868 36.2101L94.5975 36.2632L68.3266 36.2143L55.1915 36.1544L42.0556 36.0522C42.0403 36.0522 42.0257 36.0462 42.0149 36.0354C42.0041 36.0247 41.998 36.0101 41.998 35.9948C41.998 35.9796 42.0041 35.965 42.0149 35.9542C42.0257 35.9435 42.0403 35.9374 42.0556 35.9374Z" fill="white"/>
</g>
<g style="mix-blend-mode:soft-light" opacity="0.68">
<path d="M57.2954 14.0069C60.4034 13.9579 63.5124 13.9368 66.6204 13.9014L75.9464 13.8414C79.0553 13.8153 82.1634 13.8186 85.2723 13.8102L94.5982 13.7925L113.249 13.8457L122.575 13.9115C125.684 13.9503 128.792 13.9731 131.901 14.0255C131.911 14.0259 131.921 14.0303 131.928 14.0377C131.935 14.045 131.939 14.0549 131.939 14.0651C131.939 14.075 131.935 14.0843 131.928 14.0912C131.92 14.0981 131.911 14.1021 131.901 14.1023C128.792 14.1554 125.684 14.1782 122.575 14.2171L113.249 14.2821L94.5982 14.3352L85.2723 14.3175C82.1634 14.3099 79.0553 14.3124 75.9464 14.2871L66.6204 14.2272C63.5124 14.1917 60.4034 14.1706 57.2954 14.1217C57.2801 14.1217 57.2655 14.1156 57.2547 14.1049C57.2439 14.0941 57.2378 14.0795 57.2378 14.0643C57.2378 14.0491 57.2439 14.0345 57.2547 14.0237C57.2655 14.0129 57.2801 14.0069 57.2954 14.0069Z" fill="white"/>
</g>
<g style="mix-blend-mode:soft-light" opacity="0.68">
<path d="M37.4911 57.8719L51.7674 57.7664L66.0437 57.7056L94.5973 57.6575L123.15 57.7106L137.427 57.7765L151.703 57.8904C151.714 57.8907 151.723 57.8948 151.73 57.9021C151.738 57.9094 151.742 57.9191 151.742 57.9293C151.742 57.9393 151.738 57.949 151.73 57.9561C151.723 57.9633 151.714 57.9673 151.703 57.9673L137.427 58.0812L123.15 58.147L94.5973 58.2002L66.0437 58.153L51.7674 58.0922L37.4911 57.9841C37.483 57.9851 37.4748 57.9844 37.467 57.982C37.4592 57.9796 37.452 57.9755 37.4459 57.9701C37.4398 57.9647 37.4349 57.9581 37.4316 57.9507C37.4282 57.9433 37.4265 57.9353 37.4265 57.9272C37.4265 57.919 37.4282 57.911 37.4316 57.9036C37.4349 57.8962 37.4398 57.8896 37.4459 57.8842C37.452 57.8788 37.4592 57.8748 37.467 57.8724C37.4748 57.8699 37.483 57.8692 37.4911 57.8702V57.8719Z" fill="white"/>
</g>
<g style="mix-blend-mode:soft-light" opacity="0.68">
<path d="M42.0545 79.8057L55.1904 79.7002L68.3255 79.6403L94.5964 79.5913L120.867 79.6445L134.002 79.7103L147.138 79.8243C147.147 79.8256 147.156 79.8303 147.162 79.8373C147.168 79.8444 147.171 79.8534 147.171 79.8627C147.171 79.872 147.168 79.881 147.162 79.888C147.156 79.8951 147.147 79.8997 147.138 79.9011L134.002 80.015L120.867 80.08L94.5964 80.1332L68.3255 80.0851L55.1904 80.0252L42.0545 79.9197C42.0393 79.9192 42.0249 79.9129 42.0143 79.902C42.0037 79.8911 41.9978 79.8766 41.9978 79.8614C41.998 79.8466 42.0041 79.8324 42.0147 79.822C42.0253 79.8115 42.0396 79.8057 42.0545 79.8057Z" fill="white"/>
</g>
<g style="mix-blend-mode:soft-light" opacity="0.68">
<path d="M133.781 101.998H59.1756C59.1222 101.998 59.0709 101.977 59.0331 101.939C58.9954 101.901 58.9741 101.85 58.9741 101.797C58.9741 101.744 58.9954 101.693 59.0331 101.655C59.0709 101.617 59.1222 101.596 59.1756 101.596H133.781C133.835 101.596 133.886 101.617 133.924 101.655C133.962 101.693 133.983 101.744 133.983 101.797C133.983 101.85 133.962 101.901 133.924 101.939C133.886 101.977 133.835 101.998 133.781 101.998Z" fill="white"/>
</g>
</g>
<path d="M128.959 77.613V68.2865C128.959 66.936 128.017 65.8386 126.842 65.8201C123.324 65.7753 116.07 65.7736 110.135 66.3502C109.325 66.4295 108.695 67.1943 108.666 68.132L108.188 77.1571L128.959 77.613Z" fill="url(#paint1_linear_1_22558)"/>
<path opacity="0.84" d="M126.921 69.3999C126.937 70.276 126.914 71.6646 126.896 72.5627C126.886 73.0295 126.53 73.3857 126.128 73.3308L123.234 72.94C122.848 72.8877 122.576 72.4774 122.634 72.0343L122.99 69.3003C123.039 68.912 123.328 68.625 123.667 68.625H126.232C126.608 68.625 126.915 68.9685 126.921 69.3999Z" fill="white"/>
<path opacity="0.37" d="M119.356 74.5816L116.941 74.8821C116.602 74.9243 116.315 74.6027 116.34 74.2119L116.867 65.9255C117.883 65.8892 118.878 65.8622 119.842 65.8411V73.9553C119.842 74.2752 119.632 74.547 119.356 74.5816Z" fill="white"/>
<path d="M118.366 73.1459C118.367 73.2124 118.343 73.2767 118.298 73.3257C118.253 73.3746 118.191 73.4046 118.124 73.4093H118.11C118.041 73.399 117.978 73.3624 117.935 73.3072C117.893 73.2519 117.873 73.1823 117.881 73.113L118.245 65.8817L118.733 65.8682L118.366 73.1459Z" fill="white"/>
<path d="M125.578 72.0098H125.583C125.606 72.0098 125.627 72.0009 125.643 71.9851C125.659 71.9693 125.668 71.9478 125.668 71.9254L125.793 69.6464C125.796 69.6233 125.79 69.6 125.775 69.5816C125.761 69.5632 125.74 69.551 125.717 69.5476C125.695 69.5476 125.673 69.5565 125.657 69.5723C125.641 69.5882 125.633 69.6096 125.633 69.632L125.507 71.9111C125.505 71.9222 125.505 71.9337 125.508 71.9448C125.51 71.9558 125.515 71.9663 125.522 71.9755C125.528 71.9848 125.537 71.9925 125.547 71.9984C125.556 72.0043 125.567 72.0082 125.578 72.0098Z" fill="url(#paint2_linear_1_22558)"/>
<path d="M125.326 72.0098C125.337 72.0098 125.349 72.0074 125.359 72.0029C125.37 71.9983 125.38 71.9917 125.387 71.9833C125.395 71.9749 125.402 71.965 125.405 71.9541C125.409 71.9433 125.411 71.9318 125.41 71.9203L125.476 69.5982C125.479 69.5751 125.472 69.552 125.457 69.534C125.442 69.516 125.421 69.5045 125.398 69.502C125.386 69.5019 125.375 69.5043 125.364 69.5089C125.353 69.5135 125.344 69.5203 125.336 69.5287C125.328 69.5372 125.322 69.5472 125.318 69.5582C125.314 69.5691 125.312 69.5807 125.313 69.5923L125.247 71.9135C125.245 71.9251 125.246 71.9368 125.249 71.9481C125.252 71.9593 125.258 71.9698 125.265 71.9789C125.273 71.9879 125.282 71.9953 125.292 72.0006C125.303 72.0059 125.314 72.0091 125.326 72.0098Z" fill="url(#paint3_linear_1_22558)"/>
<path d="M124.974 72.0096C124.962 72.0087 124.951 72.0054 124.941 71.9999C124.93 71.9945 124.921 71.987 124.914 71.9778C124.907 71.9687 124.902 71.9582 124.899 71.947C124.896 71.9358 124.895 71.924 124.897 71.9125C124.929 71.1326 124.99 69.6453 124.991 69.5946C124.987 69.582 124.986 69.5688 124.989 69.5559C124.991 69.543 124.996 69.5308 125.004 69.5203C125.012 69.5099 125.022 69.5013 125.034 69.4955C125.046 69.4896 125.059 69.4866 125.072 69.4866C125.085 69.4866 125.098 69.4896 125.11 69.4955C125.122 69.5013 125.132 69.5099 125.14 69.5203C125.148 69.5308 125.153 69.543 125.155 69.5559C125.158 69.5688 125.157 69.582 125.153 69.5946C125.153 69.6326 125.075 71.5361 125.058 71.9201C125.058 71.9425 125.05 71.964 125.034 71.9798C125.018 71.9957 124.996 72.0045 124.974 72.0045V72.0096Z" fill="url(#paint4_linear_1_22558)"/>
<path d="M124.434 72.1035H124.44C124.485 72.1002 124.527 72.0797 124.557 72.0461C124.587 72.0126 124.603 71.9687 124.602 71.9237C124.67 69.6741 124.658 69.6235 124.65 69.5897C124.646 69.5676 124.638 69.5465 124.626 69.5276C124.614 69.5088 124.598 69.4927 124.579 69.4804C124.561 69.468 124.54 69.4598 124.517 69.4561C124.495 69.4524 124.473 69.4533 124.451 69.4589C124.411 69.4745 124.377 69.5034 124.356 69.5407C124.334 69.5781 124.326 69.6216 124.333 69.664C124.338 69.7991 124.303 71.1074 124.278 71.9102C124.274 71.9563 124.287 72.0024 124.317 72.0385C124.346 72.0746 124.388 72.0979 124.434 72.1035Z" fill="url(#paint5_linear_1_22558)"/>
<path d="M124.087 72.0097C124.099 72.0098 124.111 72.0073 124.122 72.0026C124.133 71.9978 124.143 71.9908 124.15 71.9821C124.158 71.9733 124.165 71.963 124.168 71.9518C124.172 71.9405 124.173 71.9286 124.172 71.9169V69.6378C124.176 69.6251 124.177 69.6118 124.175 69.5987C124.173 69.5857 124.167 69.5733 124.159 69.5627C124.152 69.552 124.141 69.5434 124.129 69.5374C124.118 69.5314 124.105 69.5283 124.091 69.5283C124.078 69.5283 124.065 69.5314 124.053 69.5374C124.041 69.5434 124.031 69.552 124.023 69.5627C124.015 69.5733 124.01 69.5857 124.008 69.5987C124.006 69.6118 124.006 69.6251 124.01 69.6378V71.9169C124.009 71.928 124.01 71.9393 124.014 71.95C124.017 71.9608 124.022 71.9708 124.029 71.9794C124.037 71.988 124.045 71.9952 124.055 72.0004C124.065 72.0056 124.076 72.0088 124.087 72.0097Z" fill="url(#paint6_linear_1_22558)"/>
<path d="M123.804 72.0098C123.816 72.0099 123.827 72.0075 123.838 72.0028C123.849 71.9982 123.859 71.9913 123.866 71.9828C123.874 71.9742 123.881 71.9641 123.884 71.9531C123.888 71.942 123.89 71.9303 123.889 71.9187C123.904 71.1278 123.94 69.8346 123.973 69.6793C123.981 69.6644 123.985 69.6477 123.985 69.6308C123.985 69.6139 123.981 69.5972 123.973 69.5822C123.969 69.5723 123.962 69.5636 123.953 69.5567C123.945 69.5499 123.935 69.545 123.924 69.5425C123.913 69.54 123.902 69.5399 123.891 69.5422C123.88 69.5446 123.87 69.5493 123.862 69.5561C123.818 69.589 123.777 69.6202 123.73 71.9145C123.729 71.926 123.73 71.9378 123.733 71.949C123.736 71.9602 123.742 71.9706 123.749 71.9795C123.757 71.9885 123.766 71.9958 123.776 72.001C123.787 72.0062 123.798 72.0092 123.81 72.0098H123.804Z" fill="url(#paint7_linear_1_22558)"/>
<path d="M126.011 72.2174H126.02C126.064 72.2142 126.106 72.194 126.136 72.161C126.166 72.128 126.183 72.0847 126.182 72.0401L126.289 69.6488C126.294 69.6027 126.281 69.5564 126.252 69.5198C126.224 69.4831 126.182 69.4589 126.136 69.4521C126.09 69.4537 126.047 69.4731 126.015 69.5063C125.983 69.5394 125.966 69.5836 125.967 69.6294L125.858 72.0207C125.853 72.0669 125.867 72.1132 125.895 72.1498C125.924 72.1865 125.965 72.2107 126.011 72.2174Z" fill="url(#paint8_linear_1_22558)"/>
<path d="M136.046 81.5498H169.669V56.9504C169.669 56.7489 169.588 56.5556 169.445 56.4132C169.303 56.2707 169.109 56.1907 168.907 56.1907H137.171C136.873 56.1907 136.587 56.3084 136.376 56.5181C136.166 56.7278 136.047 57.0122 136.046 57.3091V81.5498Z" fill="#FFBE2E"/>
<path d="M138.567 81.0837H169.67V55.7212H139.69C139.392 55.7219 139.106 55.8403 138.896 56.0507C138.685 56.261 138.567 56.5459 138.567 56.843V81.0837Z" fill="#FFEECC"/>
<path d="M99.7704 31.116H98.3877V43.8458H99.7704V31.116Z" fill="#FFBE2E"/>
<path d="M97.3188 31.9988H101.089V31.3953C101.089 31.3218 101.06 31.2514 101.008 31.1995C100.956 31.1476 100.885 31.1184 100.811 31.1184H97.594C97.5574 31.1183 97.5212 31.1254 97.4874 31.1392C97.4537 31.1531 97.4229 31.1735 97.3971 31.1992C97.3712 31.2249 97.3507 31.2555 97.3366 31.2891C97.3226 31.3228 97.3154 31.3589 97.3154 31.3953L97.3188 31.9988Z" fill="#FFBE2E"/>
<path d="M104.839 40.4626H102.382V46.9698H104.839V40.4626Z" fill="#FFBE2E"/>
<path d="M86.8113 40.4626H84.3542V46.9698H86.8113V40.4626Z" fill="#7D97F4"/>
<path d="M112.163 61.1833H80.2085V79.3382H112.163V61.1833Z" fill="#FFEECC"/>
<path d="M82.8494 61.3159H107.148V43.3553C107.148 43.3038 107.128 43.2544 107.091 43.218C107.055 43.1816 107.005 43.1611 106.954 43.1611H82.8494V61.3159Z" fill="#FFEECC"/>
<path d="M112.445 59.9924H79.5562C79.3262 59.9924 79.1396 60.1784 79.1396 60.4077V62.2251C79.1396 62.4545 79.3262 62.6404 79.5562 62.6404H112.445C112.676 62.6404 112.862 62.4545 112.862 62.2251V60.4077C112.862 60.1784 112.676 59.9924 112.445 59.9924Z" fill="#FFBE2E"/>
<path d="M88.3503 45.8682H85.5842V51.2552H88.3503V45.8682Z" fill="#FFBE2E"/>
<path d="M93.1181 45.8682H90.3521V51.2552H93.1181V45.8682Z" fill="#FFBE2E"/>
<path d="M98.7655 45.8682H95.9995V51.2552H98.7655V45.8682Z" fill="#FFBE2E"/>
<path d="M103.534 45.8682H100.768V51.2552H103.534V45.8682Z" fill="#FFBE2E"/>
<path d="M89.9772 65.6309H87.2112V71.0179H89.9772V65.6309Z" fill="#FFBE2E"/>
<path d="M94.745 65.6309H91.979V71.0179H94.745V65.6309Z" fill="#FFBE2E"/>
<path d="M100.393 65.6309H97.6265V71.0179H100.393V65.6309Z" fill="#FFBE2E"/>
<path d="M105.162 65.6309H102.396V71.0179H105.162V65.6309Z" fill="#FFBE2E"/>
<path d="M174.9 87.1054C168.812 90.0234 163.2 93.1643 161.482 97.4945L89.664 97.887L87.0215 87.6068C86.4069 85.2129 84.4494 83.1846 81.724 82.105C72.9281 78.6214 66.0693 76.0013 66.4842 70.5949L113.319 70.1729C113.477 70.1716 113.631 70.2203 113.759 70.3121C113.888 70.4039 113.984 70.5339 114.033 70.6836L114.711 72.7482C115.534 75.2467 118.311 77.0067 121.525 77.0666L162.905 77.8372L164.487 75.0391C164.55 74.9271 164.642 74.8339 164.754 74.7694C164.865 74.7048 164.992 74.6711 165.121 74.6719L181.558 74.7377C181.636 74.738 181.712 74.7588 181.779 74.798C181.846 74.8372 181.901 74.8933 181.939 74.9607C181.978 75.0281 181.997 75.1044 181.996 75.1818C181.995 75.2591 181.973 75.3348 181.934 75.4012L174.9 87.1054Z" fill="#FFEECC"/>
<path d="M174.899 88.7447C168.811 91.6628 163.199 97.0835 161.481 101.414L89.6629 101.806L87.0205 89.2461C86.4058 86.8523 84.4484 84.8239 81.723 83.7443C72.9271 80.2599 66.9657 76.4387 66.4832 72.2343L112.342 71.5953C112.484 71.5933 112.623 71.6329 112.742 71.7091C112.861 71.7854 112.955 71.8949 113.012 72.0241L114.211 74.7412C115.391 77.3469 118.315 78.646 121.528 78.7085L162.908 79.4791L164.432 76.7898C164.514 76.6444 164.633 76.5231 164.777 76.4382C164.921 76.3533 165.085 76.3078 165.252 76.3062L181.577 76.1374L174.899 88.7447Z" fill="url(#paint9_linear_1_22558)"/>
<path d="M161.136 87.2744C160.672 87.2745 160.218 87.1374 159.832 86.8804C159.446 86.6234 159.145 86.2579 158.967 85.8304C158.79 85.4028 158.743 84.9322 158.834 84.4783C158.924 84.0243 159.148 83.6073 159.476 83.28C159.804 82.9528 160.223 82.7299 160.678 82.6396C161.133 82.5494 161.605 82.5958 162.034 82.773C162.463 82.9502 162.829 83.2502 163.087 83.6351C163.345 84.0201 163.483 84.4726 163.482 84.9354C163.482 85.5555 163.234 86.1501 162.795 86.5886C162.355 87.0271 161.758 87.2737 161.136 87.2744ZM161.136 83.1383C160.781 83.1383 160.433 83.2435 160.137 83.4406C159.841 83.6377 159.61 83.9178 159.474 84.2456C159.338 84.5734 159.302 84.934 159.372 85.2819C159.441 85.6299 159.613 85.9495 159.864 86.2004C160.116 86.4512 160.436 86.622 160.785 86.6912C161.134 86.7605 161.496 86.7249 161.825 86.5892C162.154 86.4534 162.435 86.2235 162.632 85.9285C162.83 85.6336 162.936 85.2868 162.936 84.932C162.935 84.4565 162.745 84.0007 162.408 83.6644C162.071 83.3282 161.613 83.139 161.136 83.1383Z" fill="white"/>
<path d="M153.668 87.2744C153.204 87.2745 152.75 87.1374 152.364 86.8804C151.978 86.6234 151.677 86.2579 151.499 85.8304C151.321 85.4028 151.275 84.9322 151.365 84.4783C151.456 84.0243 151.679 83.6073 152.007 83.28C152.336 82.9528 152.754 82.7299 153.209 82.6396C153.665 82.5494 154.137 82.5958 154.566 82.773C154.994 82.9502 155.361 83.2502 155.619 83.6351C155.877 84.0201 156.014 84.4726 156.014 84.9354C156.013 85.5555 155.766 86.1501 155.326 86.5886C154.886 87.0271 154.29 87.2737 153.668 87.2744ZM153.668 83.1383C153.312 83.1383 152.964 83.2435 152.668 83.4406C152.372 83.6377 152.142 83.9178 152.006 84.2456C151.869 84.5734 151.834 84.934 151.903 85.2819C151.973 85.6299 152.144 85.9495 152.396 86.2004C152.647 86.4512 152.968 86.622 153.317 86.6912C153.666 86.7605 154.028 86.7249 154.356 86.5892C154.685 86.4534 154.966 86.2235 155.164 85.9285C155.361 85.6336 155.467 85.2868 155.467 84.932C155.467 84.4564 155.277 84.0005 154.94 83.6642C154.602 83.3279 154.145 83.1388 153.668 83.1383Z" fill="white"/>
<path d="M146.967 87.0938C146.503 87.0938 146.049 86.9566 145.663 86.6996C145.277 86.4426 144.977 86.0773 144.799 85.6499C144.622 85.2225 144.575 84.7522 144.666 84.2984C144.756 83.8447 144.98 83.428 145.308 83.1008C145.636 82.7737 146.054 82.551 146.509 82.4607C146.964 82.3705 147.436 82.4168 147.864 82.5938C148.293 82.7709 148.66 83.0706 148.917 83.4553C149.175 83.8399 149.313 84.2922 149.313 84.7548C149.312 85.3748 149.064 85.9692 148.625 86.4077C148.185 86.8462 147.589 87.0929 146.967 87.0938ZM146.967 82.9619C146.611 82.9617 146.263 83.0668 145.967 83.2638C145.671 83.4609 145.44 83.741 145.304 84.0688C145.168 84.3966 145.132 84.7573 145.201 85.1053C145.271 85.4534 145.442 85.773 145.694 86.024C145.945 86.2749 146.266 86.4457 146.615 86.5149C146.964 86.5841 147.326 86.5485 147.655 86.4126C147.984 86.2768 148.265 86.0467 148.462 85.7516C148.66 85.4565 148.765 85.1096 148.765 84.7548C148.764 84.2795 148.575 83.8238 148.238 83.4878C147.9 83.1517 147.443 82.9626 146.967 82.9619Z" fill="white"/>
<path d="M105.161 78.4526C104.697 78.4528 104.243 78.3157 103.857 78.0586C103.47 77.8016 103.17 77.4362 102.992 77.0086C102.814 76.581 102.768 76.1105 102.858 75.6565C102.949 75.2025 103.172 74.7855 103.5 74.4583C103.829 74.131 104.247 73.9081 104.702 73.8179C105.158 73.7276 105.63 73.774 106.058 73.9512C106.487 74.1284 106.854 74.4285 107.112 74.8134C107.37 75.1983 107.507 75.6508 107.507 76.1136C107.506 76.7338 107.259 77.3283 106.819 77.7668C106.379 78.2053 105.783 78.4519 105.161 78.4526ZM105.161 74.3165C104.805 74.3165 104.457 74.4217 104.161 74.6188C103.865 74.8159 103.635 75.0961 103.499 75.4238C103.362 75.7516 103.327 76.1122 103.396 76.4602C103.466 76.8081 103.637 77.1277 103.889 77.3786C104.14 77.6294 104.461 77.8003 104.81 77.8695C105.159 77.9387 105.521 77.9032 105.849 77.7674C106.178 77.6316 106.459 77.4017 106.657 77.1068C106.854 76.8118 106.96 76.465 106.96 76.1102C106.959 75.6352 106.769 75.1801 106.431 74.8446C106.094 74.509 105.637 74.3204 105.161 74.3199V74.3165Z" fill="#91B3FA"/>
<path d="M97.6262 78.4526C97.162 78.4526 96.7082 78.3153 96.3223 78.0582C95.9363 77.8011 95.6355 77.4356 95.4579 77.008C95.2803 76.5804 95.2338 76.1099 95.3245 75.656C95.4151 75.2021 95.6387 74.7852 95.967 74.458C96.2953 74.1308 96.7136 73.908 97.1689 73.8178C97.6242 73.7276 98.0961 73.7741 98.525 73.9513C98.9538 74.1285 99.3203 74.4286 99.5781 74.8135C99.8358 75.1983 99.9734 75.6508 99.9732 76.1136C99.9725 76.7339 99.725 77.3286 99.285 77.7671C98.845 78.2056 98.2484 78.4522 97.6262 78.4526ZM97.6262 74.3165C97.2704 74.3165 96.9226 74.4217 96.6267 74.6188C96.3308 74.8159 96.1002 75.0961 95.964 75.4238C95.8279 75.7516 95.7922 76.1122 95.8617 76.4602C95.9311 76.8081 96.1024 77.1277 96.354 77.3786C96.6057 77.6294 96.9262 77.8003 97.2752 77.8695C97.6242 77.9387 97.986 77.9032 98.3147 77.7674C98.6435 77.6316 98.9245 77.4017 99.1222 77.1068C99.3199 76.8118 99.4254 76.465 99.4254 76.1102C99.424 75.6352 99.234 75.1801 98.8967 74.8446C98.5595 74.509 98.1027 74.3204 97.6262 74.3199V74.3165Z" fill="#91B3FA"/>
<path d="M91.7349 78.4526C91.2707 78.4526 90.8169 78.3153 90.4309 78.0582C90.0449 77.8011 89.7441 77.4356 89.5665 77.008C89.3889 76.5804 89.3425 76.1099 89.4331 75.656C89.5237 75.2021 89.7473 74.7852 90.0756 74.458C90.404 74.1308 90.8222 73.908 91.2775 73.8178C91.7329 73.7276 92.2048 73.7741 92.6336 73.9513C93.0624 74.1285 93.4289 74.4286 93.6867 74.8135C93.9445 75.1983 94.082 75.6508 94.0818 76.1136C94.0812 76.7339 93.8337 77.3286 93.3936 77.7671C92.9536 78.2056 92.357 78.4522 91.7349 78.4526ZM91.7349 74.3165C91.379 74.3165 91.0312 74.4217 90.7353 74.6188C90.4395 74.8159 90.2089 75.0961 90.0727 75.4238C89.9365 75.7516 89.9009 76.1122 89.9703 76.4602C90.0397 76.8081 90.2111 77.1277 90.4627 77.3786C90.7143 77.6294 91.0349 77.8003 91.3839 77.8695C91.7329 77.9387 92.0946 77.9032 92.4234 77.7674C92.7521 77.6316 93.0331 77.4017 93.2308 77.1068C93.4285 76.8118 93.534 76.465 93.534 76.1102C93.5327 75.6352 93.3426 75.1801 93.0054 74.8446C92.6682 74.509 92.2113 74.3204 91.7349 74.3199V74.3165Z" fill="#91B3FA"/>
<path d="M163.634 81.8654H163.627L123.279 81.1564C123.206 81.1564 123.137 81.1276 123.085 81.0765C123.034 81.0254 123.005 80.956 123.005 80.8837C123.005 80.8114 123.034 80.7421 123.085 80.6909C123.137 80.6398 123.206 80.6111 123.279 80.6111H123.284L163.633 81.3201C163.705 81.3208 163.775 81.3502 163.825 81.4018C163.876 81.4534 163.904 81.523 163.904 81.5953C163.903 81.6676 163.874 81.7367 163.822 81.7873C163.77 81.838 163.7 81.8661 163.628 81.8654H163.634Z" fill="#FFBE2E"/>
<path d="M72.5133 73.6001C72.4432 73.597 72.377 73.5671 72.3283 73.5168C72.2796 73.4664 72.2521 73.3994 72.2515 73.3295C72.2508 73.2595 72.2771 73.192 72.3248 73.1408C72.3726 73.0895 72.4382 73.0585 72.5082 73.054L107.435 72.334C107.473 72.3313 107.51 72.3362 107.545 72.3483C107.58 72.3605 107.612 72.3797 107.64 72.4047C107.667 72.4297 107.69 72.46 107.705 72.4938C107.72 72.5276 107.729 72.5642 107.729 72.6013C107.73 72.6384 107.723 72.6752 107.709 72.7096C107.695 72.744 107.674 72.7752 107.648 72.8013C107.621 72.8273 107.59 72.8478 107.555 72.8613C107.521 72.8749 107.484 72.8813 107.446 72.8801L72.5192 73.6001H72.5133Z" fill="#FFBE2E"/>
<path d="M149.849 77.613V68.2865C149.849 66.936 148.907 65.8386 147.733 65.8201C144.216 65.7753 136.962 65.7736 131.026 66.3502C130.216 66.4295 129.586 67.1943 129.557 68.132L129.084 77.1571L149.849 77.613Z" fill="#FFBE2E"/>
<path d="M147.81 69.3999C147.825 70.276 147.803 71.6646 147.785 72.5627C147.775 73.0295 147.42 73.3857 147.018 73.3308L144.123 72.94C143.737 72.8877 143.465 72.4774 143.523 72.0343L143.878 69.3003C143.929 68.912 144.217 68.625 144.556 68.625H147.121C147.497 68.625 147.803 68.9685 147.81 69.3999Z" fill="white"/>
<path opacity="0.37" d="M140.248 74.5816L137.833 74.8821C137.494 74.9243 137.207 74.6027 137.232 74.2119L137.76 65.9255C138.775 65.8892 139.77 65.8622 140.734 65.8411V73.9553C140.734 74.2752 140.524 74.547 140.248 74.5816Z" fill="white"/>
<path d="M139.259 73.1459C139.26 73.2124 139.235 73.2767 139.19 73.3257C139.145 73.3746 139.083 73.4046 139.016 73.4093H139.002C138.933 73.399 138.87 73.3624 138.828 73.3072C138.785 73.2519 138.766 73.1823 138.773 73.113L139.137 65.8817L139.625 65.8682L139.259 73.1459Z" fill="white"/>
<path d="M146.468 72.0098H146.473C146.495 72.0098 146.517 72.0009 146.533 71.9851C146.549 71.9693 146.558 71.9478 146.558 71.9254L146.683 69.6464C146.686 69.6233 146.679 69.6 146.665 69.5816C146.651 69.5632 146.63 69.551 146.607 69.5476C146.584 69.5476 146.563 69.5565 146.547 69.5723C146.531 69.5882 146.522 69.6096 146.522 69.632L146.397 71.9111C146.394 71.9334 146.4 71.956 146.413 71.9743C146.426 71.9927 146.446 72.0053 146.468 72.0098Z" fill="url(#paint10_linear_1_22558)"/>
<path d="M146.215 72.0098C146.226 72.0098 146.238 72.0074 146.248 72.0029C146.259 71.9983 146.269 71.9917 146.277 71.9833C146.284 71.9749 146.291 71.965 146.295 71.9541C146.299 71.9433 146.3 71.9318 146.299 71.9203L146.365 69.5982C146.367 69.5752 146.36 69.5523 146.345 69.5343C146.331 69.5163 146.31 69.5047 146.287 69.502C146.275 69.5019 146.264 69.5043 146.253 69.5089C146.242 69.5135 146.233 69.5203 146.225 69.5287C146.217 69.5372 146.211 69.5472 146.207 69.5582C146.203 69.5691 146.201 69.5807 146.202 69.5923L146.136 71.9135C146.134 71.9367 146.141 71.9597 146.156 71.9777C146.17 71.9957 146.192 72.0072 146.215 72.0098Z" fill="url(#paint11_linear_1_22558)"/>
<path d="M145.865 72.0097C145.842 72.0068 145.821 71.995 145.807 71.9768C145.792 71.9587 145.785 71.9357 145.788 71.9127C145.82 71.1327 145.881 69.6454 145.883 69.5948C145.881 69.5834 145.883 69.5718 145.886 69.5609C145.89 69.5499 145.895 69.5398 145.903 69.5311C145.91 69.5224 145.92 69.5153 145.93 69.5103C145.94 69.5053 145.952 69.5025 145.963 69.502C145.975 69.5019 145.987 69.5043 145.998 69.5091C146.009 69.514 146.018 69.521 146.026 69.5299C146.034 69.5387 146.041 69.5491 146.044 69.5605C146.048 69.5718 146.049 69.5838 146.048 69.5956C146.048 69.6336 145.969 71.5371 145.953 71.9211C145.953 71.9435 145.944 71.965 145.928 71.9808C145.912 71.9966 145.891 72.0055 145.868 72.0055L145.865 72.0097Z" fill="url(#paint12_linear_1_22558)"/>
<path d="M145.324 72.1034H145.33C145.375 72.1002 145.417 72.0796 145.447 72.0461C145.477 72.0125 145.493 71.9687 145.492 71.9236C145.56 69.6741 145.548 69.6235 145.54 69.5897C145.537 69.5676 145.529 69.5465 145.517 69.5277C145.505 69.5088 145.489 69.4927 145.47 69.4804C145.451 69.4681 145.43 69.4598 145.408 69.4561C145.386 69.4524 145.364 69.4533 145.342 69.4589C145.302 69.4744 145.268 69.5032 145.246 69.5405C145.225 69.5779 145.217 69.6215 145.223 69.664C145.229 69.7991 145.193 71.1074 145.168 71.9101C145.164 71.9563 145.178 72.0023 145.207 72.0385C145.236 72.0746 145.278 72.0979 145.324 72.1034Z" fill="url(#paint13_linear_1_22558)"/>
<path d="M144.98 72.0097C144.992 72.0098 145.003 72.0073 145.014 72.0026C145.025 71.9978 145.035 71.9908 145.043 71.9821C145.051 71.9733 145.057 71.963 145.061 71.9518C145.064 71.9405 145.066 71.9286 145.064 71.9169V69.6378C145.068 69.6251 145.069 69.6118 145.067 69.5987C145.065 69.5857 145.06 69.5733 145.052 69.5627C145.044 69.552 145.034 69.5434 145.022 69.5374C145.01 69.5314 144.997 69.5283 144.984 69.5283C144.97 69.5283 144.957 69.5314 144.945 69.5374C144.934 69.5434 144.923 69.552 144.915 69.5627C144.908 69.5733 144.902 69.5857 144.9 69.5987C144.898 69.6118 144.899 69.6251 144.903 69.6378V71.9169C144.902 71.928 144.903 71.9393 144.906 71.95C144.909 71.9608 144.915 71.9708 144.922 71.9794C144.929 71.988 144.938 71.9952 144.948 72.0004C144.958 72.0056 144.969 72.0088 144.98 72.0097Z" fill="url(#paint14_linear_1_22558)"/>
<path d="M144.696 72.0096C144.708 72.0096 144.72 72.0073 144.73 72.0026C144.741 71.9979 144.751 71.9911 144.759 71.9825C144.767 71.974 144.773 71.9639 144.776 71.9528C144.78 71.9418 144.782 71.9301 144.781 71.9184C144.796 71.1275 144.833 69.8344 144.866 69.6791C144.873 69.6641 144.877 69.6474 144.877 69.6305C144.877 69.6137 144.873 69.597 144.866 69.582C144.861 69.5721 144.854 69.5634 144.845 69.5565C144.836 69.5496 144.826 69.5447 144.815 69.5422C144.805 69.5397 144.793 69.5396 144.783 69.542C144.772 69.5444 144.762 69.5491 144.753 69.5558C144.709 69.5888 144.668 69.62 144.623 71.9142C144.621 71.9257 144.622 71.9374 144.625 71.9485C144.628 71.9597 144.634 71.97 144.641 71.979C144.649 71.9879 144.658 71.9953 144.668 72.0005C144.678 72.0058 144.69 72.0089 144.701 72.0096H144.696Z" fill="url(#paint15_linear_1_22558)"/>
<path d="M146.901 72.2174H146.909C146.954 72.2142 146.995 72.194 147.026 72.161C147.056 72.128 147.072 72.0847 147.071 72.0401L147.178 69.6488C147.184 69.6026 147.17 69.5563 147.142 69.5196C147.113 69.4828 147.071 69.4587 147.025 69.4521C146.979 69.4537 146.936 69.4731 146.904 69.5063C146.872 69.5394 146.855 69.5836 146.856 69.6294L146.748 72.0207C146.743 72.0668 146.756 72.1132 146.784 72.15C146.813 72.1867 146.855 72.2109 146.901 72.2174Z" fill="url(#paint16_linear_1_22558)"/>
<path d="M78.24 18.55L69.0961 15.128C68.9079 15.0572 68.6997 15.0612 68.5144 15.139L58.3545 19.3991C58.2203 19.4555 58.1044 19.5479 58.0197 19.666C57.935 19.7841 57.8848 19.9233 57.8747 20.0682C57.8646 20.213 57.895 20.3578 57.9625 20.4865C58.0301 20.6151 58.132 20.7226 58.2572 20.7969L65.7323 25.2335L78.24 18.55Z" fill="url(#paint17_linear_1_22558)"/>
<path d="M9.54875 41.8622C9.54875 41.8622 104.773 4.7035 108.871 5.17112C112.969 5.63875 120.665 8.35083 122.697 7.95663C124.729 7.56244 132.076 7.40038 131.235 12.8186C130.393 18.2369 51.5971 49.9013 41.4161 48.5103C31.235 47.1192 5.87425 45.7248 5.87425 45.7248C5.87425 45.7248 2.96768 42.7173 9.54875 41.8622Z" fill="url(#paint18_linear_1_22558)"/>
<path d="M37.1836 31.4695L21.4146 26.3991C20.4252 26.0816 19.5451 25.4934 18.8747 24.7016L11.0761 15.4883C10.7749 15.1326 10.3672 14.8825 9.91292 14.7749C9.45861 14.6674 8.98168 14.7079 8.55222 14.8907C5.73031 16.0918 -0.106548 18.6672 0.000977154 19.3644C0.143216 20.2828 7.66746 42.5584 7.66746 42.5584L37.1836 31.4695Z" fill="url(#paint19_linear_1_22558)"/>
<path d="M11.1202 44.9556L10.8959 50.01C10.8761 50.4258 10.9525 50.8406 11.1191 51.2224C11.2857 51.6041 11.5381 51.9425 11.8568 52.2114C12.1779 52.4817 12.5565 52.6754 12.9639 52.7778C13.3714 52.8801 13.7968 52.8885 14.208 52.8023L19.2304 51.8299C19.6213 51.76 19.9925 51.6071 20.3189 51.3814C20.6453 51.1558 20.9191 50.8629 21.1218 50.5224L28.0644 38.5869L11.1202 44.9556Z" fill="url(#paint20_linear_1_22558)"/>
<path d="M66.0378 50.8686C66.0378 50.8686 69.8105 54.0002 74.7584 53.0405C79.7062 52.0808 85.5397 49.5324 86.3415 47.564C87.1433 45.5956 87.0654 32.2184 77.3669 36.0244C67.6685 39.8304 57.0878 47.9523 66.0378 50.8686Z" fill="url(#paint21_linear_1_22558)"/>
<path d="M57.8017 38.6344L80.4599 29.9402L65.7052 59.0268C65.603 59.2286 65.4599 59.407 65.2851 59.5508C65.1102 59.6946 64.9073 59.8008 64.6892 59.8625L50.8624 63.774C50.5695 63.8565 50.2593 63.856 49.9666 63.7728C49.6738 63.6895 49.4101 63.5267 49.2049 63.3026C48.9996 63.0784 48.861 62.8018 48.8044 62.5036C48.7479 62.2054 48.7757 61.8973 48.8847 61.614L57.8017 38.6344Z" fill="url(#paint22_linear_1_22558)"/>
<path d="M85.1253 48.1699C85.1856 48.1713 85.2457 48.1625 85.3031 48.1438C85.6096 48.0408 85.8602 47.655 86.049 46.9967C86.6577 44.8797 86.4723 40.6364 84.1635 37.8332C83.8296 37.4264 83.3975 37.111 82.9077 36.9165C82.4179 36.722 81.8865 36.6549 81.3636 36.7215C80.4864 36.8312 79.4315 37.3039 79.3875 38.9322C79.3189 41.4847 82.78 46.6599 84.398 47.8517C84.6833 48.0619 84.9229 48.1674 85.1253 48.1699ZM81.7818 37.1351C82.1732 37.1411 82.5587 37.2316 82.9117 37.4003C83.2646 37.5691 83.5767 37.8121 83.8265 38.1126C86.0142 40.7647 86.1971 44.9117 85.6299 46.8793C85.4665 47.4499 85.2768 47.6964 85.1642 47.7335C85.1498 47.7395 85.0186 47.7715 84.6562 47.5048C82.9731 46.2648 79.7625 41.2011 79.8227 38.9465C79.8514 37.872 80.373 37.2862 81.4169 37.1554C81.5379 37.1398 81.6599 37.133 81.7818 37.1351Z" fill="url(#paint23_linear_1_22558)"/>
<path d="M1.6333 24.6787L4.07167 24.2061L9.38191 39.2799L6.93592 40.373L1.6333 24.6787Z" fill="url(#paint24_linear_1_22558)"/>
<path d="M45.3506 35.5753C45.3129 35.3853 45.3132 35.1897 45.3514 34.9997C45.3896 34.8097 45.465 34.6292 45.5733 34.4683C45.6816 34.3074 45.8206 34.1694 45.9824 34.0621C46.1443 33.9549 46.3257 33.8805 46.5164 33.8432L46.6087 33.8247C46.9939 33.7501 47.393 33.8311 47.7184 34.0498C48.0437 34.2686 48.2685 34.6072 48.3435 34.9912L48.5281 35.9374C48.5651 36.1275 48.5642 36.3231 48.5254 36.5128C48.4867 36.7026 48.4108 36.8829 48.3021 37.0434C48.1935 37.2039 48.0542 37.3415 47.8922 37.4484C47.7302 37.5552 47.5487 37.6292 47.358 37.6661L47.2657 37.6839C47.075 37.7209 46.8788 37.7201 46.6883 37.6815C46.4979 37.6429 46.317 37.5673 46.1559 37.459C45.9948 37.3506 45.8566 37.2117 45.7494 37.0502C45.6422 36.8886 45.5679 36.7075 45.5309 36.5173L45.3506 35.5753Z" fill="#3E3B3B"/>
<path d="M50.8293 34.0702C50.7922 33.8801 50.7929 33.6846 50.8316 33.4948C50.8702 33.305 50.946 33.1246 51.0546 32.964C51.1632 32.8034 51.3024 32.6657 51.4644 32.5587C51.6263 32.4518 51.8079 32.3777 51.9985 32.3407L52.0908 32.323C52.476 32.2484 52.8752 32.3294 53.2005 32.5481C53.5258 32.7669 53.7507 33.1055 53.8256 33.4895L54.0102 34.4349C54.085 34.8189 54.0038 35.2168 53.7843 35.5412C53.5649 35.8655 53.2253 36.0897 52.8401 36.1644L52.7478 36.1821C52.5571 36.2192 52.3609 36.2184 52.1705 36.1798C51.98 36.1412 51.7991 36.0656 51.638 35.9573C51.4769 35.8489 51.3388 35.71 51.2315 35.5484C51.1243 35.3869 51.0501 35.2058 51.013 35.0156L50.8293 34.0702Z" fill="#3E3B3B"/>
<path d="M56.1426 31.7111C56.1056 31.521 56.1065 31.3255 56.1452 31.1357C56.184 30.946 56.2599 30.7657 56.3685 30.6052C56.4772 30.4446 56.6165 30.307 56.7785 30.2002C56.9405 30.0933 57.122 30.0193 57.3127 29.9824L57.405 29.9647C57.5957 29.9277 57.7918 29.9285 57.9822 29.9671C58.1726 30.0057 58.3534 30.0813 58.5145 30.1896C58.6755 30.298 58.8136 30.4369 58.9207 30.5985C59.0279 30.76 59.102 30.9411 59.1389 31.1312L59.3235 32.0766C59.3606 32.2667 59.3598 32.4623 59.3211 32.6521C59.2824 32.8419 59.2065 33.0222 59.0979 33.1828C58.9892 33.3433 58.8499 33.4809 58.6878 33.5878C58.5257 33.6946 58.3442 33.7685 58.1534 33.8053L58.0611 33.8239C57.6766 33.8985 57.2781 33.8181 56.9531 33.6002C56.628 33.3823 56.4029 33.0447 56.3272 32.6616L56.1426 31.7111Z" fill="#3E3B3B"/>
<path d="M61.1146 29.8625C61.0398 29.4787 61.1208 29.081 61.3399 28.7567C61.5589 28.4324 61.8981 28.2081 62.283 28.133L62.3753 28.1152C62.5664 28.0782 62.7629 28.0791 62.9536 28.1179C63.1444 28.1567 63.3256 28.2326 63.4868 28.3412C63.6481 28.4499 63.7863 28.5892 63.8936 28.7512C64.0008 28.9131 64.075 29.0946 64.1118 29.2852L64.2955 30.2305C64.3696 30.6135 64.2886 31.0101 64.0701 31.3336C63.8516 31.6571 63.5135 31.8812 63.1297 31.9567L63.0374 31.9744C62.8461 32.012 62.6493 32.0116 62.4583 31.9731C62.2672 31.9345 62.0857 31.8587 61.9241 31.75C61.7626 31.6413 61.6242 31.5017 61.517 31.3395C61.4097 31.1772 61.3357 30.9954 61.2992 30.8045L61.1146 29.8625Z" fill="#3E3B3B"/>
<path d="M66.9395 27.85C66.8647 27.466 66.9459 27.0681 67.1654 26.7437C67.3848 26.4194 67.7244 26.1952 68.1096 26.1205L68.2019 26.1027C68.5871 26.0282 68.9862 26.1092 69.3115 26.3279C69.6368 26.5467 69.8617 26.8853 69.9367 27.2693L70.1212 28.2147C70.196 28.5987 70.1148 28.9966 69.8954 29.321C69.676 29.6453 69.3363 29.8695 68.9512 29.9442L68.8589 29.9619C68.4737 30.0365 68.0745 29.9555 67.7492 29.7368C67.4239 29.518 67.199 29.1794 67.1241 28.7954L66.9395 27.85Z" fill="#3E3B3B"/>
<path d="M72.34 25.9154C72.2654 25.5314 72.3468 25.1336 72.5661 24.8093C72.7855 24.4851 73.125 24.2608 73.5101 24.1859L73.6024 24.1682C73.9876 24.0936 74.3867 24.1746 74.712 24.3934C75.0373 24.6121 75.2622 24.9507 75.3372 25.3347L75.5209 26.2801C75.558 26.4702 75.5573 26.6657 75.5186 26.8556C75.48 27.0454 75.4042 27.2257 75.2956 27.3863C75.187 27.5469 75.0478 27.6847 74.8858 27.7916C74.7239 27.8986 74.5423 27.9726 74.3516 28.0096L74.2594 28.0274C73.8745 28.1014 73.4759 28.0202 73.1511 27.8014C72.8263 27.5827 72.6019 27.2444 72.5271 26.8608L72.34 25.9154Z" fill="#3E3B3B"/>
<path d="M77.6567 23.5572C77.6195 23.367 77.6203 23.1714 77.659 22.9815C77.6977 22.7917 77.7736 22.6113 77.8822 22.4507C77.9909 22.2901 78.1303 22.1524 78.2923 22.0454C78.4544 21.9385 78.636 21.8645 78.8268 21.8276L78.919 21.8099C79.1099 21.7725 79.3063 21.773 79.497 21.8114C79.6876 21.8499 79.8688 21.9254 80.0302 22.0338C80.1915 22.1422 80.3298 22.2812 80.4371 22.443C80.5444 22.6047 80.6186 22.786 80.6555 22.9764L80.8401 23.9218C80.8776 24.1124 80.877 24.3086 80.8383 24.499C80.7997 24.6894 80.7237 24.8703 80.6147 25.0314C80.5058 25.1924 80.3661 25.3305 80.2035 25.4376C80.041 25.5447 79.8588 25.6188 79.6675 25.6556L79.5752 25.6733C79.19 25.7476 78.791 25.6666 78.4657 25.4478C78.1405 25.2291 77.9156 24.8907 77.8404 24.5068L77.6567 23.5572Z" fill="#3E3B3B"/>
<path d="M82.7105 22.1348C82.6357 21.7508 82.7169 21.3528 82.9364 21.0285C83.1558 20.7042 83.4954 20.48 83.8806 20.4053L83.9729 20.3875C84.1636 20.3505 84.3597 20.3513 84.5501 20.3899C84.7404 20.4285 84.9213 20.5041 85.0824 20.6125C85.2434 20.7208 85.3815 20.8597 85.4886 21.0213C85.5957 21.1829 85.6699 21.3639 85.7068 21.5541L85.8914 22.4995C85.9285 22.6897 85.9276 22.8855 85.8888 23.0754C85.85 23.2654 85.774 23.4458 85.6652 23.6065C85.5564 23.7671 85.4168 23.9048 85.2546 24.0116C85.0923 24.1184 84.9105 24.1923 84.7196 24.229L84.6273 24.2467C84.4366 24.2836 84.2405 24.2828 84.0502 24.2441C83.8599 24.2055 83.679 24.1298 83.518 24.0215C83.357 23.9132 83.219 23.7743 83.1118 23.6128C83.0046 23.4513 82.9304 23.2703 82.8934 23.0802L82.7105 22.1348Z" fill="#3E3B3B"/>
<path d="M88.1049 20.2025C88.0678 20.0124 88.0686 19.8168 88.1073 19.6269C88.146 19.4371 88.2218 19.2567 88.3305 19.096C88.4392 18.9354 88.5785 18.7977 88.7406 18.6908C88.9026 18.5839 89.0842 18.5099 89.275 18.473L89.3673 18.4553C89.558 18.4183 89.7541 18.4192 89.9444 18.4579C90.1348 18.4965 90.3156 18.5722 90.4766 18.6805C90.6377 18.7888 90.7757 18.9277 90.8829 19.0892C90.99 19.2507 91.0643 19.4317 91.1013 19.6218L91.2859 20.5672C91.3607 20.9512 91.2794 21.3491 91.06 21.6735C90.8406 21.9978 90.5009 22.222 90.1158 22.2967L90.0235 22.3144C89.8328 22.3514 89.6367 22.3505 89.4463 22.3118C89.256 22.2732 89.0752 22.1975 88.9141 22.0892C88.7531 21.9809 88.6151 21.842 88.5079 21.6805C88.4007 21.519 88.3265 21.338 88.2895 21.1479L88.1049 20.2025Z" fill="#3E3B3B"/>
<path d="M94.6864 16.1005L94.5933 16.1185C93.7914 16.2739 93.2677 17.048 93.4236 17.8474L93.6081 18.7937C93.7639 19.5931 94.5404 20.1152 95.3423 19.9598L95.4353 19.9418C96.2372 19.7864 96.7609 19.0124 96.605 18.2129L96.4206 17.2667C96.2647 16.4672 95.4883 15.9451 94.6864 16.1005Z" fill="#3E3B3B"/>
<path d="M98.4782 16.4211C98.4411 16.231 98.4419 16.0355 98.4805 15.8458C98.5192 15.656 98.595 15.4757 98.7035 15.3152C98.8121 15.1546 98.9514 15.017 99.1133 14.9101C99.2753 14.8033 99.4568 14.7293 99.6474 14.6924L99.7406 14.6746C99.9313 14.6376 100.127 14.6384 100.318 14.677C100.508 14.7156 100.689 14.7913 100.85 14.8996C101.011 15.0079 101.149 15.1469 101.256 15.3084C101.363 15.47 101.438 15.651 101.474 15.8412L101.659 16.7866C101.696 16.9767 101.695 17.1722 101.656 17.3619C101.618 17.5517 101.542 17.732 101.433 17.8925C101.324 18.053 101.185 18.1907 101.023 18.2975C100.861 18.4044 100.68 18.4784 100.489 18.5153L100.397 18.5338C100.012 18.6084 99.6124 18.5274 99.2871 18.3087C98.9618 18.0899 98.7369 17.7513 98.6619 17.3673L98.4782 16.4211Z" fill="#3E3B3B"/>
<path d="M116.361 6.87866L107.123 11.4748C106.787 11.6421 106.52 11.9216 106.369 12.2649C106.217 12.6082 106.191 12.9934 106.295 13.3537C106.549 14.2366 106.888 15.2259 107.069 15.101C107.395 14.8807 121.948 8.0376 121.948 8.0376L116.361 6.87866Z" fill="#3E3B3B"/>
<path d="M65.6694 110.824H19.0186V115.129H65.6694V110.824Z" fill="url(#paint25_linear_1_22558)"/>
<path d="M19.3573 110.824H18.0027V116.142H19.3573V110.824Z" fill="url(#paint26_linear_1_22558)"/>
<path d="M65.1621 86.4649C65.1621 85.4519 64.086 84.5732 62.9176 84.5732H18.9185C17.7501 84.5732 16.9026 85.4486 16.9026 86.4649V109.583C16.9026 110.596 17.7492 111.415 18.9185 111.415H62.9176C64.086 111.415 65.1621 110.599 65.1621 109.583V86.4649Z" fill="#FFBE2E"/>
<path d="M63.6375 87.396C63.6375 86.4675 62.8188 85.6707 61.7165 85.6707H20.2091C19.1084 85.6707 18.0027 86.4666 18.0027 87.396V108.528C18.0027 109.456 19.1076 110.234 20.2091 110.234H61.7165C62.8171 110.234 63.6375 109.458 63.6375 108.528V87.396Z" fill="url(#paint27_linear_1_22558)"/>
<path d="M80.4448 103.307L77.5543 94.401C77.5189 94.2923 77.4498 94.1975 77.357 94.1304C77.2643 94.0632 77.1525 94.027 77.0378 94.0271H65.4158V115.129H81.1289L80.4448 103.307Z" fill="url(#paint28_linear_1_22558)"/>
<path d="M81.2152 111.904C81.0481 111.798 80.8526 111.746 80.6547 111.753L68.5475 111.986L68.4941 115.416L80.5912 115.712C81.0349 115.712 81.4184 115.499 81.4184 115.2V112.294C81.4227 112.217 81.4061 112.14 81.3703 112.071C81.3346 112.003 81.281 111.945 81.2152 111.904Z" fill="url(#paint29_linear_1_22558)"/>
<path d="M78.1879 102.692L76.4412 95.7566C76.3803 95.5161 76.1635 95.2932 75.9146 95.2932H69.0821C68.9356 95.2932 68.7951 95.4072 68.6926 95.5127C68.5892 95.6286 68.5344 95.7797 68.5394 95.9347L68.7036 101.473C68.7072 101.599 68.7545 101.721 68.8375 101.816C68.9205 101.912 69.0341 101.976 69.1591 101.998L77.5749 103.357C77.6635 103.371 77.7543 103.364 77.8391 103.335C77.924 103.306 78.0003 103.256 78.0611 103.19C78.1219 103.124 78.1653 103.044 78.1875 102.958C78.2096 102.871 78.2097 102.78 78.1879 102.693V102.692Z" fill="url(#paint30_linear_1_22558)"/>
<path d="M77.8397 95.2932L77.75 95.3084C77.6751 95.3208 77.6037 95.3486 77.5403 95.3902C77.477 95.4317 77.423 95.4861 77.382 95.5497C77.341 95.6134 77.3138 95.6849 77.3023 95.7596C77.2907 95.8343 77.2949 95.9107 77.3148 95.9837L79.2189 103.044C79.2547 103.175 79.3388 103.289 79.4546 103.361C79.5704 103.434 79.7093 103.46 79.8438 103.435L80.4449 103.322L77.8397 95.2932Z" fill="url(#paint31_linear_1_22558)"/>
<path d="M71.1684 103.734H69.0619C68.7785 103.734 68.5488 103.963 68.5488 104.246V104.489C68.5488 104.771 68.7785 105 69.0619 105H71.1684C71.4518 105 71.6815 104.771 71.6815 104.489V104.246C71.6815 103.963 71.4518 103.734 71.1684 103.734Z" fill="url(#paint32_linear_1_22558)"/>
<path d="M66.2286 87.8247C66.03 87.8128 65.8341 87.8758 65.6799 88.0011C65.5462 88.1252 65.4158 88.3024 65.4158 88.4847V94.0271H72.5048C72.5048 94.0271 72.1238 88.2535 66.2286 87.8247Z" fill="url(#paint33_linear_1_22558)"/>
<path d="M72.6823 121C75.7231 121 78.1881 118.542 78.1881 115.511C78.1881 112.479 75.7231 110.022 72.6823 110.022C69.6415 110.022 67.1765 112.479 67.1765 115.511C67.1765 118.542 69.6415 121 72.6823 121Z" fill="url(#paint34_linear_1_22558)"/>
<path d="M73.1618 119.949C75.6165 119.68 77.3881 117.479 77.1188 115.032C76.8496 112.584 74.6414 110.818 72.1867 111.087C69.7321 111.355 67.9605 113.557 68.2297 116.004C68.499 118.451 70.7072 120.217 73.1618 119.949Z" fill="url(#paint35_linear_1_22558)"/>
<path d="M76.4382 117.132C76.4268 117.132 76.4155 117.13 76.4052 117.125C76.3845 117.116 76.3682 117.1 76.3598 117.079C76.3514 117.058 76.3516 117.035 76.3603 117.014C76.6742 116.273 76.748 115.452 76.5714 114.667C76.3948 113.881 75.9765 113.171 75.3751 112.634C74.7736 112.097 74.019 111.761 73.2166 111.672C72.4142 111.583 71.6041 111.747 70.8994 112.14C70.8897 112.145 70.8789 112.149 70.8678 112.15C70.8567 112.152 70.8454 112.151 70.8346 112.148C70.8238 112.145 70.8137 112.14 70.8048 112.133C70.796 112.126 70.7885 112.118 70.783 112.108C70.7774 112.098 70.7738 112.088 70.7724 112.077C70.771 112.065 70.7718 112.054 70.7747 112.043C70.7777 112.033 70.7827 112.023 70.7896 112.014C70.7965 112.005 70.805 111.997 70.8147 111.992C71.5503 111.582 72.3957 111.412 73.233 111.505C74.0704 111.597 74.8578 111.948 75.4854 112.509C76.113 113.069 76.5495 113.811 76.734 114.63C76.9185 115.45 76.8417 116.306 76.5144 117.08C76.508 117.095 76.4975 117.108 76.4839 117.117C76.4704 117.126 76.4545 117.131 76.4382 117.132Z" fill="url(#paint36_linear_1_22558)"/>
<path d="M74.6425 116.09C74.9706 115.01 74.3578 113.868 73.2739 113.541C72.1899 113.214 71.0452 113.825 70.7171 114.906C70.389 115.986 71.0018 117.128 72.0857 117.455C73.1697 117.782 74.3144 117.171 74.6425 116.09Z" fill="url(#paint37_linear_1_22558)"/>
<path d="M38.739 121C41.7797 121 44.2448 118.542 44.2448 115.511C44.2448 112.479 41.7797 110.022 38.739 110.022C35.6982 110.022 33.2332 112.479 33.2332 115.511C33.2332 118.542 35.6982 121 38.739 121Z" fill="url(#paint38_linear_1_22558)"/>
<path d="M39.2886 119.933C41.7395 119.632 43.4817 117.407 43.1799 114.964C42.8781 112.52 40.6466 110.783 38.1957 111.084C35.7449 111.385 34.0027 113.61 34.3045 116.053C34.6063 118.497 36.8378 120.233 39.2886 119.933Z" fill="url(#paint39_linear_1_22558)"/>
<path d="M42.4927 117.132C42.4813 117.132 42.47 117.13 42.4596 117.125C42.439 117.116 42.4227 117.1 42.4143 117.079C42.4058 117.058 42.406 117.035 42.4148 117.014C42.7287 116.273 42.8025 115.452 42.6258 114.667C42.4492 113.881 42.031 113.171 41.4295 112.634C40.8281 112.097 40.0734 111.761 39.271 111.672C38.4686 111.583 37.6585 111.747 36.9538 112.14C36.9342 112.151 36.9109 112.154 36.889 112.148C36.8672 112.142 36.8486 112.128 36.8374 112.108C36.8262 112.088 36.8232 112.065 36.8292 112.043C36.8351 112.022 36.8495 112.003 36.8692 111.992C37.6047 111.582 38.4502 111.412 39.2875 111.505C40.1248 111.597 40.9122 111.948 41.5398 112.509C42.1675 113.069 42.604 113.811 42.7884 114.63C42.9729 115.45 42.8961 116.306 42.5689 117.08C42.5625 117.095 42.5519 117.108 42.5384 117.117C42.5249 117.126 42.509 117.131 42.4927 117.132Z" fill="url(#paint40_linear_1_22558)"/>
<path d="M40.7331 115.974C40.9932 114.876 40.3106 113.774 39.2084 113.515C38.1061 113.256 37.0017 113.936 36.7415 115.035C36.4814 116.134 37.164 117.235 38.2663 117.495C39.3685 117.754 40.4729 117.073 40.7331 115.974Z" fill="url(#paint41_linear_1_22558)"/>
<path d="M26.1433 121C29.184 121 31.6491 118.542 31.6491 115.511C31.6491 112.479 29.184 110.022 26.1433 110.022C23.1025 110.022 20.6375 112.479 20.6375 115.511C20.6375 118.542 23.1025 121 26.1433 121Z" fill="url(#paint42_linear_1_22558)"/>
<path d="M26.6201 119.945C29.0747 119.677 30.8463 117.475 30.5771 115.028C30.3078 112.581 28.0996 110.815 25.645 111.083C23.1903 111.352 21.4187 113.553 21.688 116C21.9572 118.448 24.1654 120.214 26.6201 119.945Z" fill="url(#paint43_linear_1_22558)"/>
<path d="M29.8989 117.132C29.8876 117.132 29.8763 117.13 29.8659 117.125C29.8453 117.116 29.8289 117.1 29.8205 117.079C29.8121 117.058 29.8123 117.035 29.821 117.014C30.135 116.273 30.2088 115.452 30.0321 114.667C29.8555 113.881 29.4372 113.171 28.8358 112.634C28.2343 112.097 27.4797 111.761 26.6773 111.672C25.8749 111.583 25.0648 111.747 24.3601 112.14C24.3504 112.145 24.3396 112.149 24.3285 112.15C24.3174 112.152 24.3061 112.151 24.2953 112.148C24.2845 112.145 24.2744 112.14 24.2655 112.133C24.2566 112.126 24.2492 112.118 24.2437 112.108C24.2381 112.098 24.2345 112.088 24.2331 112.077C24.2317 112.065 24.2325 112.054 24.2354 112.043C24.2384 112.033 24.2434 112.023 24.2503 112.014C24.2571 112.005 24.2657 111.997 24.2754 111.992C25.011 111.582 25.8564 111.412 26.6937 111.505C27.5311 111.597 28.3185 111.948 28.9461 112.509C29.5737 113.069 30.0102 113.811 30.1947 114.63C30.3792 115.45 30.3024 116.306 29.9751 117.08C29.9688 117.095 29.9582 117.108 29.9447 117.117C29.9311 117.126 29.9153 117.131 29.8989 117.132Z" fill="url(#paint44_linear_1_22558)"/>
<path d="M28.1061 116.092C28.4342 115.011 27.8214 113.87 26.7375 113.543C25.6535 113.216 24.5088 113.827 24.1807 114.907C23.8526 115.988 24.4654 117.129 25.5493 117.456C26.6333 117.783 27.778 117.172 28.1061 116.092Z" fill="url(#paint45_linear_1_22558)"/>
<path d="M80.7047 108.545H79.2518C78.9516 108.545 78.7083 108.788 78.7083 109.087V111.042C78.7083 111.342 78.9516 111.584 79.2518 111.584H80.7047C81.0049 111.584 81.2482 111.342 81.2482 111.042V109.087C81.2482 108.788 81.0049 108.545 80.7047 108.545Z" fill="url(#paint46_linear_1_22558)"/>
<path opacity="0.8" d="M79.7242 108.545V111.415H79.3458C79.0452 111.415 78.7083 111.129 78.7083 110.83V109.052C78.7083 108.753 79.0469 108.545 79.3458 108.545H79.7242Z" fill="white"/>
<path d="M66.3474 107.87C66.3249 107.87 66.3034 107.861 66.2875 107.845C66.2716 107.83 66.2627 107.808 66.2627 107.786V95.2931C66.2627 95.2708 66.2716 95.2493 66.2875 95.2335C66.3034 95.2176 66.3249 95.2087 66.3474 95.2087C66.3698 95.2087 66.3914 95.2176 66.4072 95.2335C66.4231 95.2493 66.432 95.2708 66.432 95.2931V107.786C66.432 107.808 66.4231 107.83 66.4072 107.845C66.3914 107.861 66.3698 107.87 66.3474 107.87Z" fill="white"/>
<path d="M71.204 93.4743C71.1856 93.4753 71.1674 93.4703 71.1521 93.4601C71.1369 93.4499 71.1253 93.435 71.1193 93.4177C69.4836 88.6908 66.1096 89.0343 66.0758 89.0386C66.0647 89.0398 66.0535 89.039 66.0428 89.0359C66.0321 89.0329 66.022 89.0278 66.0133 89.0209C66.0046 89.014 65.9973 89.0054 65.9919 88.9957C65.9865 88.986 65.9831 88.9753 65.9818 88.9643C65.9792 88.9421 65.9854 88.9198 65.9992 88.9023C66.013 88.8847 66.0332 88.8733 66.0554 88.8706C66.0919 88.8664 66.9563 88.771 68.04 89.2791C69.8417 90.1232 70.7959 91.9659 71.2793 93.3629C71.2866 93.384 71.2852 93.4072 71.2753 93.4273C71.2655 93.4474 71.248 93.4628 71.2268 93.4701C71.2194 93.4723 71.2117 93.4737 71.204 93.4743Z" fill="white"/>
<defs>
<linearGradient id="paint0_linear_1_22558" x1="139.544" y1="-0.385165" x2="66.5693" y2="95.6658" gradientUnits="userSpaceOnUse">
<stop stop-color="#FFBE2E"/>
<stop offset="1" stop-color="#FFEECC"/>
</linearGradient>
<linearGradient id="paint1_linear_1_22558" x1="135.827" y1="60.5478" x2="91.898" y2="91.2889" gradientUnits="userSpaceOnUse">
<stop stop-color="#FFBE2E"/>
<stop offset="1" stop-color="#FF928E"/>
</linearGradient>
<linearGradient id="paint2_linear_1_22558" x1="124.512" y1="69.134" x2="130.493" y2="77.852" gradientUnits="userSpaceOnUse">
<stop stop-color="#09005D"/>
<stop offset="1" stop-color="#1A0F91"/>
</linearGradient>
<linearGradient id="paint3_linear_1_22558" x1="-166.231" y1="2421.57" x2="-216.117" y2="2428.23" gradientUnits="userSpaceOnUse">
<stop stop-color="#09005D"/>
<stop offset="1" stop-color="#1A0F91"/>
</linearGradient>
<linearGradient id="paint4_linear_1_22558" x1="-204.078" y1="2441.12" x2="-260.307" y2="2449.57" gradientUnits="userSpaceOnUse">
<stop stop-color="#09005D"/>
<stop offset="1" stop-color="#1A0F91"/>
</linearGradient>
<linearGradient id="paint5_linear_1_22558" x1="-352.134" y1="2569.91" x2="-431.81" y2="2586.48" gradientUnits="userSpaceOnUse">
<stop stop-color="#09005D"/>
<stop offset="1" stop-color="#1A0F91"/>
</linearGradient>
<linearGradient id="paint6_linear_1_22558" x1="-88.2791" y1="2417.17" x2="-125.078" y2="2420.81" gradientUnits="userSpaceOnUse">
<stop stop-color="#09005D"/>
<stop offset="1" stop-color="#1A0F91"/>
</linearGradient>
<linearGradient id="paint7_linear_1_22558" x1="-196.487" y1="2409.36" x2="-251.604" y2="2417.65" gradientUnits="userSpaceOnUse">
<stop stop-color="#09005D"/>
<stop offset="1" stop-color="#1A0F91"/>
</linearGradient>
<linearGradient id="paint8_linear_1_22558" x1="-423.211" y1="2651.32" x2="-513.675" y2="2671.9" gradientUnits="userSpaceOnUse">
<stop stop-color="#09005D"/>
<stop offset="1" stop-color="#1A0F91"/>
</linearGradient>
<linearGradient id="paint9_linear_1_22558" x1="220817" y1="22669.4" x2="213337" y2="47888.3" gradientUnits="userSpaceOnUse">
<stop offset="0.765625" stop-color="#3E3B3B"/>
</linearGradient>
<linearGradient id="paint10_linear_1_22558" x1="-288.25" y1="2374.41" x2="-349.92" y2="2384.88" gradientUnits="userSpaceOnUse">
<stop stop-color="#09005D"/>
<stop offset="1" stop-color="#1A0F91"/>
</linearGradient>
<linearGradient id="paint11_linear_1_22558" x1="-200.167" y1="2421.57" x2="-249.762" y2="2428.15" gradientUnits="userSpaceOnUse">
<stop stop-color="#09005D"/>
<stop offset="1" stop-color="#1A0F91"/>
</linearGradient>
<linearGradient id="paint12_linear_1_22558" x1="-247.572" y1="2426.8" x2="-303.79" y2="2435.3" gradientUnits="userSpaceOnUse">
<stop stop-color="#09005D"/>
<stop offset="1" stop-color="#1A0F91"/>
</linearGradient>
<linearGradient id="paint13_linear_1_22558" x1="-424.79" y1="2569.88" x2="-504.464" y2="2586.45" gradientUnits="userSpaceOnUse">
<stop stop-color="#09005D"/>
<stop offset="1" stop-color="#1A0F91"/>
</linearGradient>
<linearGradient id="paint14_linear_1_22558" x1="-109.138" y1="2417.17" x2="-145.935" y2="2420.81" gradientUnits="userSpaceOnUse">
<stop stop-color="#09005D"/>
<stop offset="1" stop-color="#1A0F91"/>
</linearGradient>
<linearGradient id="paint15_linear_1_22558" x1="-238.271" y1="2409.36" x2="-293.327" y2="2417.64" gradientUnits="userSpaceOnUse">
<stop stop-color="#09005D"/>
<stop offset="1" stop-color="#1A0F91"/>
</linearGradient>
<linearGradient id="paint16_linear_1_22558" x1="-508.429" y1="2651.32" x2="-598.806" y2="2671.86" gradientUnits="userSpaceOnUse">
<stop stop-color="#09005D"/>
<stop offset="1" stop-color="#1A0F91"/>
</linearGradient>
<linearGradient id="paint17_linear_1_22558" x1="24170.5" y1="-2730.29" x2="23806.2" y2="-1100.28" gradientUnits="userSpaceOnUse">
<stop stop-color="#FFBE2E"/>
<stop offset="1" stop-color="#FFBE2E"/>
</linearGradient>
<linearGradient id="paint18_linear_1_22558" x1="138704" y1="4404.34" x2="-11852.1" y2="105833" gradientUnits="userSpaceOnUse">
<stop stop-color="#FFBE2E"/>
<stop offset="1" stop-color="#FF928E"/>
</linearGradient>
<linearGradient id="paint19_linear_1_22558" x1="12539" y1="8425.05" x2="21593.9" y2="28154.7" gradientUnits="userSpaceOnUse">
<stop stop-color="#FFBE2E"/>
<stop offset="1" stop-color="#FFEECC"/>
</linearGradient>
<linearGradient id="paint20_linear_1_22558" x1="11803.4" y1="3077.19" x2="9837.75" y2="5675.07" gradientUnits="userSpaceOnUse">
<stop stop-color="#FFBE2E"/>
<stop offset="1" stop-color="#FFBE2E"/>
</linearGradient>
<linearGradient id="paint21_linear_1_22558" x1="21471.6" y1="10206.6" x2="8443.88" y2="14982.5" gradientUnits="userSpaceOnUse">
<stop stop-color="#FFBE2E"/>
<stop offset="1" stop-color="#FFBE2E"/>
</linearGradient>
<linearGradient id="paint22_linear_1_22558" x1="32463.9" y1="-550.076" x2="30961.2" y2="8346.53" gradientUnits="userSpaceOnUse">
<stop stop-color="#FFBE2E"/>
<stop offset="1" stop-color="#FF928E"/>
</linearGradient>
<linearGradient id="paint23_linear_1_22558" x1="9033.3" y1="8240.35" x2="12878.1" y2="4527.62" gradientUnits="userSpaceOnUse">
<stop stop-color="#FE7062"/>
<stop offset="1" stop-color="#FF928E"/>
</linearGradient>
<linearGradient id="paint24_linear_1_22558" x1="-26.2758" y1="9.51384" x2="19.9581" y2="42.4831" gradientUnits="userSpaceOnUse">
<stop stop-color="#E1473D"/>
<stop offset="1" stop-color="#E9605A"/>
</linearGradient>
<linearGradient id="paint25_linear_1_22558" x1="26233.5" y1="4238.25" x2="26222.1" y2="4998.14" gradientUnits="userSpaceOnUse">
<stop stop-color="#3E3B3B"/>
<stop offset="1" stop-color="#1A0F91"/>
</linearGradient>
<linearGradient id="paint26_linear_1_22558" x1="4937" y1="7786.37" x2="5179.04" y2="8027.36" gradientUnits="userSpaceOnUse">
<stop stop-color="#09005D"/>
<stop offset="1" stop-color="#1A0F91"/>
</linearGradient>
<linearGradient id="paint27_linear_1_22558" x1="59.687" y1="82.6623" x2="11.8825" y2="121.802" gradientUnits="userSpaceOnUse">
<stop stop-color="#FFBE2E"/>
<stop offset="1" stop-color="#FFEECC"/>
</linearGradient>
<linearGradient id="paint28_linear_1_22558" x1="16927.3" y1="26381.9" x2="10784.1" y2="32294.4" gradientUnits="userSpaceOnUse">
<stop stop-color="#FFBE2E"/>
<stop offset="1" stop-color="#FFBE2E"/>
</linearGradient>
<linearGradient id="paint29_linear_1_22558" x1="57893.2" y1="5900.55" x2="60542.9" y2="6118.19" gradientUnits="userSpaceOnUse">
<stop stop-color="#FFBE2E"/>
<stop offset="1" stop-color="#E9605A"/>
</linearGradient>
<linearGradient id="paint30_linear_1_22558" x1="16962" y1="22424.6" x2="19140.9" y2="21017.1" gradientUnits="userSpaceOnUse">
<stop stop-color="#3E3B3B"/>
<stop offset="1" stop-color="#1A0F91"/>
</linearGradient>
<linearGradient id="paint31_linear_1_22558" x1="5427.7" y1="22873.7" x2="6391.94" y2="22672.8" gradientUnits="userSpaceOnUse">
<stop stop-color="#3E3B3B"/>
<stop offset="1" stop-color="#1A0F91"/>
</linearGradient>
<linearGradient id="paint32_linear_1_22558" x1="13969" y1="1764.94" x2="13814.4" y2="1962.32" gradientUnits="userSpaceOnUse">
<stop stop-color="#E1473D"/>
<stop offset="1" stop-color="#E9605A"/>
</linearGradient>
<linearGradient id="paint33_linear_1_22558" x1="32330.8" y1="7070.14" x2="30781.4" y2="7983.93" gradientUnits="userSpaceOnUse">
<stop stop-color="#FFEECC"/>
<stop offset="1" stop-color="#FFBE2E"/>
</linearGradient>
<linearGradient id="paint34_linear_1_22558" x1="48604.1" y1="16408.6" x2="50036.3" y2="16408.6" gradientUnits="userSpaceOnUse">
<stop stop-color="#3E3B3B"/>
<stop offset="1" stop-color="#1A0F91"/>
</linearGradient>
<linearGradient id="paint35_linear_1_22558" x1="10141.6" y1="10156.1" x2="9220.86" y2="12431.4" gradientUnits="userSpaceOnUse">
<stop stop-color="#FFBE2E"/>
<stop offset="1" stop-color="#FFBE2E"/>
</linearGradient>
<linearGradient id="paint36_linear_1_22558" x1="5878.43" y1="8426.1" x2="6312.24" y2="8426.1" gradientUnits="userSpaceOnUse">
<stop stop-color="#FF928E"/>
<stop offset="1" stop-color="#FEB3B1"/>
</linearGradient>
<linearGradient id="paint37_linear_1_22558" x1="18329.5" y1="6027.56" x2="18059.5" y2="6471.1" gradientUnits="userSpaceOnUse">
<stop stop-color="#3E3B3B"/>
<stop offset="1" stop-color="#3E3B3B"/>
</linearGradient>
<linearGradient id="paint38_linear_1_22558" x1="44155.4" y1="16408.6" x2="45587.6" y2="16408.6" gradientUnits="userSpaceOnUse">
<stop stop-color="#3E3B3B"/>
<stop offset="1" stop-color="#1A0F91"/>
</linearGradient>
<linearGradient id="paint39_linear_1_22558" x1="7029.46" y1="8910.53" x2="6108.73" y2="11185.8" gradientUnits="userSpaceOnUse">
<stop stop-color="#FFBE2E"/>
<stop offset="1" stop-color="#FFBE2E"/>
</linearGradient>
<linearGradient id="paint40_linear_1_22558" x1="3414.68" y1="8426.06" x2="3848.48" y2="8426.06" gradientUnits="userSpaceOnUse">
<stop stop-color="#FF928E"/>
<stop offset="1" stop-color="#FEB3B1"/>
</linearGradient>
<linearGradient id="paint41_linear_1_22558" x1="16651.1" y1="6027.58" x2="16381.1" y2="6471.12" gradientUnits="userSpaceOnUse">
<stop stop-color="#3E3B3B"/>
<stop offset="1" stop-color="#3E3B3B"/>
</linearGradient>
<linearGradient id="paint42_linear_1_22558" x1="42504.7" y1="16408.6" x2="43936.9" y2="16408.6" gradientUnits="userSpaceOnUse">
<stop stop-color="#3E3B3B"/>
<stop offset="1" stop-color="#1A0F91"/>
</linearGradient>
<linearGradient id="paint43_linear_1_22558" x1="5874.74" y1="8448.38" x2="4954.01" y2="10723.6" gradientUnits="userSpaceOnUse">
<stop stop-color="#FFBE2E"/>
<stop offset="1" stop-color="#FFEECC"/>
</linearGradient>
<linearGradient id="paint44_linear_1_22558" x1="2500.54" y1="8426.06" x2="2934.35" y2="8426.06" gradientUnits="userSpaceOnUse">
<stop stop-color="#FF928E"/>
<stop offset="1" stop-color="#FEB3B1"/>
</linearGradient>
<linearGradient id="paint45_linear_1_22558" x1="16028.4" y1="6027.54" x2="15758.5" y2="6471.09" gradientUnits="userSpaceOnUse">
<stop/>
<stop offset="1" stop-color="#3E3B3B"/>
</linearGradient>
<linearGradient id="paint46_linear_1_22558" x1="11398.1" y1="4482.74" x2="11470.5" y2="4338.03" gradientUnits="userSpaceOnUse">
<stop stop-color="#FF928E"/>
<stop offset="1" stop-color="#FEB3B1"/>
</linearGradient>
</defs>
</svg>
