<svg width="51" height="120" viewBox="0 0 51 120" fill="none" xmlns="http://www.w3.org/2000/svg">
<path d="M46.4464 18.4113C46.4464 28.3074 38.492 36.3226 28.6885 36.3226C18.8851 36.3226 10.9307 28.3074 10.9307 18.4113C10.9307 8.51521 18.8851 0.5 28.6885 0.5C38.492 0.5 46.4464 8.51521 46.4464 18.4113Z" fill="#FFBE2E" stroke="#3E3B3B"/>
<path d="M45.1257 109.953V110.453H45.6257C48.0971 110.453 50.1073 112.474 50.1069 114.976C50.1069 117.478 48.0963 119.5 45.6253 119.5H11.7502C9.27923 119.5 7.26858 117.478 7.26858 114.976C7.26858 112.474 9.27923 110.453 11.7502 110.453H12.2502V109.953V52.5992V52.0992H11.7502H5.37372C2.90274 52.0992 0.89209 50.0777 0.89209 47.5757C0.89209 45.0738 2.90274 43.0522 5.37372 43.0522L22.9629 43.0695L40.5528 43.0868C43.0744 43.0868 45.1257 45.1497 45.1257 47.7023V109.953Z" fill="#FFBE2E" stroke="#3E3B3B"/>
</svg>
