<svg width="168" height="112" viewBox="0 0 168 112" fill="none" xmlns="http://www.w3.org/2000/svg">
<mask id="path-1-inside-1_1_22555" fill="white">
<path d="M72.5201 94.0655L72.3654 94.1815L72.0945 94.452L71.9398 94.568L71.8237 94.6453L71.669 94.6839L71.5529 94.7226L71.5142 94.8385L71.4368 94.9545L71.2434 95.1091L70.7791 95.3796L71.4755 95.0704L72.4041 94.3747L74.5319 92.3649L73.9516 92.7128L72.5201 94.0655ZM101.498 89.6594L101.382 89.5048L100.956 89.5434L100.879 89.4661L100.801 89.3115L100.569 89.3502L100.182 89.5434L99.8729 89.3115H99.6021L98.9831 89.4275L97.6677 89.2342L97.5903 89.1569H97.5516L97.4742 89.2342L101.382 89.8913L101.498 89.6594ZM92.406 87.6109L91.168 87.3017L88.189 86.5674L87.8021 86.3355L87.57 86.0649L87.4152 85.6784L87.2604 85.0987L87.1057 85.0214V85.2533L87.1831 85.6011L87.2604 85.7944L87.5313 86.1809L87.8408 86.4514L89.3109 86.9925L92.6768 87.7269L93.0637 87.9201L93.2572 87.9588L93.1411 87.8815L92.406 87.6109ZM166.92 44.168L166.495 43.6655L166.146 43.0858L165.953 42.6606L165.876 42.1968L166.069 41.733L166.224 41.5784L166.572 41.3852L166.727 41.1919L166.765 40.9214L166.611 40.7668L165.721 40.5349H165.527L165.295 40.6122L164.754 41.1533L164.521 41.3079L164.251 41.4238L163.98 41.4625H163.709L163.516 41.3852L163.051 40.9214L162.664 40.7668L162.355 40.6895L162.084 40.4962L161.852 39.9938L161.697 39.3754L161.581 39.0661L161.465 38.9115L160.923 38.8729L160.73 38.7956L160.382 38.5637L160.034 38.641L159.685 38.7956L159.337 38.8729L158.989 38.7956L158.718 38.641L158.525 38.3704L158.022 37.0177L157.79 36.8244L157.441 36.9404L157.287 37.1336L156.977 37.5588L156.822 37.7134L156.668 37.752L155.816 37.8293L155.584 37.5974L155.352 37.2496L155.043 36.979L154.076 36.7085L153.534 36.322L153.457 36.2447L153.418 36.1287L153.379 35.8968L153.302 35.6263V35.5876L153.263 35.6263L153.031 35.7036L152.954 35.7422L152.876 35.7809L152.412 35.7036L151.754 35.8195L151.406 35.7036L151.174 35.549L151.019 35.4717L150.632 35.433L150.439 35.3557L150.323 35.2011L150.052 34.3895L149.936 34.2349L149.742 34.1962L149.472 34.2349L148.891 34.1962L148.737 34.2349L148.659 34.66L148.737 35.3171L148.698 35.9355L148.272 36.2447L148.195 36.206L148.04 36.0901L147.924 36.0514L147.808 36.0901L147.189 36.4766L147.15 36.3993V36.1674L146.996 35.8968V35.8582L146.686 35.3171L146.415 34.9692L146.106 34.6987L145.757 34.4668L145.022 34.1189L144.713 33.887L143.823 32.5342L143.514 32.225L143.436 32.1477V31.9931L143.475 31.8385L143.552 31.4907L143.514 30.8723L143.204 30.5631L142.392 30.1766L142.237 29.7901L142.121 29.3263L141.966 28.9398L141.773 28.8238L140.844 28.9398L140.573 29.0557L140.032 29.5968L139.761 29.7901L138.445 30.1766L137.788 30.0606L137.169 30.0993L136.55 30.3312L135.002 31.2201L134.886 31.3361L134.809 31.452L134.654 31.7612L134.577 31.8772L134.422 31.9931L134.228 32.0318L134.035 31.9931L133.841 31.9158L133.687 31.7999L133.648 31.6839L133.687 31.5293V31.2201L133.725 31.1815L133.687 31.1428L133.532 31.0655L133.455 31.0269L133.184 30.9496L132.913 30.7563L132.719 30.7177L132.526 30.6017L132.449 30.5631H132.333L132.255 30.6017L132.062 30.795L131.868 30.9496L131.636 31.0269H131.404L131.211 30.9109L130.282 29.4422L130.011 29.3263L129.934 29.0557L129.663 28.9011L128.077 28.7852L127.226 28.9011L127.071 28.9398L126.955 29.0557L126.761 29.3263L126.645 29.4422L126.568 29.4809H126.375L126.297 29.5195L126.142 29.7128L126.026 29.906L125.91 30.0606L125.678 30.1379H125.485L125.291 30.0606L125.098 29.9833L124.943 29.8674L124.75 29.6355L124.672 29.4036V29.133L124.595 28.7852L124.479 28.5533L124.324 28.3987L124.131 28.3214L123.937 28.2827L123.628 28.1668L123.434 27.8189L123.009 26.0796V25.8864L123.163 25.6931L123.898 25.3839L123.666 25.1134V24.8042L123.705 24.4563L123.628 24.0698L123.55 23.9152L123.434 23.8379L123.202 23.6833L123.086 23.5674V23.4128L123.125 23.2195L123.086 23.0263L123.009 22.833L122.815 22.5625L122.738 22.3692V22.1373L122.777 21.9441V21.7895L122.66 21.5962L122.544 21.5189L122.312 21.4803L122.235 21.403L122.196 21.2484V20.8619L122.157 20.7073L122.66 20.5913L122.777 20.4754L122.854 20.2048L122.777 20.0502L122.622 19.9729L122.428 19.9342L122.119 19.8956L121.5 20.0502L121.19 20.0115L120.919 19.741L120.726 19.2385L120.494 17.8858L120.417 17.6925L120.3 17.5379L120.146 17.4606L119.952 17.4993L119.759 17.5766L119.565 17.6152L119.411 17.4993L119.256 17.422H119.101L118.676 17.6925L117.94 18.0017L117.283 18.1563L116.625 18.1177L116.47 18.079L116.354 17.9631L116.277 17.7312L116.238 17.4993L116.161 17.306L116.045 17.1514L115.774 17.1128L115.194 17.2287L114.884 17.1128L114.226 16.8809L113.878 16.8422L113.569 16.9195L113.22 17.2287L113.066 17.306L112.834 17.2674L112.176 16.9968L112.717 16.6103L113.104 16.2238L113.337 15.7214L113.259 15.2189L113.066 15.3349H112.911L112.756 15.2962L112.601 15.2189L112.447 15.1416L112.253 14.987L112.176 14.8711L112.137 14.7551L112.176 14.6778L112.369 14.6392L112.408 14.5232L112.447 14.3686L112.408 14.2527L112.369 14.1367V13.9821L112.408 13.8275L112.485 13.5569L112.524 13.4023L112.485 13.0931L112.408 12.8226L112.292 12.6293L111.905 12.2042L111.828 12.0882L111.789 11.9336L111.75 11.6244L111.712 11.5085L111.596 11.4312L111.286 11.3539L111.17 11.1993L111.247 10.8514L111.596 10.6582L113.143 10.2717H113.685L113.839 10.233L114.188 9.80787V9.18946L113.917 8.60971L113.569 8.26186L113.375 8.14591L113.066 7.79805L112.911 7.6821H112.795L112.64 7.7594L112.524 7.72076V7.6821L112.485 7.48885L112.447 7.41155L112.408 7.3729L112.292 7.2956L112.215 7.25695L111.866 6.79314L111.673 6.63855H111.209V6.52259L111.286 6.29069L111.247 6.02014L111.054 5.71093L110.938 5.44038L110.899 5.16983L110.86 4.66738L110.822 4.39683V4.31953L110.977 3.97167V3.77842L110.938 3.62382L110.86 3.46922L110.783 3.31462L110.628 3.08272L110.474 2.92811L109.893 2.50296L109.777 2.34836L109.545 1.8459L109.39 1.61401L109.003 1.3821L108.81 1.2275L108.655 0.956952L108.578 0.7637L108.462 0.609096L108.23 0.531796H107.804L107.378 0.609096L106.566 0.995599L105.908 1.61401L105.715 1.65265L105.56 1.42075L105.637 0.841L105.483 0.570449L105.328 0.647748L105.212 0.7637L105.096 0.841H104.941L104.786 0.7637L104.516 0.570449L104.361 0.531796H103.78L102.891 0.377197L102.775 0.415844L102.62 0.531796L102.388 0.841L102.272 0.956952L102.117 1.03425L102.039 1.0729L101.923 1.26615L101.846 1.34345L101.769 1.3821L101.653 1.3048H101.575L101.42 1.3821L100.453 2.23241L100.298 2.30971L100.144 2.27106L99.6795 1.88456L99.5247 1.80726H99.2539L98.7122 1.96186H98.4414L96.6231 0.995599L96.1975 1.1502L95.385 0.841L94.9981 0.918299L94.8821 1.42075L94.9208 1.57535L95.1142 1.88456L95.1529 2.00051L95.0755 2.15511L94.9595 2.23241L94.8434 2.30971L94.766 2.38701L94.6886 2.65756L94.5726 3.54652L94.3018 4.12628L93.8762 4.43548L92.5995 5.05388H92.4447L91.9031 4.89928L91.5549 4.93793L91.0519 5.16983L90.8972 5.20849L90.7037 5.09253L90.665 4.86063V4.59008L90.6264 4.35817L90.4329 4.16492L90.1234 4.08762L89.5431 4.12628L88.4985 4.20357L86.8736 3.89437H86.0224L85.2873 4.20357L85.0939 4.43548L84.9391 4.74468L84.7844 5.01523L84.5909 5.09253L84.3588 5.01523L83.9332 4.66738L83.7011 4.55143L83.3529 4.51278L82.0762 4.59008L81.844 4.66738L81.6893 4.82198L81.728 5.09253L81.6893 5.16983L81.6506 5.24713L81.6119 5.32443L81.5732 5.40174L81.844 5.44038L81.9601 5.63364L81.8827 5.82689H81.6506L81.6119 5.74959L81.5345 5.71093L81.4959 5.74959L81.4185 5.82689L81.3411 5.90419L81.3024 5.98149V6.09744L81.225 6.21339L81.109 6.32934L80.9929 6.40664L80.8768 6.48394L80.606 6.59989V6.63855L80.6447 6.71584L80.6834 6.79314V6.9091L80.5673 7.10235L80.49 7.17965L80.4126 7.2183L80.1418 7.17965L80.0644 7.2183L80.0257 7.2956V7.4502L79.987 7.56615L79.7936 7.6821L79.7162 7.7594L79.6775 7.87535L79.6388 7.91401L79.6001 7.95265L79.4067 8.2232L79.368 8.33916L79.3293 8.37781V8.41646L79.4067 8.57106V8.80296L79.2519 8.95756L79.0585 9.11216L78.9424 9.22811L79.1358 9.30541H79.2132V9.42137L79.1745 9.61462L79.1358 9.76922V9.96247L79.0585 10.1171L78.9424 10.1557H78.6329L78.5168 10.1944L78.5942 10.3876L78.4782 10.6968L78.5555 10.8901L78.4782 10.9287L78.4008 11.0447L78.3621 11.0833L78.4008 11.122L78.4395 11.2766L78.3234 11.3152L78.0526 11.5471V11.6631L78.246 11.8177L78.3234 11.8563V11.9336L78.246 11.9723L78.2073 12.0109L78.1686 12.0496L78.1299 12.0882V12.1655L78.246 12.3201L78.5555 12.3974L78.7103 12.4747L78.6329 12.6293L78.5942 12.7066L78.5168 12.7839L78.6329 12.8612L78.7103 12.9385L78.749 13.0545L78.6716 13.1704L78.7103 13.3637L78.7877 13.4796L78.865 13.5569L78.9424 13.5956V13.7116L78.8263 13.6729L78.7103 13.7116L78.6329 13.8275L78.5942 14.0208L78.6329 14.214L78.7103 14.2527H78.7877L78.9037 14.33L78.9424 14.4073L79.0198 14.8324L79.0585 14.9097L79.1358 14.987V15.0643L79.0198 15.103L79.0585 15.5281L78.7877 15.7987L78.5168 15.9919L78.4782 16.2238L78.3234 16.4944L78.4008 16.5717V16.9195L78.3621 16.9968L78.246 17.0355L78.1686 16.8809L78.0526 16.7649L77.9365 16.6876L77.8204 16.649H77.7044L77.5496 16.6103L77.3562 16.3011L77.2401 16.1852L77.1241 16.1465H76.8532L76.6985 16.1079L76.5824 15.9919L76.3116 15.6441L76.2342 15.4895H76.2729L76.3503 15.1803V15.0643V14.9097V14.7938L76.3116 14.7165L76.2342 14.6392L76.1181 14.5232L75.6539 14.2913L75.5378 14.1367L75.1896 13.6729L74.9188 13.4796L74.648 13.4023L73.3713 13.441L73.1778 13.5183L72.6362 13.7889H72.5201L72.3654 13.6729H72.288L72.1719 13.7502L72.0172 14.0208L71.9398 14.1367L71.785 14.1754L70.9339 14.0208L70.8178 13.8662L70.7404 13.6342L70.5857 13.3637L70.4309 13.2477L70.2375 13.2091L70.044 13.2477L69.8506 13.325L69.6572 13.4796L69.5798 13.6342L69.425 13.7889L69.1929 13.8662L68.9608 13.9048L68.8447 13.9821L68.7673 14.1754L68.6513 14.5232L68.4965 14.7551H68.3031L67.9162 14.6005L67.7227 14.6778L67.3745 14.987L67.1811 15.0643L66.9877 14.9484L66.8716 14.6778L66.7942 14.3686L66.6782 14.0981L66.4847 13.8662L66.3299 13.7502L66.2526 13.5956L66.3299 13.2091L66.2913 12.8226L66.1752 12.5907L65.8657 12.1269L65.6722 11.5858L65.5562 11.3925L65.3241 11.2379L64.9372 11.1606H64.7437L64.5503 11.2379L64.3568 11.4312L64.1247 11.895L63.97 12.0882L63.7378 12.1655H63.1575L62.8867 12.2042L62.6159 12.3588L62.345 12.5907L62.0742 12.8999L61.8808 13.2864L61.8421 13.5183L61.8808 14.0594L61.8421 14.2913L61.6873 14.4846L61.61 14.33L61.5326 14.0594L61.4552 13.8662H61.3391L61.2231 13.9435L61.107 14.0208L60.9522 13.9435L60.8749 13.7889L60.7975 13.5956L60.6427 12.7839L60.604 12.4747L60.5267 12.2815L60.2945 12.2042L59.4821 12.0496H59.2113L58.9791 12.1269L58.5149 12.4361L58.2827 12.668L58.1667 12.7453L58.0506 12.7066L57.9732 12.5907L57.8572 12.2042L57.8185 12.0496L57.7024 11.9336L57.4316 11.779L57.3155 11.6631L57.2381 11.5085V11.3539V11.2379L57.1995 11.0833L57.0447 10.9287H56.8513L56.6578 11.0447L56.3483 11.1606L56.1549 11.4312L55.8454 12.0109L55.6132 12.2042L55.4198 12.2815H54.5299L54.3752 12.2428L54.1818 12.1655L53.6401 11.5471L53.4467 11.4312L53.2532 11.4698L53.0598 11.6244L52.9437 11.8563L52.8663 12.1655V12.3588V12.5134V12.668L52.8277 12.8612L52.789 12.9385L52.3634 13.5183L52.286 13.5956L52.1313 13.6342L52.0152 13.5956L51.8604 13.4796L51.7444 13.325L51.667 13.2091L51.9765 12.4747L52.0539 12.0882L51.9378 11.779L51.7831 11.7017H51.2801L50.2742 11.3152H49.9647L49.7713 11.3925L49.5004 11.6631L49.307 11.779H49.1136L48.5719 11.7017L48.185 11.8177L47.9916 11.8563L47.8755 11.7404L47.9142 11.4698L48.069 11.1606L48.1077 10.8901L47.8368 10.8128L47.6047 10.8514L47.4113 10.8128L47.2952 10.6968L47.2178 10.4263V10.0398L47.2565 9.73057L47.1791 9.49867L46.947 9.34407L46.5601 9.26677L45.7477 9.22811L44.8191 9.53732L44.2001 9.42137L42.4591 8.64836L40.4473 8.57106L40.3313 8.49376L40.2152 8.33916L40.1765 8.18456L40.2152 8.02995V7.91401L40.0991 7.8367L37.9713 7.7594L37.7004 7.64345L37.1201 7.10235L36.8493 7.06369L36.2303 7.10235L34.2572 6.71584L33.4834 6.87044L30.427 6.8318L28.8795 6.40664H28.4539L28.0283 6.56125L27.2159 6.9864L24.6237 7.41155H24.4303L23.85 7.25695L21.5673 7.4502L21.3739 7.5275L21.1804 7.72076L20.8323 8.2232L20.6775 8.53241L20.4454 9.49867L20.1745 9.88517L19.13 10.6195L17.7372 11.8563L17.3503 11.895L17.0795 11.6631L16.8086 11.3539L16.4218 11.1993L16.1896 11.1606L15.5319 10.9674H15.3385L14.4486 11.1993L14.3326 11.2766L14.2552 11.3925L14.1391 11.5858V11.7017L14.2165 11.8177L14.4873 12.5134L14.526 12.668L14.4873 12.8999L14.41 12.9385L14.3326 12.8612V12.9385L14.41 13.1318L14.6421 13.2091L14.7968 13.2864L14.9129 13.3637L14.7581 13.6729V13.7502L15.145 14.2913L15.2224 14.4459L15.1063 14.4846L15.029 14.6005V14.7551L15.1063 14.9484L14.9129 15.0257L14.7581 15.1803L14.6421 15.4122L14.6034 15.6054L14.6421 15.9146L14.7968 15.9919H14.9516L15.1063 16.1079L15.6093 17.2287L15.8027 17.4993L16.267 17.8085L16.6926 18.2336L16.8086 18.4269L16.6539 18.5042L16.6152 18.6588L16.7699 18.9293L17.0021 19.3158L17.0795 19.5091L17.1955 20.1275V20.2048L17.1568 20.3208L17.2342 20.3594L17.3503 20.3981L17.4663 20.4754L17.5824 20.63L17.6211 20.7459V20.8619L17.6598 21.0551L17.8145 21.287L18.4336 21.8668L19.2073 22.2919L19.3234 22.4852L19.2073 22.7557L18.9365 22.7944H18.627L18.4336 22.8717L18.2014 22.7171L17.9306 22.7557L17.7372 22.9103L17.6211 23.1809V23.4514L17.7759 23.6447L18.008 23.7606L18.2788 23.7993V23.8766L18.1627 24.1471L18.2788 24.379L18.5496 24.5336L18.7818 24.5723L18.7431 24.9201L18.8204 25.2293L19.0526 25.8091L18.8591 26.1956L18.9365 26.8913L19.0139 27.0846L19.0526 27.1232V27.1619L18.9365 27.3165L18.7818 27.5097L18.2014 27.8189L18.1627 27.9735V28.2441V28.4373L18.124 28.5919L17.9306 29.0557L17.4277 29.249L15.7641 29.2876L15.4545 29.4036L15.2998 29.4809L15.1837 29.5968L15.0677 29.7901L14.9516 30.1766L14.8355 30.3698L14.1004 31.1428L13.8296 31.3747L13.3267 31.7612L12.9011 32.0704L10.7732 34.3508L10.5024 34.776L10.1542 35.0465L9.76733 35.433L8.76143 36.9017L8.37454 37.2882L8.33585 37.4042L8.25847 37.6747L8.21979 37.7907L8.14241 37.868L7.98766 37.9066L7.91028 37.9839L7.8329 38.0999L7.25258 39.1434L7.09782 39.2981L6.98175 39.3367L6.78831 39.3754L6.67225 39.4527L6.59487 39.5686L6.44011 40.0324L5.74372 40.96L5.51159 41.5011L5.66634 42.0036L5.74372 42.1968L5.78241 42.8152L5.8211 42.9698L5.85979 43.0471L5.97585 43.2404L6.1693 43.4336L6.24667 43.5496L6.28536 43.7815L6.40142 45.0956L6.36274 45.2888L6.05323 45.9459L5.93716 46.4484L5.78241 46.7576L5.74372 46.9508L5.78241 47.0281L5.8211 46.9895L5.93716 46.8349L6.09192 46.9508H6.05323L6.36274 47.1441L6.63356 47.4919L6.78831 47.6079L7.21388 47.8398L7.32995 47.9944V48.1103L7.25258 48.3809V48.5741L7.29126 48.6901L7.44602 48.9606L7.4847 49.0379L7.36864 49.2698L7.17519 49.1925L6.98175 48.9993L6.827 48.922L6.71093 48.8833L6.51749 48.6514L6.44011 48.5741H6.32405L6.1306 48.6514L5.78241 48.6128L5.58897 48.6514L5.39553 48.6128L5.16339 48.4582L4.8152 48.0717L4.62175 47.9944L4.42831 48.1876L4.35094 48.4195L4.27355 48.7287L4.23487 49.0379V49.2698L4.08011 49.3858L3.73192 49.4244L3.57717 49.5404L3.38372 50.1201L3.26766 50.352V50.4293V50.6226L3.22897 50.6999L3.15159 50.8158L2.91946 51.0091L2.84208 51.125L2.8034 51.2796V51.3956V51.5115L2.84208 51.9754L2.8034 52.0526L2.72601 52.2073L2.64864 52.3232L2.57126 52.4005L2.49389 52.4778L2.45519 52.6711V52.9803L2.41651 53.2895L2.30044 53.56L2.14569 53.7533L2.02962 53.8306L1.79749 53.9079L1.68142 53.9852L1.60405 54.0625L1.52667 54.2944L1.4493 54.4103L0.830278 54.9128L0.675526 55.1447L0.636835 55.4152L0.752902 55.9563L0.714211 56.1882L0.598145 56.4201V57.425L0.830278 57.4637H0.868969L0.946345 57.3477L1.25585 57.2318L1.56536 57.2704L1.87487 57.425L1.72012 57.8502V58.0821H1.99093H2.06831L2.14569 58.1981V58.3527L2.107 58.5073V58.7005L2.22307 58.9711L2.68733 59.6668L2.7647 59.7054H2.84208L2.91946 59.6668L2.99684 59.6281H3.03552H3.1129L3.30634 59.7054L3.4611 59.7441H3.61585L3.77061 59.6668H3.80929H3.84798H3.88667L4.58306 60.5557L4.69913 60.8263L4.8152 61.2514L4.96995 61.5606L5.00864 61.6379H5.04733L5.16339 61.5606H5.8211L5.97585 61.522L6.1306 61.406L6.28536 61.3674L6.44011 61.4447L6.47881 61.522L6.827 61.7152L7.09782 61.9858L7.21388 62.1404L7.29126 62.3336L7.36864 62.6042L7.32995 62.7588L7.25258 62.8747V63.1066L7.09782 63.2999L7.17519 63.4545L7.52339 63.725L7.71684 63.6477L7.87159 63.5318L7.94896 63.3385L7.87159 63.068L7.94896 62.9134H8.10372L8.25847 62.9907L8.41323 63.1066L8.56798 63.1839L8.72273 63.2226L8.87749 63.1839L9.26438 62.8747L9.38044 62.6428L9.57389 62.0244L9.76733 61.7539L9.96077 61.6766L10.1542 61.7152L10.7732 61.9471L10.928 62.0631L11.3149 62.5269L11.7404 62.9134L11.9339 63.1453L12.0113 63.1839H12.0886H12.166L12.2434 63.1453H12.2821L12.9011 63.4545H13.0945L13.1719 63.4158L13.2106 63.3385L13.2493 63.2612L13.288 63.1839L13.3654 63.1066L13.4814 63.068L13.8296 62.9907L13.9844 63.068L14.5647 63.1453L14.9516 63.2612L15.1837 63.2999L15.8027 63.2612L15.9575 63.3385L16.4218 63.7637L16.4604 63.9569H16.6539L17.5824 63.5704H17.8532L18.008 63.6864L18.4722 63.8023L18.6657 63.8796L19.0139 64.1889L19.1686 64.2275L19.7103 64.4207H19.9037L20.5614 64.0729H21.0257L21.3739 63.7637L21.5673 63.6477H21.7221L22.225 63.7637H22.728L22.9214 63.8023L23.347 64.0729L23.5791 64.2661L23.7339 64.4594L23.8113 64.6913V64.8846L23.85 65.0392L24.0047 65.2324L24.3142 65.4257L25.0493 65.7349L25.1654 65.8508L25.2814 66.0054L25.5909 66.5465L25.8231 66.8944L25.9778 67.0103L27.0611 66.8171L27.6414 66.5465L28.0283 66.16L28.9181 64.6913L29.305 64.4207L33.8316 63.9183L34.4506 63.6864L34.9536 63.6477L35.2244 63.5318L35.3791 63.4931L35.8047 63.5318L36.385 63.3772H37.2749L37.7004 63.1839L37.7778 63.0293L37.9713 62.5655L38.0873 62.4109L38.3195 62.2177L38.4355 62.1017L38.5903 61.7925L38.745 61.3674L38.8224 60.9422V60.633L38.8998 60.1692L38.9772 60.2079H39.1319L39.3254 60.1692L39.6349 60.0146L39.7896 59.976L40.2152 59.9373L40.37 59.8987L41.5306 59.6281L41.8014 59.4735V59.3576L41.8401 59.203L41.9562 59.0484L42.2657 58.8551L42.3044 58.6618L42.3818 58.5459L42.5752 58.6232L42.6913 58.7778L42.8073 58.9324L42.9234 59.087L43.0782 59.1643H43.2716L43.3877 59.087L43.4263 58.8938V58.6232L43.3877 58.3527L43.3103 58.1981V58.0821L43.3877 57.9275H43.4263L43.5811 58.0048H43.6585L43.7359 57.9275L43.7745 57.8116L43.8132 57.7342L43.9293 57.6956L44.2388 57.8502L44.5483 58.1208L44.8578 58.314L45.206 58.2753L45.2834 58.1981H45.3608L45.4381 58.2367H45.5542L45.6703 58.2753L45.709 58.2367V58.1594L45.6703 58.0821V58.0048V57.9275L45.6316 57.8116V57.6956L45.7477 57.6569L45.825 57.6956L46.0185 57.8116L47.0244 58.1981H47.3339L47.6821 58.0048L48.2237 57.3091L48.5719 57.1545L48.7654 57.1931L49.0362 57.425L49.1522 57.4637L49.307 57.3864L49.8486 56.9226L50.0421 56.652H50.429L50.545 56.6134L50.7772 56.4588L50.9706 56.4974L51.0093 56.8453L51.2027 56.9226H52.3634L52.6729 57.0772L53.2532 57.5023L53.408 57.6183L53.6788 58.0434L53.7562 58.1208L53.9496 58.4299L54.3365 58.5846L55.149 58.7005L55.3424 58.7778L55.4972 58.9324L55.5359 59.1643L55.3424 59.7054L55.4585 59.8214H55.6519L55.8067 59.7827L56.0775 59.5508L56.2323 59.5122L56.3096 59.7441L56.3483 60.0146L56.4257 60.1692L56.5804 60.2079L56.8126 60.1692L57.006 60.0533L57.1608 59.9373L57.3155 59.8214L57.7411 59.7827L57.8959 59.8214L57.9732 59.9373L58.0119 60.2079L57.9345 60.4784L57.8185 60.5944L57.7024 60.6717L57.5477 60.8263L57.509 61.0195L57.5477 61.2128L57.6637 61.3287L57.8572 61.2901L58.0119 61.1355L58.0893 60.9422L58.2054 60.7876L58.3988 60.749L58.5536 60.8649L58.6309 61.0582V61.2514L58.4762 61.4447L58.747 61.9858L58.8631 62.1017L59.0565 62.2177H59.1339L59.1726 62.1017V61.8698L59.25 61.5993L59.4434 61.0968L59.6368 61.0195H59.9463L60.7975 61.3674H61.4165L61.7647 61.4447L62.0355 61.5993L62.1129 61.7152L62.1516 61.8312V61.9085L62.1903 61.9858L62.345 62.3336L62.4224 62.7201V62.7974L62.4611 62.8747L62.6159 63.0293L62.848 63.4545L63.1575 63.7637L63.467 64.0342L63.7378 64.1502L64.086 64.0729L64.5116 63.5318L64.7824 63.3772H64.9372L65.0532 63.4158L65.1693 63.5318L65.2854 63.6864L65.3627 63.8796L65.4401 64.3434L65.5175 64.5367L65.6336 64.6526L65.9818 64.7686L66.0591 64.8459L66.0204 65.0392L65.8657 65.2324L65.6722 65.4257L65.5562 65.5803L65.4788 65.8122V65.9668L65.5562 66.0441L65.8657 66.16L65.9818 66.276L66.0204 66.4306L65.9044 66.5852L65.6336 66.933L65.5949 67.3582V67.8606L65.5175 68.3631L65.2854 68.7882L65.0532 69.0974L64.9372 69.4453L65.0532 69.9864L65.1306 70.141L65.2854 70.5275L65.3627 70.6821L65.5175 70.798L65.5949 70.7207L65.6722 70.5662L65.827 70.4888L65.9818 70.5662L66.1365 70.8367L66.4073 71.0299L66.4847 71.1845L66.5234 71.3392L66.6008 71.4938L66.7555 71.5711L66.9103 71.6097L67.065 71.6484L67.1811 71.8416L67.2198 72.0349V72.2281L67.2585 72.4214L67.3745 72.6146L67.4906 72.7306L67.6454 72.8079H67.8001L67.9549 72.7692L68.1096 72.6146L68.2257 72.46L68.2644 72.2668L68.3418 72.0735L68.5352 72.0349H68.7286L68.9221 72.1122L69.0768 72.2668L69.1929 72.4987L69.2703 72.8079V73.1171L69.1542 73.349L68.9221 73.4649L68.8834 73.7741L68.9608 74.4698L68.9221 74.8177L68.806 74.9723L68.6126 75.0496L68.3418 75.0882L68.3031 75.1269V75.2042L68.3418 75.2428L68.6126 75.7839L68.6899 75.8612L68.806 75.7839L68.8834 75.6293L68.9995 75.4747H69.1929L69.309 75.552L69.425 75.7066L69.5024 75.8999V76.0931L69.425 76.2864L69.309 76.4023L69.1929 76.5569L69.1155 77.0594L69.0768 77.2526V77.4072L69.1542 77.5618H69.1929L69.425 77.5232L69.5024 77.5618L69.6572 77.7165L69.7345 77.7938L69.8893 77.8324L70.1988 77.8711L70.3536 77.9483L70.5083 78.103L70.7018 78.4508L70.8565 78.5668L71.166 78.6054L71.4368 78.5668L71.7077 78.6054L71.9785 78.8373L72.0172 78.9146L72.0945 79.1465L72.1332 79.2238H72.2106L72.288 79.1852L72.3654 79.1465L72.4814 79.2238L72.5201 79.3011V79.5717V79.6876L72.5588 79.7649L72.6749 79.9582L72.7136 80.0741V80.306L72.6362 81.1563L72.5975 81.3109L72.5588 81.4269L72.5201 81.5428V81.6974L72.5588 81.852L72.6749 82.1226L72.7136 82.2385L72.5975 82.5477L72.4041 82.5864H72.2493L72.288 82.8956L72.4041 83.0502L72.7909 83.2048V83.2434L72.8296 83.3594L72.8683 83.398L72.9457 83.3594L73.0618 83.2821H73.1391L73.2165 83.3208L73.2552 83.398L73.3713 83.63L73.2939 83.7459L73.7195 84.0938L73.8742 84.287L73.9516 84.2097L74.1063 84.1711L74.2611 84.2097L74.3772 84.287L74.145 84.6735L73.9129 84.9054L73.526 84.9827L72.4427 84.9054L72.288 84.9441L72.1332 85.0214L71.785 85.3306L71.5916 85.3692L71.3981 85.176L71.3595 85.0987V84.8281V84.7122L71.3208 84.5962L71.1273 84.287L70.6244 83.8232L70.5083 83.63V84.0165L70.3922 84.2097L70.1988 84.287H69.928L69.8893 84.3643L69.928 84.6735L69.8506 84.9054L69.7345 85.0214L69.5798 85.06H69.425L69.2703 84.9827L69.1542 84.8281L69.0381 84.5576L68.8834 84.4416L68.7673 84.403L68.4965 84.3643L68.3418 84.287L68.3031 84.2097V84.0938V83.9778L68.3418 83.8619L68.3804 83.7845L68.4191 83.7073V83.63L68.3804 83.5526L68.1483 83.514L67.9549 83.63V83.8232L67.5293 84.4416H67.4132L67.2585 84.2097L67.0263 83.7459L66.9103 83.7073L66.7555 83.9778L66.7168 84.1324L66.7555 84.403V84.5189L66.6782 84.6735L66.6395 84.7122L66.5621 84.6735L66.446 84.7122L66.0978 85.0987L65.9044 85.2146L65.7496 85.0987V84.9827L65.827 84.8668L65.9044 84.7508L65.9818 84.6349L66.0204 84.4803V83.3594L65.9431 83.0502L65.7883 82.8569H65.5949L64.7824 83.3208L64.2795 83.514L63.5831 83.9778L63.3896 84.2484L63.3122 84.6349L63.3896 85.1373L63.5444 85.7944V85.9876L63.5057 86.2195L63.4283 86.4128V86.606L63.5831 86.7993L64.1247 87.3017L64.1634 87.6109L64.0473 87.9201L63.8539 88.268L63.5444 88.6158L63.467 88.8091L63.5057 89.1183L63.6604 89.6981L63.6217 89.9686L63.3896 90.0846L61.7647 90.5097L61.61 90.6257L61.4939 90.8189V91.0508L61.61 91.5146L61.6486 91.7465V92.0171L61.61 92.1717L61.4939 92.2876L61.3391 92.4036L61.0683 92.4422L60.9909 92.5195V92.5968L61.0296 92.7128V92.8674L60.9909 92.9833L60.7588 93.1379L60.1398 93.1766L59.985 93.4085L60.0624 93.6404L59.985 93.7563L59.7142 93.8336L59.5595 93.9496L59.4434 94.0655L59.25 94.3747L59.1726 94.5293L59.25 94.6066L59.4047 94.6839L59.5208 94.7999L59.5981 94.9931V95.1864L59.6368 95.3796L59.7529 95.5729L59.5208 95.6889L59.4821 95.7275L59.4047 95.8434V95.8821L59.4434 95.9207L59.4821 96.3459L59.4434 96.5005L59.25 96.5778L58.6696 96.5391L57.9732 96.3459L57.3155 96.3072L56.8126 96.6937L56.7352 96.8484L56.6578 97.003L56.6191 97.0803L56.7352 97.2349L56.9673 97.1962L57.2381 97.3508L57.4316 97.5827L57.3929 97.8533L57.6637 98.549L57.8572 98.8582L58.0506 99.0128L58.2054 99.0514L58.5149 99.2447L59.3273 99.4379L60.1011 99.8244L61.3391 100.095L61.6873 100.056H61.9968L62.1129 100.018L62.229 99.9017L61.9581 99.7858L61.8808 99.7471L61.8421 99.6698L61.8034 99.5539L61.8421 99.4379L62.1129 99.322V99.1287V98.9355L62.345 98.8968L62.4998 98.9355L62.7319 99.1287L62.9254 99.1674L63.0414 99.2447L63.1962 99.3993L63.3896 99.5152L63.5831 99.4379L63.6217 99.3606L63.6604 99.0901L63.6991 98.9741L63.7765 98.9355L63.8539 98.8968H64.0473L64.1634 98.8195L64.6277 98.433L65.0145 98.3171L65.1693 98.2398L65.2854 98.0852L65.3627 98.0465H65.5949L65.6336 98.0079L65.6722 97.9306L65.7496 97.8533L65.9044 97.7373L66.0978 97.6214H66.2526L66.4073 97.66H66.6008L66.6782 97.6214L66.7555 97.5441L66.8329 97.4668L66.9103 97.3895L66.9877 97.3508L67.1037 97.3895L67.2198 97.4281L67.2972 97.4668L67.9936 97.5441L69.2703 98.0079L69.6959 98.3944L69.8119 98.433L70.0054 98.6263L70.1601 99.0901L70.1988 99.5925L70.0827 99.979L70.1214 100.056V100.134L70.0827 100.211L70.044 100.288L70.1988 100.327L70.3536 100.288L70.5083 100.211L70.6631 100.056V100.018V99.9017L70.7018 99.7471L70.8178 99.4379V99.322L70.8952 99.1287L70.9339 99.0128V98.8968L70.8952 98.3557L70.8565 98.0852L70.7791 97.8533L70.6631 97.6987H70.8565L70.9339 97.5441V97.2735L70.8565 97.0803L70.7018 96.9257L70.6244 97.0416L70.5857 97.2735L70.547 97.4668L70.5083 97.2349L70.4309 97.1962H70.3536L70.2762 97.1576V97.1962L70.2375 97.2349H70.1601L70.1214 97.1962V96.887L69.9667 96.9257L69.928 97.0416V97.1962L69.8893 97.3122H69.7732L69.6572 97.2349L69.5798 97.1189L69.425 96.8097V96.6937L69.5798 96.6551L69.6572 96.5778L69.6959 96.4619L69.7345 96.3459L69.8119 96.3072L69.928 96.1913L70.2375 95.7275L70.3536 95.5729L70.1214 95.8048L69.9667 95.8821L69.8119 95.9207H69.6572L69.5411 95.8821L69.5024 95.8048L69.5798 95.225L69.5411 94.6066L69.6185 94.0655L69.928 93.8336L69.8506 93.679L69.8119 93.6017L69.7732 93.4858V93.2925L69.8119 93.1379L69.9667 92.906L70.0054 92.7901L69.9667 92.7128L69.8506 92.5582L69.8119 92.4809L69.8506 92.3649L69.8893 92.2876H69.928L69.9667 92.4036L70.044 92.4422L70.2375 92.5968H70.2762L70.3149 92.6355L70.3536 92.7128L70.4309 92.8674V92.9447L70.3922 93.0606L70.3536 93.2539L70.3922 93.8723L70.3536 93.9496L70.547 94.0655L70.7018 94.3361L70.8178 94.6839V95.0318L70.9339 94.9158L71.2047 94.8385L71.3595 94.7612L71.3208 94.6453L71.3595 94.6066L71.3981 94.5293L71.5916 94.6066L71.7463 94.5293L71.9011 94.4134L72.0559 94.3361L72.0945 94.2974L72.0172 94.2201L71.8624 94.0655L71.6303 93.9882L71.5142 93.9109L71.4368 93.7177L71.4755 93.4471L71.669 93.2925L71.9398 93.2539H72.1332L72.1719 93.2152L72.2106 93.1379L72.2493 93.0993L72.3267 93.0606L72.4041 93.0993V93.1379V93.2152L72.4427 93.2539L72.6362 93.4085L72.7136 93.4858L72.7522 93.6017L72.7909 93.2539L72.7136 93.1379L72.6362 92.9833L72.5975 92.8287V92.5968L72.6749 92.4036L72.7522 92.3649L72.7909 92.4422L72.7522 92.5968V92.6741L72.8296 92.7901L72.907 92.9447L72.9457 92.6355L72.9844 92.3263L73.0618 92.0557L73.2552 91.9398L73.4873 92.0171L73.9129 92.3649L73.9903 92.3263L74.029 92.2876L74.0676 92.3263L74.145 92.3649L74.1837 92.4036H74.2611V92.3649V92.3263L74.2998 92.249V92.1717L74.3385 91.8238L74.3772 91.6692L74.4545 91.5533L74.5319 91.476L74.6093 91.5146L74.6867 92.249L74.648 92.4422L75.267 91.9398L75.77 91.4373L76.7758 90.0846L77.8978 89.0023L77.9752 88.8091L78.1686 88.3066L78.246 88.1907L78.4008 88.1134L78.5168 87.9201L78.7103 87.5336L79.368 86.606L79.6388 86.0649L79.6775 85.949V85.7944L79.6001 85.6784L79.4067 85.5238L79.368 85.4465L79.484 85.2533L79.987 85.2919L80.1418 85.1373L80.5286 84.6349L80.5673 84.5576L80.6447 84.1711L80.6834 84.0938L80.7221 84.0551L80.7608 84.0165L80.7995 83.9778L80.7608 83.9005L80.6834 83.8232H80.6447L80.5673 83.5526L80.4126 83.2048L80.3739 83.0502L80.4126 82.9342L80.6834 82.5477L80.7995 82.4318H80.8768L81.2637 82.5091L81.3798 82.4704L81.9214 82.0839L82.0375 82.0453L82.1536 82.0839H82.2309L82.4631 81.8907L82.5405 81.852L82.7339 81.8134L83.1208 81.6974L83.6237 81.6201L84.088 81.4655H84.3588L85.0165 81.6201L85.1713 81.7361L85.2486 81.6201L85.3647 81.6974L85.6355 81.7361L85.7516 81.8134L85.8677 81.6974L86.2545 81.4655L86.448 81.4269L86.5641 81.3109L86.8736 80.8085L87.0283 80.6925V80.6539L87.1831 80.3833L87.2604 80.2287L87.2217 80.1514L86.9122 79.9195L86.8349 79.8809L86.7575 79.8036L86.7188 79.6103V79.533L86.6027 79.1852L86.7575 79.2625L86.8736 79.4171L87.0283 79.7649L87.1444 79.8809L87.2604 79.9582L87.3765 79.9195L87.4152 79.8809V79.8422L87.6086 79.5717L87.6473 79.4944L87.7247 79.4557L87.9182 79.3784L87.9955 79.3398L88.0729 79.1852L88.1116 78.9919L88.189 78.9146L88.305 79.0692L87.8795 79.7263L87.7634 79.8422V79.9582L87.6473 80.2674L87.1444 81.1177L87.067 81.3496L87.1057 81.5428L87.1831 81.5815H87.2991H87.4926L87.57 81.6201L87.686 81.7361L87.7634 81.7747L87.9568 81.7361L88.0342 81.5815L88.1116 81.3882L88.2663 81.3109L88.808 81.2723L89.6978 81.6201L90.0847 81.6588L90.4716 81.5815L90.5877 81.5042L90.7811 81.3496L90.8585 81.2723L90.9359 81.1177V81.0404L90.8972 80.9244L90.8585 80.6925L90.9359 80.1128L90.8972 80.0355L90.549 79.5717V79.1852L90.665 78.876L90.8585 78.6827L91.0906 78.6054L91.284 78.4508L91.4388 78.103L91.5162 77.7165L91.4775 77.4459L91.284 77.5618L91.0906 77.6392L90.9359 77.6005L90.8585 77.3686L90.8972 77.1367L91.0132 76.9435L91.284 76.6342L90.9745 76.5956L90.549 76.6342L90.2395 76.5183L90.3168 75.8999L90.3942 75.8226L90.5103 75.5907L90.5877 75.3588L90.4716 75.2428L90.4329 75.2042L90.3942 75.1655L90.3168 75.0882L90.0847 75.0496L90.046 74.9723V74.1993L89.9686 74.0447L89.5818 73.9287L89.3883 73.8128L89.2336 73.6582L89.1562 73.5036L89.1949 73.4263L89.3109 73.1944L89.3496 73.1557L89.427 73.1944V73.3103L89.3883 73.5809L89.4657 73.7355L90.046 74.006L90.1621 74.1606L90.2008 74.2766V74.4312L90.2395 74.7017L90.3168 74.895L90.3942 74.9723L90.5103 75.0109L90.6264 75.1269L90.7811 75.4747V75.7066L90.5103 76.2864L90.665 76.441L90.8198 76.4796L91.2067 76.4023L91.4775 76.441L91.5549 76.5183L91.4775 76.6729L91.2067 77.0981L91.168 77.2526L91.2454 77.3686L91.7096 77.4459L91.787 77.6005V77.7938L91.7483 78.0643L91.5549 78.5281L91.3227 78.9146L91.168 79.3398L91.2067 79.8809L91.284 80.1128L91.4001 80.306L91.4775 80.4993L91.5162 80.7698L91.5549 81.0017L91.6709 81.2723L91.8257 81.5042L91.9418 81.6588L92.0965 81.7361L92.6768 81.852L92.8316 81.968L92.9477 82.4704L93.0637 82.625L93.2959 82.3545H93.3732L93.5667 82.2772H93.6827L93.7601 82.2385L93.9149 82.0453L94.0309 82.0066L94.0696 82.0453L94.2244 82.2772L94.8434 82.625L95.5011 82.5477L96.7391 81.852L96.9713 81.8907L97.2421 81.7747L97.4742 81.5815L97.7063 81.4655L97.5903 81.6974L97.4742 81.8134L97.3195 81.9293L97.1647 82.0839L97.01 82.1999L96.5844 82.2385L96.4296 82.3545L95.7719 82.8956L95.5011 83.2434L95.6945 83.4753L95.4237 83.7459L95.0755 83.9005L94.6886 83.9391L94.3018 83.8619L93.7988 83.5526L92.7929 83.3208H92.5995L92.0578 83.398L91.284 83.2048H90.5103L90.3942 83.1661L89.8526 82.8569L89.5431 82.7796L87.9182 82.8956L87.7634 82.8183L87.5313 82.5477L87.2217 82.3158L87.3765 82.625L88.4598 83.7459L88.5759 83.7845L88.6532 83.8619L88.8467 84.403V83.9778V83.8619L88.8854 83.7459L88.9241 83.6686L89.0401 83.514L89.1949 83.4367H89.3883L89.5818 83.514L90.8585 84.0551L91.2454 84.1324L91.5936 84.0938L91.7483 84.1711L92.1739 84.7508L92.2513 84.9054L92.1739 84.9441H92.0578L91.9418 84.9827L91.4388 85.4465L91.3614 85.4852L90.665 85.6011L90.1621 85.4852L89.9686 85.5238L89.8139 85.6011L89.6204 85.7557L89.6591 85.949L89.7752 86.1036L89.9299 86.1809L90.0847 86.2195L90.665 86.2582L90.7424 86.1809L90.7037 86.0263L90.665 85.8717L90.7037 85.7171L91.4775 86.2968L91.9418 86.5287L92.2126 86.4128L92.4834 86.6447L92.8316 87.1085L92.9477 87.1858L93.0637 87.2244L93.4893 87.379L93.7214 87.4177L93.9536 87.379L94.2244 87.2631L94.1857 87.379L94.147 87.4563L93.9536 87.6109L93.9922 87.6882L94.0309 87.8815L94.0696 87.9974V88.0747L94.1083 88.2293V88.268L94.147 88.3066H94.2631L94.4565 88.4612L96.3136 89.0023L96.7004 88.925L96.7778 88.8864L96.9326 88.7318L97.01 88.6545L97.0873 88.6158L98.248 88.4226L98.5962 88.268L98.7509 88.2293L98.9831 88.268L99.486 88.4226H99.5634H99.7568H99.8342L99.9116 88.4999H99.989H100.105L101.072 88.3453L101.188 88.1907L101.111 87.8042L101.653 88.0747L101.846 88.2293L101.923 88.268H102.001L102.117 88.2293H102.194L102.504 88.0747L102.697 87.7269L102.852 87.3404L103.045 87.1085L102.968 88.0361L102.929 88.1907L102.852 88.3453L103.587 88.2293L103.78 88.3066L103.819 88.4612L103.703 88.6545L103.548 88.8091H103.626H103.664H103.703L103.742 88.8864L103.935 88.6158L104.167 88.6545L104.399 88.8864L104.67 89.2729L104.748 89.3502H105.328L105.521 89.4275H105.599L105.405 89.1569L105.483 89.0023L105.715 88.925H105.947V88.8091L105.715 88.6545V88.4612L105.87 88.268L106.063 88.0747L106.295 87.9974L106.45 88.152L106.721 88.6931L106.759 88.8864L106.682 89.041L106.566 89.1956V89.3502L106.682 89.814V89.8913L106.605 90.0072L106.566 90.1232V90.2392L106.682 90.2778L106.643 90.3551L106.566 90.5097L106.411 90.7416L106.527 90.8189L106.605 90.7803L106.682 90.7029L106.798 90.6643L107.03 90.6257L107.572 90.7803L107.727 90.8576L107.881 91.0122L107.727 91.0895L107.417 91.1668L107.262 91.2441L107.108 91.2054L107.069 91.4373L107.108 91.7465V91.9011L106.914 91.9398H106.798L106.759 91.8625L106.721 91.7852L106.643 91.7079L106.527 91.6692L106.643 91.5533H106.566L106.45 91.5919L106.257 91.7079L106.024 91.9784L105.792 92.0557H105.715L105.599 92.0171L105.405 91.9011L105.328 91.8625L105.173 91.9398L104.786 92.2103L104.632 92.249L104.361 92.5582L104.322 92.6355L103.974 92.7901L103.316 93.2152L103.007 93.2539L102.697 93.0606L102.542 92.8674L102.465 92.7901L102.388 92.8674V92.9833L102.465 93.0606L102.542 93.0993L102.581 93.1379L102.542 93.2925L102.426 93.3698L100.337 94.3361L99.7182 94.7612L99.4473 95.0704L99.37 95.1477L99.3313 95.225L99.2926 95.341V95.4569L99.3313 95.5729V95.6889L99.2152 95.7275H99.0991L98.9057 95.6502H98.8283L98.6736 95.6889L98.5962 95.7661L98.5188 95.8434L98.4414 95.9207L98.3254 96.0367L98.1706 96.114L97.9772 96.1526L97.745 96.1913L97.5903 96.2299L96.507 97.0803L96.2362 97.3895L96.1201 97.7373L96.1588 97.9306L96.4296 98.6263L96.6231 98.6649L96.9326 98.8195L97.126 98.8968H97.7837L97.9385 98.8195L98.248 98.4717L98.4027 98.3557L98.5962 98.3171L99.989 98.433L100.376 98.5876L100.724 98.8195L101.304 99.322L101.382 99.3606L101.537 99.4379L101.614 99.4766L101.73 99.6698L101.807 99.7858L102.039 99.9404L102.349 100.327L102.504 100.443L102.929 100.559L103.123 100.675L103.2 100.868L103.277 100.984L103.471 100.945L103.78 100.752L104.129 100.636L104.516 100.597L104.67 100.675L105.173 101.139L105.831 101.525L106.063 101.834L106.218 102.375L106.257 102.723L106.295 102.839L106.45 103.148L106.489 103.226L106.527 103.419L106.643 103.921V104.231L106.605 104.501L106.566 104.733L106.45 104.888L106.102 105.004L105.986 105.158L105.908 105.39L105.87 105.661L105.831 105.738L105.792 105.777L105.715 105.815L105.792 105.97L105.831 106.163L105.87 106.511L105.947 106.781V106.936L105.908 107.129L105.831 107.284L105.715 107.439L105.637 107.593V107.786L105.715 107.864L106.024 107.941L106.14 107.98L105.947 108.057H105.483V108.173L105.405 108.212H105.289H105.096L105.018 108.25L104.825 108.405L104.748 108.443L104.477 108.521L104.438 108.482V108.637L104.516 108.791L105.483 109.487L105.599 109.603L105.754 109.719H105.947L106.14 109.68H106.295L106.411 109.758L106.682 110.105L106.759 110.221L106.798 110.453L106.914 110.569L107.611 110.878L107.804 110.917H108.423H108.539L108.733 110.878H108.849L109.429 111.11L109.622 111.149L109.816 111.11L110.822 110.647L111.015 110.608L111.131 110.569L111.441 110.337L111.557 110.221L111.673 109.989L111.75 109.796L111.866 109.642L112.292 109.564L112.408 109.487L112.601 109.178L112.64 109.139V109.062L112.679 109.023V108.985H112.795H112.911L113.104 109.023L113.182 108.985L113.259 108.83L113.607 107.902L113.917 107.361L113.994 107.245L114.033 107.168L114.42 106.666H114.458V106.704V106.743L114.691 106.511L115 106.395L115.735 106.24L116.083 106.086L116.741 105.661L117.089 105.545L117.747 105.661L117.902 105.583L118.018 105.506L118.327 105.583L118.482 105.545L118.559 105.467L118.598 105.39L118.676 105.313L118.792 105.235H118.869H119.178L119.372 105.313L119.488 105.467L119.565 105.661L119.643 105.815L120.03 105.854L120.3 105.467L120.494 104.888L120.726 104.462L120.881 104.385L121.268 104.308L121.422 104.153L121.616 103.728L121.771 103.612L122.003 103.767L122.08 103.728L122.157 103.651L122.196 103.612L122.622 103.96L122.583 103.574V103.38L122.699 103.226L122.854 103.148L123.163 103.187L123.279 103.11V103.032L123.009 102.916L122.97 102.839L122.931 102.723L122.97 102.607L123.009 102.491L123.047 102.337L123.125 102.221L123.628 101.834L123.976 101.68L124.363 101.602H124.75L125.137 101.68L125.794 101.95L126.413 102.337L126.529 102.453L126.8 102.801L126.839 102.916L126.916 103.226L127.11 103.303L127.767 103.187L128.464 103.226L128.618 103.071L128.773 102.762L128.967 102.569L129.276 102.685V102.607L129.779 102.916L130.592 103.11L130.785 103.071L130.824 102.994L130.901 102.762L130.94 102.685L131.017 102.607L131.133 102.569L131.946 102.53L132.603 102.298L132.719 102.182L132.758 101.989L132.642 101.796L132.371 101.525L132.294 101.254V100.984L132.371 100.211L132.449 99.9404L132.565 99.6698L132.681 99.5152L132.758 99.4766H132.952L133.029 99.4379L133.068 99.322L133.029 99.2447L132.99 99.206L132.952 99.1287L132.99 98.8582L133.106 98.7036L133.261 98.6649L133.493 98.7036L133.764 98.8582L133.88 98.8968H133.996L134.306 98.8195L134.383 98.6649L134.306 98.3557L134.151 97.8919L133.996 97.7373L133.841 97.66L133.687 97.6987L133.532 97.8533L133.377 97.8919L133.222 97.7373L132.99 97.4281L132.797 97.3895L132.255 97.5054L132.062 97.4668L131.791 97.2735L131.597 97.2349L131.481 97.2735L131.404 97.3508L131.327 97.4281H131.211L131.288 97.1962L131.211 97.0416L131.056 97.003L130.901 97.1189L130.785 97.2349H129.74L129.547 97.3122L129.354 97.5054L129.083 97.66L129.044 97.6987L128.928 98.0852L128.657 98.433L128.309 98.5103L127.961 98.3944L127.264 97.9692L127.11 97.8533L127.032 97.6987L127.071 97.4668L127.148 97.2735L127.11 97.1576L126.877 97.1189L126.723 97.1962L126.607 97.3895L126.529 97.6214L126.491 97.8533L126.452 97.9306L126.297 98.1238L126.258 98.1625L126.142 98.2011L126.104 98.2784V98.3944L126.065 98.5103L125.794 98.7809L125.601 98.8968L123.976 99.3606L123.628 99.322L122.274 98.3557L119.604 94.452L118.792 92.8674L118.289 91.5533L118.211 91.3987L118.095 91.2441L118.018 91.0895L117.67 89.4661L117.592 89.2729L117.554 89.0796L117.515 88.2293L117.437 87.9974V87.8815V87.7269L117.476 87.6109L117.631 87.379L117.67 87.3017L118.057 87.1085L118.095 86.9925V86.8379L118.173 86.722L118.289 86.6447L118.327 86.722V86.7993L118.405 86.8766L118.521 86.9152H118.598L119.449 86.6833L119.836 86.4128L120.146 86.0649L120.687 85.2146L120.997 84.9054L121.074 84.7508L121.113 84.5576L121.074 84.4416L121.036 84.3257L120.997 84.1711L120.919 83.9778L120.765 83.7459L120.687 83.4753L120.881 83.2048L120.919 83.4367L120.997 83.6686L121.113 83.8619L121.268 83.9391L121.384 84.0551L121.461 84.0938L121.538 84.1324H121.693L121.771 84.1711L121.577 84.6735L121.5 85.0214L121.577 85.3306L121.809 85.5238H122.003L122.157 85.3692L122.312 85.2146L122.274 85.5625L122.506 85.7557L122.157 86.1036L121.887 86.5674L121.809 86.7993L121.577 87.0312L121.306 87.5336L120.842 87.8042L119.875 88.0747L119.914 88.1907L119.952 88.2293L119.643 88.4226L119.372 88.7704L119.333 88.8864L119.488 88.925L119.836 88.7704L120.068 88.6158L120.378 88.5385L120.61 88.3453L120.997 88.2293L121.229 87.9974L121.461 87.6882L121.964 86.6833L122.157 86.4514L123.047 85.0214L123.202 84.8668L123.512 84.6349L123.666 84.4803L123.937 84.0938L124.092 83.9391L124.285 83.8232L125.369 83.2821L125.678 83.0115L126.413 82.1612L126.684 81.9293L127.187 81.6588L127.883 81.2723H128.116L129.392 81.0404L130.05 81.1177L130.398 81.0404H130.553L130.746 81.1177L130.785 81.1563L130.824 81.2336L130.901 81.3882L130.94 81.4269L131.056 81.5042V81.5815V81.6588L131.017 81.6974L131.056 81.8134V81.7747V81.6974L131.133 81.6588L131.211 81.6201L131.249 81.6588V81.852H131.327L131.365 81.4655L131.559 81.1563L132.178 80.4993L132.449 80.306L132.758 80.1514L133.222 80.0741L133.609 79.8422H134.228L134.306 79.8036L134.383 79.7263L134.499 79.649L134.654 79.6103L134.925 79.6876H135.079L135.234 79.6103L135.35 79.6876L135.66 79.8036L135.815 79.8809L136.163 80.2674L136.24 80.306V80.5379L136.124 81.0017L135.969 81.3882L135.776 81.3109H135.698V81.4269L135.931 81.5042L136.163 81.2723L136.356 80.9244L136.434 80.5766L136.511 80.2674L136.666 79.9582L136.782 79.649L136.704 79.3398L137.014 79.3011L137.517 78.8373L137.826 78.7214L137.942 78.6441L138.252 78.3735L138.368 78.3349L138.523 78.2962L139.606 77.8711L140.032 77.5232L140.186 77.4846L140.496 77.5618L140.805 77.7165L140.999 77.987L140.96 78.3349L141.154 78.2576L141.308 78.0257L141.54 77.5618L142.508 76.1704L143.088 75.552L143.397 75.4361L144.597 75.668H144.984L145.99 75.3201L146.802 75.4747L146.918 75.3974L147.15 75.4747L147.498 75.6293L147.576 75.5907L147.808 75.4361L147.847 75.3974L147.885 75.3588L148.195 75.5907L148.427 75.668V75.8999L148.234 76.325L148.543 76.1704L149.046 75.4747L149.239 75.2815L149.085 74.9336L149.046 74.5085L149.123 74.122L149.278 73.8128L149.433 73.6968L149.626 73.5809L149.82 73.4649L149.936 73.2717L149.975 73.0011L149.897 72.8465L149.742 72.7692H149.588L149.239 72.8465L149.085 72.8079L148.969 72.6533L149.007 72.4214L149.123 72.1895L149.394 71.803L149.626 71.3778L149.665 70.9913L149.626 70.025L149.742 69.5612L149.897 69.0974L150.129 68.7109L150.439 68.479L152.373 68.2085L152.605 68.0925L152.76 67.9379L153.108 67.5514L153.263 67.4355L153.418 67.3968L153.727 67.5128L153.921 67.4741L153.998 67.2422L154.076 66.6625L154.23 66.0441L154.462 65.503L154.772 65.1165L155.197 64.9619L156.706 65.0005L157.209 65.3484L157.403 65.387H157.596L157.983 65.2711L159.376 65.2324L159.569 65.2711L159.879 65.4643L160.034 65.5416H160.227L160.614 65.4257L160.807 65.503L161.078 65.5416L161.62 65.4257L161.891 65.4643L162.819 65.6962L163.129 65.6189L163.361 65.387L163.516 65.0392L163.593 64.6526V64.5754L163.554 64.3821V64.3048L163.593 64.1889L163.67 63.9956L163.709 63.8796L163.748 63.6864V63.5318L163.632 63.2226L163.554 63.068L163.477 62.9907L163.438 62.9134L163.516 62.7974L163.632 62.7201L164.135 62.6428H164.173L164.212 62.6042V62.4882L164.057 62.0631L164.096 61.7539L164.212 61.4833L164.676 60.633L164.87 60.4398L165.295 60.0919L165.45 59.8987L165.566 59.6281L165.605 59.3576L165.45 59.1257L165.257 59.087L164.754 59.2803L164.56 59.3189L163.902 58.9324L164.521 58.3913L164.676 58.1981L164.87 58.0048L164.792 57.8888L164.715 57.6956L164.638 57.3477L164.367 56.6907L164.289 56.6134L164.212 56.4974L164.173 56.2655H164.212H164.289L164.367 56.2269L164.405 56.1109V56.0723L164.367 56.0336L164.328 55.9563V55.8404L164.251 55.4925L164.057 55.2606L163.825 55.106L162.703 54.9514L162.51 55.0287L162.161 55.0674L162.239 54.7195L162.819 52.8257L162.897 52.7097L163.129 52.6324L163.206 52.5165L163.283 52.3619L163.361 52.2073L163.554 52.014L163.748 51.898H163.98L164.986 52.2845L165.373 52.2459L165.759 51.9367L165.914 51.7048L166.03 51.4342L165.992 51.1637L165.837 50.9318L165.605 50.8931L165.45 51.0477L165.295 51.241L165.102 51.3569L164.986 51.3183L164.831 51.0864L164.754 51.0091L164.638 50.9704L164.328 51.0091L163.593 50.8545L163.361 50.7772L163.245 50.6226L163.167 50.4293L163.051 50.1588L162.897 50.0042L162.703 49.8882L162.587 49.695L162.664 48.9993L162.819 48.8833L163.283 48.922L164.057 48.6514H164.328L164.599 48.6901H164.754L164.87 48.6128L164.908 48.4582L164.87 47.9944L164.908 47.8011L165.102 47.4533L165.373 47.2214L165.914 46.8349L166.108 46.6416L166.417 46.1392L166.611 45.9846L166.843 45.8686L166.92 45.7527V45.2502L167.036 44.7864L167.075 44.5158L166.92 44.168Z"/>
</mask>
<path d="M72.5201 94.0655L72.3654 94.1815L72.0945 94.452L71.9398 94.568L71.8237 94.6453L71.669 94.6839L71.5529 94.7226L71.5142 94.8385L71.4368 94.9545L71.2434 95.1091L70.7791 95.3796L71.4755 95.0704L72.4041 94.3747L74.5319 92.3649L73.9516 92.7128L72.5201 94.0655ZM101.498 89.6594L101.382 89.5048L100.956 89.5434L100.879 89.4661L100.801 89.3115L100.569 89.3502L100.182 89.5434L99.8729 89.3115H99.6021L98.9831 89.4275L97.6677 89.2342L97.5903 89.1569H97.5516L97.4742 89.2342L101.382 89.8913L101.498 89.6594ZM92.406 87.6109L91.168 87.3017L88.189 86.5674L87.8021 86.3355L87.57 86.0649L87.4152 85.6784L87.2604 85.0987L87.1057 85.0214V85.2533L87.1831 85.6011L87.2604 85.7944L87.5313 86.1809L87.8408 86.4514L89.3109 86.9925L92.6768 87.7269L93.0637 87.9201L93.2572 87.9588L93.1411 87.8815L92.406 87.6109ZM166.92 44.168L166.495 43.6655L166.146 43.0858L165.953 42.6606L165.876 42.1968L166.069 41.733L166.224 41.5784L166.572 41.3852L166.727 41.1919L166.765 40.9214L166.611 40.7668L165.721 40.5349H165.527L165.295 40.6122L164.754 41.1533L164.521 41.3079L164.251 41.4238L163.98 41.4625H163.709L163.516 41.3852L163.051 40.9214L162.664 40.7668L162.355 40.6895L162.084 40.4962L161.852 39.9938L161.697 39.3754L161.581 39.0661L161.465 38.9115L160.923 38.8729L160.73 38.7956L160.382 38.5637L160.034 38.641L159.685 38.7956L159.337 38.8729L158.989 38.7956L158.718 38.641L158.525 38.3704L158.022 37.0177L157.79 36.8244L157.441 36.9404L157.287 37.1336L156.977 37.5588L156.822 37.7134L156.668 37.752L155.816 37.8293L155.584 37.5974L155.352 37.2496L155.043 36.979L154.076 36.7085L153.534 36.322L153.457 36.2447L153.418 36.1287L153.379 35.8968L153.302 35.6263V35.5876L153.263 35.6263L153.031 35.7036L152.954 35.7422L152.876 35.7809L152.412 35.7036L151.754 35.8195L151.406 35.7036L151.174 35.549L151.019 35.4717L150.632 35.433L150.439 35.3557L150.323 35.2011L150.052 34.3895L149.936 34.2349L149.742 34.1962L149.472 34.2349L148.891 34.1962L148.737 34.2349L148.659 34.66L148.737 35.3171L148.698 35.9355L148.272 36.2447L148.195 36.206L148.04 36.0901L147.924 36.0514L147.808 36.0901L147.189 36.4766L147.15 36.3993V36.1674L146.996 35.8968V35.8582L146.686 35.3171L146.415 34.9692L146.106 34.6987L145.757 34.4668L145.022 34.1189L144.713 33.887L143.823 32.5342L143.514 32.225L143.436 32.1477V31.9931L143.475 31.8385L143.552 31.4907L143.514 30.8723L143.204 30.5631L142.392 30.1766L142.237 29.7901L142.121 29.3263L141.966 28.9398L141.773 28.8238L140.844 28.9398L140.573 29.0557L140.032 29.5968L139.761 29.7901L138.445 30.1766L137.788 30.0606L137.169 30.0993L136.55 30.3312L135.002 31.2201L134.886 31.3361L134.809 31.452L134.654 31.7612L134.577 31.8772L134.422 31.9931L134.228 32.0318L134.035 31.9931L133.841 31.9158L133.687 31.7999L133.648 31.6839L133.687 31.5293V31.2201L133.725 31.1815L133.687 31.1428L133.532 31.0655L133.455 31.0269L133.184 30.9496L132.913 30.7563L132.719 30.7177L132.526 30.6017L132.449 30.5631H132.333L132.255 30.6017L132.062 30.795L131.868 30.9496L131.636 31.0269H131.404L131.211 30.9109L130.282 29.4422L130.011 29.3263L129.934 29.0557L129.663 28.9011L128.077 28.7852L127.226 28.9011L127.071 28.9398L126.955 29.0557L126.761 29.3263L126.645 29.4422L126.568 29.4809H126.375L126.297 29.5195L126.142 29.7128L126.026 29.906L125.91 30.0606L125.678 30.1379H125.485L125.291 30.0606L125.098 29.9833L124.943 29.8674L124.75 29.6355L124.672 29.4036V29.133L124.595 28.7852L124.479 28.5533L124.324 28.3987L124.131 28.3214L123.937 28.2827L123.628 28.1668L123.434 27.8189L123.009 26.0796V25.8864L123.163 25.6931L123.898 25.3839L123.666 25.1134V24.8042L123.705 24.4563L123.628 24.0698L123.55 23.9152L123.434 23.8379L123.202 23.6833L123.086 23.5674V23.4128L123.125 23.2195L123.086 23.0263L123.009 22.833L122.815 22.5625L122.738 22.3692V22.1373L122.777 21.9441V21.7895L122.66 21.5962L122.544 21.5189L122.312 21.4803L122.235 21.403L122.196 21.2484V20.8619L122.157 20.7073L122.66 20.5913L122.777 20.4754L122.854 20.2048L122.777 20.0502L122.622 19.9729L122.428 19.9342L122.119 19.8956L121.5 20.0502L121.19 20.0115L120.919 19.741L120.726 19.2385L120.494 17.8858L120.417 17.6925L120.3 17.5379L120.146 17.4606L119.952 17.4993L119.759 17.5766L119.565 17.6152L119.411 17.4993L119.256 17.422H119.101L118.676 17.6925L117.94 18.0017L117.283 18.1563L116.625 18.1177L116.47 18.079L116.354 17.9631L116.277 17.7312L116.238 17.4993L116.161 17.306L116.045 17.1514L115.774 17.1128L115.194 17.2287L114.884 17.1128L114.226 16.8809L113.878 16.8422L113.569 16.9195L113.22 17.2287L113.066 17.306L112.834 17.2674L112.176 16.9968L112.717 16.6103L113.104 16.2238L113.337 15.7214L113.259 15.2189L113.066 15.3349H112.911L112.756 15.2962L112.601 15.2189L112.447 15.1416L112.253 14.987L112.176 14.8711L112.137 14.7551L112.176 14.6778L112.369 14.6392L112.408 14.5232L112.447 14.3686L112.408 14.2527L112.369 14.1367V13.9821L112.408 13.8275L112.485 13.5569L112.524 13.4023L112.485 13.0931L112.408 12.8226L112.292 12.6293L111.905 12.2042L111.828 12.0882L111.789 11.9336L111.75 11.6244L111.712 11.5085L111.596 11.4312L111.286 11.3539L111.17 11.1993L111.247 10.8514L111.596 10.6582L113.143 10.2717H113.685L113.839 10.233L114.188 9.80787V9.18946L113.917 8.60971L113.569 8.26186L113.375 8.14591L113.066 7.79805L112.911 7.6821H112.795L112.64 7.7594L112.524 7.72076V7.6821L112.485 7.48885L112.447 7.41155L112.408 7.3729L112.292 7.2956L112.215 7.25695L111.866 6.79314L111.673 6.63855H111.209V6.52259L111.286 6.29069L111.247 6.02014L111.054 5.71093L110.938 5.44038L110.899 5.16983L110.86 4.66738L110.822 4.39683V4.31953L110.977 3.97167V3.77842L110.938 3.62382L110.86 3.46922L110.783 3.31462L110.628 3.08272L110.474 2.92811L109.893 2.50296L109.777 2.34836L109.545 1.8459L109.39 1.61401L109.003 1.3821L108.81 1.2275L108.655 0.956952L108.578 0.7637L108.462 0.609096L108.23 0.531796H107.804L107.378 0.609096L106.566 0.995599L105.908 1.61401L105.715 1.65265L105.56 1.42075L105.637 0.841L105.483 0.570449L105.328 0.647748L105.212 0.7637L105.096 0.841H104.941L104.786 0.7637L104.516 0.570449L104.361 0.531796H103.78L102.891 0.377197L102.775 0.415844L102.62 0.531796L102.388 0.841L102.272 0.956952L102.117 1.03425L102.039 1.0729L101.923 1.26615L101.846 1.34345L101.769 1.3821L101.653 1.3048H101.575L101.42 1.3821L100.453 2.23241L100.298 2.30971L100.144 2.27106L99.6795 1.88456L99.5247 1.80726H99.2539L98.7122 1.96186H98.4414L96.6231 0.995599L96.1975 1.1502L95.385 0.841L94.9981 0.918299L94.8821 1.42075L94.9208 1.57535L95.1142 1.88456L95.1529 2.00051L95.0755 2.15511L94.9595 2.23241L94.8434 2.30971L94.766 2.38701L94.6886 2.65756L94.5726 3.54652L94.3018 4.12628L93.8762 4.43548L92.5995 5.05388H92.4447L91.9031 4.89928L91.5549 4.93793L91.0519 5.16983L90.8972 5.20849L90.7037 5.09253L90.665 4.86063V4.59008L90.6264 4.35817L90.4329 4.16492L90.1234 4.08762L89.5431 4.12628L88.4985 4.20357L86.8736 3.89437H86.0224L85.2873 4.20357L85.0939 4.43548L84.9391 4.74468L84.7844 5.01523L84.5909 5.09253L84.3588 5.01523L83.9332 4.66738L83.7011 4.55143L83.3529 4.51278L82.0762 4.59008L81.844 4.66738L81.6893 4.82198L81.728 5.09253L81.6893 5.16983L81.6506 5.24713L81.6119 5.32443L81.5732 5.40174L81.844 5.44038L81.9601 5.63364L81.8827 5.82689H81.6506L81.6119 5.74959L81.5345 5.71093L81.4959 5.74959L81.4185 5.82689L81.3411 5.90419L81.3024 5.98149V6.09744L81.225 6.21339L81.109 6.32934L80.9929 6.40664L80.8768 6.48394L80.606 6.59989V6.63855L80.6447 6.71584L80.6834 6.79314V6.9091L80.5673 7.10235L80.49 7.17965L80.4126 7.2183L80.1418 7.17965L80.0644 7.2183L80.0257 7.2956V7.4502L79.987 7.56615L79.7936 7.6821L79.7162 7.7594L79.6775 7.87535L79.6388 7.91401L79.6001 7.95265L79.4067 8.2232L79.368 8.33916L79.3293 8.37781V8.41646L79.4067 8.57106V8.80296L79.2519 8.95756L79.0585 9.11216L78.9424 9.22811L79.1358 9.30541H79.2132V9.42137L79.1745 9.61462L79.1358 9.76922V9.96247L79.0585 10.1171L78.9424 10.1557H78.6329L78.5168 10.1944L78.5942 10.3876L78.4782 10.6968L78.5555 10.8901L78.4782 10.9287L78.4008 11.0447L78.3621 11.0833L78.4008 11.122L78.4395 11.2766L78.3234 11.3152L78.0526 11.5471V11.6631L78.246 11.8177L78.3234 11.8563V11.9336L78.246 11.9723L78.2073 12.0109L78.1686 12.0496L78.1299 12.0882V12.1655L78.246 12.3201L78.5555 12.3974L78.7103 12.4747L78.6329 12.6293L78.5942 12.7066L78.5168 12.7839L78.6329 12.8612L78.7103 12.9385L78.749 13.0545L78.6716 13.1704L78.7103 13.3637L78.7877 13.4796L78.865 13.5569L78.9424 13.5956V13.7116L78.8263 13.6729L78.7103 13.7116L78.6329 13.8275L78.5942 14.0208L78.6329 14.214L78.7103 14.2527H78.7877L78.9037 14.33L78.9424 14.4073L79.0198 14.8324L79.0585 14.9097L79.1358 14.987V15.0643L79.0198 15.103L79.0585 15.5281L78.7877 15.7987L78.5168 15.9919L78.4782 16.2238L78.3234 16.4944L78.4008 16.5717V16.9195L78.3621 16.9968L78.246 17.0355L78.1686 16.8809L78.0526 16.7649L77.9365 16.6876L77.8204 16.649H77.7044L77.5496 16.6103L77.3562 16.3011L77.2401 16.1852L77.1241 16.1465H76.8532L76.6985 16.1079L76.5824 15.9919L76.3116 15.6441L76.2342 15.4895H76.2729L76.3503 15.1803V15.0643V14.9097V14.7938L76.3116 14.7165L76.2342 14.6392L76.1181 14.5232L75.6539 14.2913L75.5378 14.1367L75.1896 13.6729L74.9188 13.4796L74.648 13.4023L73.3713 13.441L73.1778 13.5183L72.6362 13.7889H72.5201L72.3654 13.6729H72.288L72.1719 13.7502L72.0172 14.0208L71.9398 14.1367L71.785 14.1754L70.9339 14.0208L70.8178 13.8662L70.7404 13.6342L70.5857 13.3637L70.4309 13.2477L70.2375 13.2091L70.044 13.2477L69.8506 13.325L69.6572 13.4796L69.5798 13.6342L69.425 13.7889L69.1929 13.8662L68.9608 13.9048L68.8447 13.9821L68.7673 14.1754L68.6513 14.5232L68.4965 14.7551H68.3031L67.9162 14.6005L67.7227 14.6778L67.3745 14.987L67.1811 15.0643L66.9877 14.9484L66.8716 14.6778L66.7942 14.3686L66.6782 14.0981L66.4847 13.8662L66.3299 13.7502L66.2526 13.5956L66.3299 13.2091L66.2913 12.8226L66.1752 12.5907L65.8657 12.1269L65.6722 11.5858L65.5562 11.3925L65.3241 11.2379L64.9372 11.1606H64.7437L64.5503 11.2379L64.3568 11.4312L64.1247 11.895L63.97 12.0882L63.7378 12.1655H63.1575L62.8867 12.2042L62.6159 12.3588L62.345 12.5907L62.0742 12.8999L61.8808 13.2864L61.8421 13.5183L61.8808 14.0594L61.8421 14.2913L61.6873 14.4846L61.61 14.33L61.5326 14.0594L61.4552 13.8662H61.3391L61.2231 13.9435L61.107 14.0208L60.9522 13.9435L60.8749 13.7889L60.7975 13.5956L60.6427 12.7839L60.604 12.4747L60.5267 12.2815L60.2945 12.2042L59.4821 12.0496H59.2113L58.9791 12.1269L58.5149 12.4361L58.2827 12.668L58.1667 12.7453L58.0506 12.7066L57.9732 12.5907L57.8572 12.2042L57.8185 12.0496L57.7024 11.9336L57.4316 11.779L57.3155 11.6631L57.2381 11.5085V11.3539V11.2379L57.1995 11.0833L57.0447 10.9287H56.8513L56.6578 11.0447L56.3483 11.1606L56.1549 11.4312L55.8454 12.0109L55.6132 12.2042L55.4198 12.2815H54.5299L54.3752 12.2428L54.1818 12.1655L53.6401 11.5471L53.4467 11.4312L53.2532 11.4698L53.0598 11.6244L52.9437 11.8563L52.8663 12.1655V12.3588V12.5134V12.668L52.8277 12.8612L52.789 12.9385L52.3634 13.5183L52.286 13.5956L52.1313 13.6342L52.0152 13.5956L51.8604 13.4796L51.7444 13.325L51.667 13.2091L51.9765 12.4747L52.0539 12.0882L51.9378 11.779L51.7831 11.7017H51.2801L50.2742 11.3152H49.9647L49.7713 11.3925L49.5004 11.6631L49.307 11.779H49.1136L48.5719 11.7017L48.185 11.8177L47.9916 11.8563L47.8755 11.7404L47.9142 11.4698L48.069 11.1606L48.1077 10.8901L47.8368 10.8128L47.6047 10.8514L47.4113 10.8128L47.2952 10.6968L47.2178 10.4263V10.0398L47.2565 9.73057L47.1791 9.49867L46.947 9.34407L46.5601 9.26677L45.7477 9.22811L44.8191 9.53732L44.2001 9.42137L42.4591 8.64836L40.4473 8.57106L40.3313 8.49376L40.2152 8.33916L40.1765 8.18456L40.2152 8.02995V7.91401L40.0991 7.8367L37.9713 7.7594L37.7004 7.64345L37.1201 7.10235L36.8493 7.06369L36.2303 7.10235L34.2572 6.71584L33.4834 6.87044L30.427 6.8318L28.8795 6.40664H28.4539L28.0283 6.56125L27.2159 6.9864L24.6237 7.41155H24.4303L23.85 7.25695L21.5673 7.4502L21.3739 7.5275L21.1804 7.72076L20.8323 8.2232L20.6775 8.53241L20.4454 9.49867L20.1745 9.88517L19.13 10.6195L17.7372 11.8563L17.3503 11.895L17.0795 11.6631L16.8086 11.3539L16.4218 11.1993L16.1896 11.1606L15.5319 10.9674H15.3385L14.4486 11.1993L14.3326 11.2766L14.2552 11.3925L14.1391 11.5858V11.7017L14.2165 11.8177L14.4873 12.5134L14.526 12.668L14.4873 12.8999L14.41 12.9385L14.3326 12.8612V12.9385L14.41 13.1318L14.6421 13.2091L14.7968 13.2864L14.9129 13.3637L14.7581 13.6729V13.7502L15.145 14.2913L15.2224 14.4459L15.1063 14.4846L15.029 14.6005V14.7551L15.1063 14.9484L14.9129 15.0257L14.7581 15.1803L14.6421 15.4122L14.6034 15.6054L14.6421 15.9146L14.7968 15.9919H14.9516L15.1063 16.1079L15.6093 17.2287L15.8027 17.4993L16.267 17.8085L16.6926 18.2336L16.8086 18.4269L16.6539 18.5042L16.6152 18.6588L16.7699 18.9293L17.0021 19.3158L17.0795 19.5091L17.1955 20.1275V20.2048L17.1568 20.3208L17.2342 20.3594L17.3503 20.3981L17.4663 20.4754L17.5824 20.63L17.6211 20.7459V20.8619L17.6598 21.0551L17.8145 21.287L18.4336 21.8668L19.2073 22.2919L19.3234 22.4852L19.2073 22.7557L18.9365 22.7944H18.627L18.4336 22.8717L18.2014 22.7171L17.9306 22.7557L17.7372 22.9103L17.6211 23.1809V23.4514L17.7759 23.6447L18.008 23.7606L18.2788 23.7993V23.8766L18.1627 24.1471L18.2788 24.379L18.5496 24.5336L18.7818 24.5723L18.7431 24.9201L18.8204 25.2293L19.0526 25.8091L18.8591 26.1956L18.9365 26.8913L19.0139 27.0846L19.0526 27.1232V27.1619L18.9365 27.3165L18.7818 27.5097L18.2014 27.8189L18.1627 27.9735V28.2441V28.4373L18.124 28.5919L17.9306 29.0557L17.4277 29.249L15.7641 29.2876L15.4545 29.4036L15.2998 29.4809L15.1837 29.5968L15.0677 29.7901L14.9516 30.1766L14.8355 30.3698L14.1004 31.1428L13.8296 31.3747L13.3267 31.7612L12.9011 32.0704L10.7732 34.3508L10.5024 34.776L10.1542 35.0465L9.76733 35.433L8.76143 36.9017L8.37454 37.2882L8.33585 37.4042L8.25847 37.6747L8.21979 37.7907L8.14241 37.868L7.98766 37.9066L7.91028 37.9839L7.8329 38.0999L7.25258 39.1434L7.09782 39.2981L6.98175 39.3367L6.78831 39.3754L6.67225 39.4527L6.59487 39.5686L6.44011 40.0324L5.74372 40.96L5.51159 41.5011L5.66634 42.0036L5.74372 42.1968L5.78241 42.8152L5.8211 42.9698L5.85979 43.0471L5.97585 43.2404L6.1693 43.4336L6.24667 43.5496L6.28536 43.7815L6.40142 45.0956L6.36274 45.2888L6.05323 45.9459L5.93716 46.4484L5.78241 46.7576L5.74372 46.9508L5.78241 47.0281L5.8211 46.9895L5.93716 46.8349L6.09192 46.9508H6.05323L6.36274 47.1441L6.63356 47.4919L6.78831 47.6079L7.21388 47.8398L7.32995 47.9944V48.1103L7.25258 48.3809V48.5741L7.29126 48.6901L7.44602 48.9606L7.4847 49.0379L7.36864 49.2698L7.17519 49.1925L6.98175 48.9993L6.827 48.922L6.71093 48.8833L6.51749 48.6514L6.44011 48.5741H6.32405L6.1306 48.6514L5.78241 48.6128L5.58897 48.6514L5.39553 48.6128L5.16339 48.4582L4.8152 48.0717L4.62175 47.9944L4.42831 48.1876L4.35094 48.4195L4.27355 48.7287L4.23487 49.0379V49.2698L4.08011 49.3858L3.73192 49.4244L3.57717 49.5404L3.38372 50.1201L3.26766 50.352V50.4293V50.6226L3.22897 50.6999L3.15159 50.8158L2.91946 51.0091L2.84208 51.125L2.8034 51.2796V51.3956V51.5115L2.84208 51.9754L2.8034 52.0526L2.72601 52.2073L2.64864 52.3232L2.57126 52.4005L2.49389 52.4778L2.45519 52.6711V52.9803L2.41651 53.2895L2.30044 53.56L2.14569 53.7533L2.02962 53.8306L1.79749 53.9079L1.68142 53.9852L1.60405 54.0625L1.52667 54.2944L1.4493 54.4103L0.830278 54.9128L0.675526 55.1447L0.636835 55.4152L0.752902 55.9563L0.714211 56.1882L0.598145 56.4201V57.425L0.830278 57.4637H0.868969L0.946345 57.3477L1.25585 57.2318L1.56536 57.2704L1.87487 57.425L1.72012 57.8502V58.0821H1.99093H2.06831L2.14569 58.1981V58.3527L2.107 58.5073V58.7005L2.22307 58.9711L2.68733 59.6668L2.7647 59.7054H2.84208L2.91946 59.6668L2.99684 59.6281H3.03552H3.1129L3.30634 59.7054L3.4611 59.7441H3.61585L3.77061 59.6668H3.80929H3.84798H3.88667L4.58306 60.5557L4.69913 60.8263L4.8152 61.2514L4.96995 61.5606L5.00864 61.6379H5.04733L5.16339 61.5606H5.8211L5.97585 61.522L6.1306 61.406L6.28536 61.3674L6.44011 61.4447L6.47881 61.522L6.827 61.7152L7.09782 61.9858L7.21388 62.1404L7.29126 62.3336L7.36864 62.6042L7.32995 62.7588L7.25258 62.8747V63.1066L7.09782 63.2999L7.17519 63.4545L7.52339 63.725L7.71684 63.6477L7.87159 63.5318L7.94896 63.3385L7.87159 63.068L7.94896 62.9134H8.10372L8.25847 62.9907L8.41323 63.1066L8.56798 63.1839L8.72273 63.2226L8.87749 63.1839L9.26438 62.8747L9.38044 62.6428L9.57389 62.0244L9.76733 61.7539L9.96077 61.6766L10.1542 61.7152L10.7732 61.9471L10.928 62.0631L11.3149 62.5269L11.7404 62.9134L11.9339 63.1453L12.0113 63.1839H12.0886H12.166L12.2434 63.1453H12.2821L12.9011 63.4545H13.0945L13.1719 63.4158L13.2106 63.3385L13.2493 63.2612L13.288 63.1839L13.3654 63.1066L13.4814 63.068L13.8296 62.9907L13.9844 63.068L14.5647 63.1453L14.9516 63.2612L15.1837 63.2999L15.8027 63.2612L15.9575 63.3385L16.4218 63.7637L16.4604 63.9569H16.6539L17.5824 63.5704H17.8532L18.008 63.6864L18.4722 63.8023L18.6657 63.8796L19.0139 64.1889L19.1686 64.2275L19.7103 64.4207H19.9037L20.5614 64.0729H21.0257L21.3739 63.7637L21.5673 63.6477H21.7221L22.225 63.7637H22.728L22.9214 63.8023L23.347 64.0729L23.5791 64.2661L23.7339 64.4594L23.8113 64.6913V64.8846L23.85 65.0392L24.0047 65.2324L24.3142 65.4257L25.0493 65.7349L25.1654 65.8508L25.2814 66.0054L25.5909 66.5465L25.8231 66.8944L25.9778 67.0103L27.0611 66.8171L27.6414 66.5465L28.0283 66.16L28.9181 64.6913L29.305 64.4207L33.8316 63.9183L34.4506 63.6864L34.9536 63.6477L35.2244 63.5318L35.3791 63.4931L35.8047 63.5318L36.385 63.3772H37.2749L37.7004 63.1839L37.7778 63.0293L37.9713 62.5655L38.0873 62.4109L38.3195 62.2177L38.4355 62.1017L38.5903 61.7925L38.745 61.3674L38.8224 60.9422V60.633L38.8998 60.1692L38.9772 60.2079H39.1319L39.3254 60.1692L39.6349 60.0146L39.7896 59.976L40.2152 59.9373L40.37 59.8987L41.5306 59.6281L41.8014 59.4735V59.3576L41.8401 59.203L41.9562 59.0484L42.2657 58.8551L42.3044 58.6618L42.3818 58.5459L42.5752 58.6232L42.6913 58.7778L42.8073 58.9324L42.9234 59.087L43.0782 59.1643H43.2716L43.3877 59.087L43.4263 58.8938V58.6232L43.3877 58.3527L43.3103 58.1981V58.0821L43.3877 57.9275H43.4263L43.5811 58.0048H43.6585L43.7359 57.9275L43.7745 57.8116L43.8132 57.7342L43.9293 57.6956L44.2388 57.8502L44.5483 58.1208L44.8578 58.314L45.206 58.2753L45.2834 58.1981H45.3608L45.4381 58.2367H45.5542L45.6703 58.2753L45.709 58.2367V58.1594L45.6703 58.0821V58.0048V57.9275L45.6316 57.8116V57.6956L45.7477 57.6569L45.825 57.6956L46.0185 57.8116L47.0244 58.1981H47.3339L47.6821 58.0048L48.2237 57.3091L48.5719 57.1545L48.7654 57.1931L49.0362 57.425L49.1522 57.4637L49.307 57.3864L49.8486 56.9226L50.0421 56.652H50.429L50.545 56.6134L50.7772 56.4588L50.9706 56.4974L51.0093 56.8453L51.2027 56.9226H52.3634L52.6729 57.0772L53.2532 57.5023L53.408 57.6183L53.6788 58.0434L53.7562 58.1208L53.9496 58.4299L54.3365 58.5846L55.149 58.7005L55.3424 58.7778L55.4972 58.9324L55.5359 59.1643L55.3424 59.7054L55.4585 59.8214H55.6519L55.8067 59.7827L56.0775 59.5508L56.2323 59.5122L56.3096 59.7441L56.3483 60.0146L56.4257 60.1692L56.5804 60.2079L56.8126 60.1692L57.006 60.0533L57.1608 59.9373L57.3155 59.8214L57.7411 59.7827L57.8959 59.8214L57.9732 59.9373L58.0119 60.2079L57.9345 60.4784L57.8185 60.5944L57.7024 60.6717L57.5477 60.8263L57.509 61.0195L57.5477 61.2128L57.6637 61.3287L57.8572 61.2901L58.0119 61.1355L58.0893 60.9422L58.2054 60.7876L58.3988 60.749L58.5536 60.8649L58.6309 61.0582V61.2514L58.4762 61.4447L58.747 61.9858L58.8631 62.1017L59.0565 62.2177H59.1339L59.1726 62.1017V61.8698L59.25 61.5993L59.4434 61.0968L59.6368 61.0195H59.9463L60.7975 61.3674H61.4165L61.7647 61.4447L62.0355 61.5993L62.1129 61.7152L62.1516 61.8312V61.9085L62.1903 61.9858L62.345 62.3336L62.4224 62.7201V62.7974L62.4611 62.8747L62.6159 63.0293L62.848 63.4545L63.1575 63.7637L63.467 64.0342L63.7378 64.1502L64.086 64.0729L64.5116 63.5318L64.7824 63.3772H64.9372L65.0532 63.4158L65.1693 63.5318L65.2854 63.6864L65.3627 63.8796L65.4401 64.3434L65.5175 64.5367L65.6336 64.6526L65.9818 64.7686L66.0591 64.8459L66.0204 65.0392L65.8657 65.2324L65.6722 65.4257L65.5562 65.5803L65.4788 65.8122V65.9668L65.5562 66.0441L65.8657 66.16L65.9818 66.276L66.0204 66.4306L65.9044 66.5852L65.6336 66.933L65.5949 67.3582V67.8606L65.5175 68.3631L65.2854 68.7882L65.0532 69.0974L64.9372 69.4453L65.0532 69.9864L65.1306 70.141L65.2854 70.5275L65.3627 70.6821L65.5175 70.798L65.5949 70.7207L65.6722 70.5662L65.827 70.4888L65.9818 70.5662L66.1365 70.8367L66.4073 71.0299L66.4847 71.1845L66.5234 71.3392L66.6008 71.4938L66.7555 71.5711L66.9103 71.6097L67.065 71.6484L67.1811 71.8416L67.2198 72.0349V72.2281L67.2585 72.4214L67.3745 72.6146L67.4906 72.7306L67.6454 72.8079H67.8001L67.9549 72.7692L68.1096 72.6146L68.2257 72.46L68.2644 72.2668L68.3418 72.0735L68.5352 72.0349H68.7286L68.9221 72.1122L69.0768 72.2668L69.1929 72.4987L69.2703 72.8079V73.1171L69.1542 73.349L68.9221 73.4649L68.8834 73.7741L68.9608 74.4698L68.9221 74.8177L68.806 74.9723L68.6126 75.0496L68.3418 75.0882L68.3031 75.1269V75.2042L68.3418 75.2428L68.6126 75.7839L68.6899 75.8612L68.806 75.7839L68.8834 75.6293L68.9995 75.4747H69.1929L69.309 75.552L69.425 75.7066L69.5024 75.8999V76.0931L69.425 76.2864L69.309 76.4023L69.1929 76.5569L69.1155 77.0594L69.0768 77.2526V77.4072L69.1542 77.5618H69.1929L69.425 77.5232L69.5024 77.5618L69.6572 77.7165L69.7345 77.7938L69.8893 77.8324L70.1988 77.8711L70.3536 77.9483L70.5083 78.103L70.7018 78.4508L70.8565 78.5668L71.166 78.6054L71.4368 78.5668L71.7077 78.6054L71.9785 78.8373L72.0172 78.9146L72.0945 79.1465L72.1332 79.2238H72.2106L72.288 79.1852L72.3654 79.1465L72.4814 79.2238L72.5201 79.3011V79.5717V79.6876L72.5588 79.7649L72.6749 79.9582L72.7136 80.0741V80.306L72.6362 81.1563L72.5975 81.3109L72.5588 81.4269L72.5201 81.5428V81.6974L72.5588 81.852L72.6749 82.1226L72.7136 82.2385L72.5975 82.5477L72.4041 82.5864H72.2493L72.288 82.8956L72.4041 83.0502L72.7909 83.2048V83.2434L72.8296 83.3594L72.8683 83.398L72.9457 83.3594L73.0618 83.2821H73.1391L73.2165 83.3208L73.2552 83.398L73.3713 83.63L73.2939 83.7459L73.7195 84.0938L73.8742 84.287L73.9516 84.2097L74.1063 84.1711L74.2611 84.2097L74.3772 84.287L74.145 84.6735L73.9129 84.9054L73.526 84.9827L72.4427 84.9054L72.288 84.9441L72.1332 85.0214L71.785 85.3306L71.5916 85.3692L71.3981 85.176L71.3595 85.0987V84.8281V84.7122L71.3208 84.5962L71.1273 84.287L70.6244 83.8232L70.5083 83.63V84.0165L70.3922 84.2097L70.1988 84.287H69.928L69.8893 84.3643L69.928 84.6735L69.8506 84.9054L69.7345 85.0214L69.5798 85.06H69.425L69.2703 84.9827L69.1542 84.8281L69.0381 84.5576L68.8834 84.4416L68.7673 84.403L68.4965 84.3643L68.3418 84.287L68.3031 84.2097V84.0938V83.9778L68.3418 83.8619L68.3804 83.7845L68.4191 83.7073V83.63L68.3804 83.5526L68.1483 83.514L67.9549 83.63V83.8232L67.5293 84.4416H67.4132L67.2585 84.2097L67.0263 83.7459L66.9103 83.7073L66.7555 83.9778L66.7168 84.1324L66.7555 84.403V84.5189L66.6782 84.6735L66.6395 84.7122L66.5621 84.6735L66.446 84.7122L66.0978 85.0987L65.9044 85.2146L65.7496 85.0987V84.9827L65.827 84.8668L65.9044 84.7508L65.9818 84.6349L66.0204 84.4803V83.3594L65.9431 83.0502L65.7883 82.8569H65.5949L64.7824 83.3208L64.2795 83.514L63.5831 83.9778L63.3896 84.2484L63.3122 84.6349L63.3896 85.1373L63.5444 85.7944V85.9876L63.5057 86.2195L63.4283 86.4128V86.606L63.5831 86.7993L64.1247 87.3017L64.1634 87.6109L64.0473 87.9201L63.8539 88.268L63.5444 88.6158L63.467 88.8091L63.5057 89.1183L63.6604 89.6981L63.6217 89.9686L63.3896 90.0846L61.7647 90.5097L61.61 90.6257L61.4939 90.8189V91.0508L61.61 91.5146L61.6486 91.7465V92.0171L61.61 92.1717L61.4939 92.2876L61.3391 92.4036L61.0683 92.4422L60.9909 92.5195V92.5968L61.0296 92.7128V92.8674L60.9909 92.9833L60.7588 93.1379L60.1398 93.1766L59.985 93.4085L60.0624 93.6404L59.985 93.7563L59.7142 93.8336L59.5595 93.9496L59.4434 94.0655L59.25 94.3747L59.1726 94.5293L59.25 94.6066L59.4047 94.6839L59.5208 94.7999L59.5981 94.9931V95.1864L59.6368 95.3796L59.7529 95.5729L59.5208 95.6889L59.4821 95.7275L59.4047 95.8434V95.8821L59.4434 95.9207L59.4821 96.3459L59.4434 96.5005L59.25 96.5778L58.6696 96.5391L57.9732 96.3459L57.3155 96.3072L56.8126 96.6937L56.7352 96.8484L56.6578 97.003L56.6191 97.0803L56.7352 97.2349L56.9673 97.1962L57.2381 97.3508L57.4316 97.5827L57.3929 97.8533L57.6637 98.549L57.8572 98.8582L58.0506 99.0128L58.2054 99.0514L58.5149 99.2447L59.3273 99.4379L60.1011 99.8244L61.3391 100.095L61.6873 100.056H61.9968L62.1129 100.018L62.229 99.9017L61.9581 99.7858L61.8808 99.7471L61.8421 99.6698L61.8034 99.5539L61.8421 99.4379L62.1129 99.322V99.1287V98.9355L62.345 98.8968L62.4998 98.9355L62.7319 99.1287L62.9254 99.1674L63.0414 99.2447L63.1962 99.3993L63.3896 99.5152L63.5831 99.4379L63.6217 99.3606L63.6604 99.0901L63.6991 98.9741L63.7765 98.9355L63.8539 98.8968H64.0473L64.1634 98.8195L64.6277 98.433L65.0145 98.3171L65.1693 98.2398L65.2854 98.0852L65.3627 98.0465H65.5949L65.6336 98.0079L65.6722 97.9306L65.7496 97.8533L65.9044 97.7373L66.0978 97.6214H66.2526L66.4073 97.66H66.6008L66.6782 97.6214L66.7555 97.5441L66.8329 97.4668L66.9103 97.3895L66.9877 97.3508L67.1037 97.3895L67.2198 97.4281L67.2972 97.4668L67.9936 97.5441L69.2703 98.0079L69.6959 98.3944L69.8119 98.433L70.0054 98.6263L70.1601 99.0901L70.1988 99.5925L70.0827 99.979L70.1214 100.056V100.134L70.0827 100.211L70.044 100.288L70.1988 100.327L70.3536 100.288L70.5083 100.211L70.6631 100.056V100.018V99.9017L70.7018 99.7471L70.8178 99.4379V99.322L70.8952 99.1287L70.9339 99.0128V98.8968L70.8952 98.3557L70.8565 98.0852L70.7791 97.8533L70.6631 97.6987H70.8565L70.9339 97.5441V97.2735L70.8565 97.0803L70.7018 96.9257L70.6244 97.0416L70.5857 97.2735L70.547 97.4668L70.5083 97.2349L70.4309 97.1962H70.3536L70.2762 97.1576V97.1962L70.2375 97.2349H70.1601L70.1214 97.1962V96.887L69.9667 96.9257L69.928 97.0416V97.1962L69.8893 97.3122H69.7732L69.6572 97.2349L69.5798 97.1189L69.425 96.8097V96.6937L69.5798 96.6551L69.6572 96.5778L69.6959 96.4619L69.7345 96.3459L69.8119 96.3072L69.928 96.1913L70.2375 95.7275L70.3536 95.5729L70.1214 95.8048L69.9667 95.8821L69.8119 95.9207H69.6572L69.5411 95.8821L69.5024 95.8048L69.5798 95.225L69.5411 94.6066L69.6185 94.0655L69.928 93.8336L69.8506 93.679L69.8119 93.6017L69.7732 93.4858V93.2925L69.8119 93.1379L69.9667 92.906L70.0054 92.7901L69.9667 92.7128L69.8506 92.5582L69.8119 92.4809L69.8506 92.3649L69.8893 92.2876H69.928L69.9667 92.4036L70.044 92.4422L70.2375 92.5968H70.2762L70.3149 92.6355L70.3536 92.7128L70.4309 92.8674V92.9447L70.3922 93.0606L70.3536 93.2539L70.3922 93.8723L70.3536 93.9496L70.547 94.0655L70.7018 94.3361L70.8178 94.6839V95.0318L70.9339 94.9158L71.2047 94.8385L71.3595 94.7612L71.3208 94.6453L71.3595 94.6066L71.3981 94.5293L71.5916 94.6066L71.7463 94.5293L71.9011 94.4134L72.0559 94.3361L72.0945 94.2974L72.0172 94.2201L71.8624 94.0655L71.6303 93.9882L71.5142 93.9109L71.4368 93.7177L71.4755 93.4471L71.669 93.2925L71.9398 93.2539H72.1332L72.1719 93.2152L72.2106 93.1379L72.2493 93.0993L72.3267 93.0606L72.4041 93.0993V93.1379V93.2152L72.4427 93.2539L72.6362 93.4085L72.7136 93.4858L72.7522 93.6017L72.7909 93.2539L72.7136 93.1379L72.6362 92.9833L72.5975 92.8287V92.5968L72.6749 92.4036L72.7522 92.3649L72.7909 92.4422L72.7522 92.5968V92.6741L72.8296 92.7901L72.907 92.9447L72.9457 92.6355L72.9844 92.3263L73.0618 92.0557L73.2552 91.9398L73.4873 92.0171L73.9129 92.3649L73.9903 92.3263L74.029 92.2876L74.0676 92.3263L74.145 92.3649L74.1837 92.4036H74.2611V92.3649V92.3263L74.2998 92.249V92.1717L74.3385 91.8238L74.3772 91.6692L74.4545 91.5533L74.5319 91.476L74.6093 91.5146L74.6867 92.249L74.648 92.4422L75.267 91.9398L75.77 91.4373L76.7758 90.0846L77.8978 89.0023L77.9752 88.8091L78.1686 88.3066L78.246 88.1907L78.4008 88.1134L78.5168 87.9201L78.7103 87.5336L79.368 86.606L79.6388 86.0649L79.6775 85.949V85.7944L79.6001 85.6784L79.4067 85.5238L79.368 85.4465L79.484 85.2533L79.987 85.2919L80.1418 85.1373L80.5286 84.6349L80.5673 84.5576L80.6447 84.1711L80.6834 84.0938L80.7221 84.0551L80.7608 84.0165L80.7995 83.9778L80.7608 83.9005L80.6834 83.8232H80.6447L80.5673 83.5526L80.4126 83.2048L80.3739 83.0502L80.4126 82.9342L80.6834 82.5477L80.7995 82.4318H80.8768L81.2637 82.5091L81.3798 82.4704L81.9214 82.0839L82.0375 82.0453L82.1536 82.0839H82.2309L82.4631 81.8907L82.5405 81.852L82.7339 81.8134L83.1208 81.6974L83.6237 81.6201L84.088 81.4655H84.3588L85.0165 81.6201L85.1713 81.7361L85.2486 81.6201L85.3647 81.6974L85.6355 81.7361L85.7516 81.8134L85.8677 81.6974L86.2545 81.4655L86.448 81.4269L86.5641 81.3109L86.8736 80.8085L87.0283 80.6925V80.6539L87.1831 80.3833L87.2604 80.2287L87.2217 80.1514L86.9122 79.9195L86.8349 79.8809L86.7575 79.8036L86.7188 79.6103V79.533L86.6027 79.1852L86.7575 79.2625L86.8736 79.4171L87.0283 79.7649L87.1444 79.8809L87.2604 79.9582L87.3765 79.9195L87.4152 79.8809V79.8422L87.6086 79.5717L87.6473 79.4944L87.7247 79.4557L87.9182 79.3784L87.9955 79.3398L88.0729 79.1852L88.1116 78.9919L88.189 78.9146L88.305 79.0692L87.8795 79.7263L87.7634 79.8422V79.9582L87.6473 80.2674L87.1444 81.1177L87.067 81.3496L87.1057 81.5428L87.1831 81.5815H87.2991H87.4926L87.57 81.6201L87.686 81.7361L87.7634 81.7747L87.9568 81.7361L88.0342 81.5815L88.1116 81.3882L88.2663 81.3109L88.808 81.2723L89.6978 81.6201L90.0847 81.6588L90.4716 81.5815L90.5877 81.5042L90.7811 81.3496L90.8585 81.2723L90.9359 81.1177V81.0404L90.8972 80.9244L90.8585 80.6925L90.9359 80.1128L90.8972 80.0355L90.549 79.5717V79.1852L90.665 78.876L90.8585 78.6827L91.0906 78.6054L91.284 78.4508L91.4388 78.103L91.5162 77.7165L91.4775 77.4459L91.284 77.5618L91.0906 77.6392L90.9359 77.6005L90.8585 77.3686L90.8972 77.1367L91.0132 76.9435L91.284 76.6342L90.9745 76.5956L90.549 76.6342L90.2395 76.5183L90.3168 75.8999L90.3942 75.8226L90.5103 75.5907L90.5877 75.3588L90.4716 75.2428L90.4329 75.2042L90.3942 75.1655L90.3168 75.0882L90.0847 75.0496L90.046 74.9723V74.1993L89.9686 74.0447L89.5818 73.9287L89.3883 73.8128L89.2336 73.6582L89.1562 73.5036L89.1949 73.4263L89.3109 73.1944L89.3496 73.1557L89.427 73.1944V73.3103L89.3883 73.5809L89.4657 73.7355L90.046 74.006L90.1621 74.1606L90.2008 74.2766V74.4312L90.2395 74.7017L90.3168 74.895L90.3942 74.9723L90.5103 75.0109L90.6264 75.1269L90.7811 75.4747V75.7066L90.5103 76.2864L90.665 76.441L90.8198 76.4796L91.2067 76.4023L91.4775 76.441L91.5549 76.5183L91.4775 76.6729L91.2067 77.0981L91.168 77.2526L91.2454 77.3686L91.7096 77.4459L91.787 77.6005V77.7938L91.7483 78.0643L91.5549 78.5281L91.3227 78.9146L91.168 79.3398L91.2067 79.8809L91.284 80.1128L91.4001 80.306L91.4775 80.4993L91.5162 80.7698L91.5549 81.0017L91.6709 81.2723L91.8257 81.5042L91.9418 81.6588L92.0965 81.7361L92.6768 81.852L92.8316 81.968L92.9477 82.4704L93.0637 82.625L93.2959 82.3545H93.3732L93.5667 82.2772H93.6827L93.7601 82.2385L93.9149 82.0453L94.0309 82.0066L94.0696 82.0453L94.2244 82.2772L94.8434 82.625L95.5011 82.5477L96.7391 81.852L96.9713 81.8907L97.2421 81.7747L97.4742 81.5815L97.7063 81.4655L97.5903 81.6974L97.4742 81.8134L97.3195 81.9293L97.1647 82.0839L97.01 82.1999L96.5844 82.2385L96.4296 82.3545L95.7719 82.8956L95.5011 83.2434L95.6945 83.4753L95.4237 83.7459L95.0755 83.9005L94.6886 83.9391L94.3018 83.8619L93.7988 83.5526L92.7929 83.3208H92.5995L92.0578 83.398L91.284 83.2048H90.5103L90.3942 83.1661L89.8526 82.8569L89.5431 82.7796L87.9182 82.8956L87.7634 82.8183L87.5313 82.5477L87.2217 82.3158L87.3765 82.625L88.4598 83.7459L88.5759 83.7845L88.6532 83.8619L88.8467 84.403V83.9778V83.8619L88.8854 83.7459L88.9241 83.6686L89.0401 83.514L89.1949 83.4367H89.3883L89.5818 83.514L90.8585 84.0551L91.2454 84.1324L91.5936 84.0938L91.7483 84.1711L92.1739 84.7508L92.2513 84.9054L92.1739 84.9441H92.0578L91.9418 84.9827L91.4388 85.4465L91.3614 85.4852L90.665 85.6011L90.1621 85.4852L89.9686 85.5238L89.8139 85.6011L89.6204 85.7557L89.6591 85.949L89.7752 86.1036L89.9299 86.1809L90.0847 86.2195L90.665 86.2582L90.7424 86.1809L90.7037 86.0263L90.665 85.8717L90.7037 85.7171L91.4775 86.2968L91.9418 86.5287L92.2126 86.4128L92.4834 86.6447L92.8316 87.1085L92.9477 87.1858L93.0637 87.2244L93.4893 87.379L93.7214 87.4177L93.9536 87.379L94.2244 87.2631L94.1857 87.379L94.147 87.4563L93.9536 87.6109L93.9922 87.6882L94.0309 87.8815L94.0696 87.9974V88.0747L94.1083 88.2293V88.268L94.147 88.3066H94.2631L94.4565 88.4612L96.3136 89.0023L96.7004 88.925L96.7778 88.8864L96.9326 88.7318L97.01 88.6545L97.0873 88.6158L98.248 88.4226L98.5962 88.268L98.7509 88.2293L98.9831 88.268L99.486 88.4226H99.5634H99.7568H99.8342L99.9116 88.4999H99.989H100.105L101.072 88.3453L101.188 88.1907L101.111 87.8042L101.653 88.0747L101.846 88.2293L101.923 88.268H102.001L102.117 88.2293H102.194L102.504 88.0747L102.697 87.7269L102.852 87.3404L103.045 87.1085L102.968 88.0361L102.929 88.1907L102.852 88.3453L103.587 88.2293L103.78 88.3066L103.819 88.4612L103.703 88.6545L103.548 88.8091H103.626H103.664H103.703L103.742 88.8864L103.935 88.6158L104.167 88.6545L104.399 88.8864L104.67 89.2729L104.748 89.3502H105.328L105.521 89.4275H105.599L105.405 89.1569L105.483 89.0023L105.715 88.925H105.947V88.8091L105.715 88.6545V88.4612L105.87 88.268L106.063 88.0747L106.295 87.9974L106.45 88.152L106.721 88.6931L106.759 88.8864L106.682 89.041L106.566 89.1956V89.3502L106.682 89.814V89.8913L106.605 90.0072L106.566 90.1232V90.2392L106.682 90.2778L106.643 90.3551L106.566 90.5097L106.411 90.7416L106.527 90.8189L106.605 90.7803L106.682 90.7029L106.798 90.6643L107.03 90.6257L107.572 90.7803L107.727 90.8576L107.881 91.0122L107.727 91.0895L107.417 91.1668L107.262 91.2441L107.108 91.2054L107.069 91.4373L107.108 91.7465V91.9011L106.914 91.9398H106.798L106.759 91.8625L106.721 91.7852L106.643 91.7079L106.527 91.6692L106.643 91.5533H106.566L106.45 91.5919L106.257 91.7079L106.024 91.9784L105.792 92.0557H105.715L105.599 92.0171L105.405 91.9011L105.328 91.8625L105.173 91.9398L104.786 92.2103L104.632 92.249L104.361 92.5582L104.322 92.6355L103.974 92.7901L103.316 93.2152L103.007 93.2539L102.697 93.0606L102.542 92.8674L102.465 92.7901L102.388 92.8674V92.9833L102.465 93.0606L102.542 93.0993L102.581 93.1379L102.542 93.2925L102.426 93.3698L100.337 94.3361L99.7182 94.7612L99.4473 95.0704L99.37 95.1477L99.3313 95.225L99.2926 95.341V95.4569L99.3313 95.5729V95.6889L99.2152 95.7275H99.0991L98.9057 95.6502H98.8283L98.6736 95.6889L98.5962 95.7661L98.5188 95.8434L98.4414 95.9207L98.3254 96.0367L98.1706 96.114L97.9772 96.1526L97.745 96.1913L97.5903 96.2299L96.507 97.0803L96.2362 97.3895L96.1201 97.7373L96.1588 97.9306L96.4296 98.6263L96.6231 98.6649L96.9326 98.8195L97.126 98.8968H97.7837L97.9385 98.8195L98.248 98.4717L98.4027 98.3557L98.5962 98.3171L99.989 98.433L100.376 98.5876L100.724 98.8195L101.304 99.322L101.382 99.3606L101.537 99.4379L101.614 99.4766L101.73 99.6698L101.807 99.7858L102.039 99.9404L102.349 100.327L102.504 100.443L102.929 100.559L103.123 100.675L103.2 100.868L103.277 100.984L103.471 100.945L103.78 100.752L104.129 100.636L104.516 100.597L104.67 100.675L105.173 101.139L105.831 101.525L106.063 101.834L106.218 102.375L106.257 102.723L106.295 102.839L106.45 103.148L106.489 103.226L106.527 103.419L106.643 103.921V104.231L106.605 104.501L106.566 104.733L106.45 104.888L106.102 105.004L105.986 105.158L105.908 105.39L105.87 105.661L105.831 105.738L105.792 105.777L105.715 105.815L105.792 105.97L105.831 106.163L105.87 106.511L105.947 106.781V106.936L105.908 107.129L105.831 107.284L105.715 107.439L105.637 107.593V107.786L105.715 107.864L106.024 107.941L106.14 107.98L105.947 108.057H105.483V108.173L105.405 108.212H105.289H105.096L105.018 108.25L104.825 108.405L104.748 108.443L104.477 108.521L104.438 108.482V108.637L104.516 108.791L105.483 109.487L105.599 109.603L105.754 109.719H105.947L106.14 109.68H106.295L106.411 109.758L106.682 110.105L106.759 110.221L106.798 110.453L106.914 110.569L107.611 110.878L107.804 110.917H108.423H108.539L108.733 110.878H108.849L109.429 111.11L109.622 111.149L109.816 111.11L110.822 110.647L111.015 110.608L111.131 110.569L111.441 110.337L111.557 110.221L111.673 109.989L111.75 109.796L111.866 109.642L112.292 109.564L112.408 109.487L112.601 109.178L112.64 109.139V109.062L112.679 109.023V108.985H112.795H112.911L113.104 109.023L113.182 108.985L113.259 108.83L113.607 107.902L113.917 107.361L113.994 107.245L114.033 107.168L114.42 106.666H114.458V106.704V106.743L114.691 106.511L115 106.395L115.735 106.24L116.083 106.086L116.741 105.661L117.089 105.545L117.747 105.661L117.902 105.583L118.018 105.506L118.327 105.583L118.482 105.545L118.559 105.467L118.598 105.39L118.676 105.313L118.792 105.235H118.869H119.178L119.372 105.313L119.488 105.467L119.565 105.661L119.643 105.815L120.03 105.854L120.3 105.467L120.494 104.888L120.726 104.462L120.881 104.385L121.268 104.308L121.422 104.153L121.616 103.728L121.771 103.612L122.003 103.767L122.08 103.728L122.157 103.651L122.196 103.612L122.622 103.96L122.583 103.574V103.38L122.699 103.226L122.854 103.148L123.163 103.187L123.279 103.11V103.032L123.009 102.916L122.97 102.839L122.931 102.723L122.97 102.607L123.009 102.491L123.047 102.337L123.125 102.221L123.628 101.834L123.976 101.68L124.363 101.602H124.75L125.137 101.68L125.794 101.95L126.413 102.337L126.529 102.453L126.8 102.801L126.839 102.916L126.916 103.226L127.11 103.303L127.767 103.187L128.464 103.226L128.618 103.071L128.773 102.762L128.967 102.569L129.276 102.685V102.607L129.779 102.916L130.592 103.11L130.785 103.071L130.824 102.994L130.901 102.762L130.94 102.685L131.017 102.607L131.133 102.569L131.946 102.53L132.603 102.298L132.719 102.182L132.758 101.989L132.642 101.796L132.371 101.525L132.294 101.254V100.984L132.371 100.211L132.449 99.9404L132.565 99.6698L132.681 99.5152L132.758 99.4766H132.952L133.029 99.4379L133.068 99.322L133.029 99.2447L132.99 99.206L132.952 99.1287L132.99 98.8582L133.106 98.7036L133.261 98.6649L133.493 98.7036L133.764 98.8582L133.88 98.8968H133.996L134.306 98.8195L134.383 98.6649L134.306 98.3557L134.151 97.8919L133.996 97.7373L133.841 97.66L133.687 97.6987L133.532 97.8533L133.377 97.8919L133.222 97.7373L132.99 97.4281L132.797 97.3895L132.255 97.5054L132.062 97.4668L131.791 97.2735L131.597 97.2349L131.481 97.2735L131.404 97.3508L131.327 97.4281H131.211L131.288 97.1962L131.211 97.0416L131.056 97.003L130.901 97.1189L130.785 97.2349H129.74L129.547 97.3122L129.354 97.5054L129.083 97.66L129.044 97.6987L128.928 98.0852L128.657 98.433L128.309 98.5103L127.961 98.3944L127.264 97.9692L127.11 97.8533L127.032 97.6987L127.071 97.4668L127.148 97.2735L127.11 97.1576L126.877 97.1189L126.723 97.1962L126.607 97.3895L126.529 97.6214L126.491 97.8533L126.452 97.9306L126.297 98.1238L126.258 98.1625L126.142 98.2011L126.104 98.2784V98.3944L126.065 98.5103L125.794 98.7809L125.601 98.8968L123.976 99.3606L123.628 99.322L122.274 98.3557L119.604 94.452L118.792 92.8674L118.289 91.5533L118.211 91.3987L118.095 91.2441L118.018 91.0895L117.67 89.4661L117.592 89.2729L117.554 89.0796L117.515 88.2293L117.437 87.9974V87.8815V87.7269L117.476 87.6109L117.631 87.379L117.67 87.3017L118.057 87.1085L118.095 86.9925V86.8379L118.173 86.722L118.289 86.6447L118.327 86.722V86.7993L118.405 86.8766L118.521 86.9152H118.598L119.449 86.6833L119.836 86.4128L120.146 86.0649L120.687 85.2146L120.997 84.9054L121.074 84.7508L121.113 84.5576L121.074 84.4416L121.036 84.3257L120.997 84.1711L120.919 83.9778L120.765 83.7459L120.687 83.4753L120.881 83.2048L120.919 83.4367L120.997 83.6686L121.113 83.8619L121.268 83.9391L121.384 84.0551L121.461 84.0938L121.538 84.1324H121.693L121.771 84.1711L121.577 84.6735L121.5 85.0214L121.577 85.3306L121.809 85.5238H122.003L122.157 85.3692L122.312 85.2146L122.274 85.5625L122.506 85.7557L122.157 86.1036L121.887 86.5674L121.809 86.7993L121.577 87.0312L121.306 87.5336L120.842 87.8042L119.875 88.0747L119.914 88.1907L119.952 88.2293L119.643 88.4226L119.372 88.7704L119.333 88.8864L119.488 88.925L119.836 88.7704L120.068 88.6158L120.378 88.5385L120.61 88.3453L120.997 88.2293L121.229 87.9974L121.461 87.6882L121.964 86.6833L122.157 86.4514L123.047 85.0214L123.202 84.8668L123.512 84.6349L123.666 84.4803L123.937 84.0938L124.092 83.9391L124.285 83.8232L125.369 83.2821L125.678 83.0115L126.413 82.1612L126.684 81.9293L127.187 81.6588L127.883 81.2723H128.116L129.392 81.0404L130.05 81.1177L130.398 81.0404H130.553L130.746 81.1177L130.785 81.1563L130.824 81.2336L130.901 81.3882L130.94 81.4269L131.056 81.5042V81.5815V81.6588L131.017 81.6974L131.056 81.8134V81.7747V81.6974L131.133 81.6588L131.211 81.6201L131.249 81.6588V81.852H131.327L131.365 81.4655L131.559 81.1563L132.178 80.4993L132.449 80.306L132.758 80.1514L133.222 80.0741L133.609 79.8422H134.228L134.306 79.8036L134.383 79.7263L134.499 79.649L134.654 79.6103L134.925 79.6876H135.079L135.234 79.6103L135.35 79.6876L135.66 79.8036L135.815 79.8809L136.163 80.2674L136.24 80.306V80.5379L136.124 81.0017L135.969 81.3882L135.776 81.3109H135.698V81.4269L135.931 81.5042L136.163 81.2723L136.356 80.9244L136.434 80.5766L136.511 80.2674L136.666 79.9582L136.782 79.649L136.704 79.3398L137.014 79.3011L137.517 78.8373L137.826 78.7214L137.942 78.6441L138.252 78.3735L138.368 78.3349L138.523 78.2962L139.606 77.8711L140.032 77.5232L140.186 77.4846L140.496 77.5618L140.805 77.7165L140.999 77.987L140.96 78.3349L141.154 78.2576L141.308 78.0257L141.54 77.5618L142.508 76.1704L143.088 75.552L143.397 75.4361L144.597 75.668H144.984L145.99 75.3201L146.802 75.4747L146.918 75.3974L147.15 75.4747L147.498 75.6293L147.576 75.5907L147.808 75.4361L147.847 75.3974L147.885 75.3588L148.195 75.5907L148.427 75.668V75.8999L148.234 76.325L148.543 76.1704L149.046 75.4747L149.239 75.2815L149.085 74.9336L149.046 74.5085L149.123 74.122L149.278 73.8128L149.433 73.6968L149.626 73.5809L149.82 73.4649L149.936 73.2717L149.975 73.0011L149.897 72.8465L149.742 72.7692H149.588L149.239 72.8465L149.085 72.8079L148.969 72.6533L149.007 72.4214L149.123 72.1895L149.394 71.803L149.626 71.3778L149.665 70.9913L149.626 70.025L149.742 69.5612L149.897 69.0974L150.129 68.7109L150.439 68.479L152.373 68.2085L152.605 68.0925L152.76 67.9379L153.108 67.5514L153.263 67.4355L153.418 67.3968L153.727 67.5128L153.921 67.4741L153.998 67.2422L154.076 66.6625L154.23 66.0441L154.462 65.503L154.772 65.1165L155.197 64.9619L156.706 65.0005L157.209 65.3484L157.403 65.387H157.596L157.983 65.2711L159.376 65.2324L159.569 65.2711L159.879 65.4643L160.034 65.5416H160.227L160.614 65.4257L160.807 65.503L161.078 65.5416L161.62 65.4257L161.891 65.4643L162.819 65.6962L163.129 65.6189L163.361 65.387L163.516 65.0392L163.593 64.6526V64.5754L163.554 64.3821V64.3048L163.593 64.1889L163.67 63.9956L163.709 63.8796L163.748 63.6864V63.5318L163.632 63.2226L163.554 63.068L163.477 62.9907L163.438 62.9134L163.516 62.7974L163.632 62.7201L164.135 62.6428H164.173L164.212 62.6042V62.4882L164.057 62.0631L164.096 61.7539L164.212 61.4833L164.676 60.633L164.87 60.4398L165.295 60.0919L165.45 59.8987L165.566 59.6281L165.605 59.3576L165.45 59.1257L165.257 59.087L164.754 59.2803L164.56 59.3189L163.902 58.9324L164.521 58.3913L164.676 58.1981L164.87 58.0048L164.792 57.8888L164.715 57.6956L164.638 57.3477L164.367 56.6907L164.289 56.6134L164.212 56.4974L164.173 56.2655H164.212H164.289L164.367 56.2269L164.405 56.1109V56.0723L164.367 56.0336L164.328 55.9563V55.8404L164.251 55.4925L164.057 55.2606L163.825 55.106L162.703 54.9514L162.51 55.0287L162.161 55.0674L162.239 54.7195L162.819 52.8257L162.897 52.7097L163.129 52.6324L163.206 52.5165L163.283 52.3619L163.361 52.2073L163.554 52.014L163.748 51.898H163.98L164.986 52.2845L165.373 52.2459L165.759 51.9367L165.914 51.7048L166.03 51.4342L165.992 51.1637L165.837 50.9318L165.605 50.8931L165.45 51.0477L165.295 51.241L165.102 51.3569L164.986 51.3183L164.831 51.0864L164.754 51.0091L164.638 50.9704L164.328 51.0091L163.593 50.8545L163.361 50.7772L163.245 50.6226L163.167 50.4293L163.051 50.1588L162.897 50.0042L162.703 49.8882L162.587 49.695L162.664 48.9993L162.819 48.8833L163.283 48.922L164.057 48.6514H164.328L164.599 48.6901H164.754L164.87 48.6128L164.908 48.4582L164.87 47.9944L164.908 47.8011L165.102 47.4533L165.373 47.2214L165.914 46.8349L166.108 46.6416L166.417 46.1392L166.611 45.9846L166.843 45.8686L166.92 45.7527V45.2502L167.036 44.7864L167.075 44.5158L166.92 44.168Z" fill="#FFBE2E" stroke="#3E3B3B" stroke-width="2" mask="url(#path-1-inside-1_1_22555)"/>
</svg>
