<svg width="694" height="682" viewBox="0 0 694 682" fill="none" xmlns="http://www.w3.org/2000/svg">
<path d="M483.651 80.7007C581.296 182.757 608.382 258.481 608.382 258.481C608.382 258.481 659.214 361.511 676.738 497.637C694.371 633.92 658.884 679.969 658.884 679.969L47 681.681C47 681.681 -48.3313 306.282 51.5186 129.395C151.479 -47.4917 385.895 -21.3554 483.651 80.7007Z" fill="#FFEECC"/>
<path d="M11.9217 681.681H692.345C695.979 681.681 698.953 676.86 698.953 670.968C698.953 665.075 695.979 660.254 692.345 660.254H11.9217C8.28724 660.254 5.31356 665.075 5.31356 670.968C5.31356 676.86 8.28724 681.681 11.9217 681.681Z" fill="#5C8097"/>
<path d="M424.988 245.938L278.845 217.531L129.806 217.136L97.0865 533.365L245.398 540.797L392.003 564.738L540.692 566.733L573.067 253.83L424.988 245.938Z" fill="#BDD0FB"/>
<path d="M248.982 537.068L108.069 529.993L139.107 230.005L280.712 230.404L248.982 537.068Z" fill="#91B3FA"/>
<path d="M388.605 556.648L249.31 533.917L281.039 227.252L419.896 254.224L388.605 556.648Z" fill="#7D97F4"/>
<path d="M529.876 558.566L388.605 556.648L419.896 254.224L560.588 261.733L529.876 558.566Z" fill="#91B3FA"/>
<path opacity="0.47" d="M246.129 533.671L249.302 534L281.04 227.252L277.541 230.076L246.129 533.671Z" fill="white"/>
<path d="M127.659 340.665C137.173 365.986 160.758 389.569 182.095 406.168C191.806 413.722 202.019 420.995 213.678 424.913C225.338 428.831 238.775 429.019 249.408 422.825C263.229 414.772 269.786 398.146 284.194 390.947C291.541 387.276 299.678 389.684 307.34 385.899C314.882 382.172 321.035 375.29 322.988 367C324.419 360.923 323.839 354.556 324.674 348.368C327.883 324.597 350.48 308.591 360.662 286.876C366.789 273.811 368.201 259.103 369.528 244.733C376.838 246.691 384.332 247.965 391.877 248.535C385.035 268.862 378.101 289.389 366.879 307.662C361.211 316.89 354.457 325.534 350.189 335.488C348.429 339.593 347.097 344.052 347.659 348.483C348.221 352.914 351.067 357.284 355.356 358.513C362.967 360.694 371.841 353.356 378.217 350.122C386.403 345.968 395.05 342.619 404.138 341.114C412.951 339.654 422.081 338.898 430.115 334.987C442.562 328.928 450.373 316.321 456.437 303.867C463.85 288.643 469.688 272.652 473.828 256.233C488.115 257.691 497.779 258.896 511.21 259.097C489.943 282.925 473.297 310.104 464.129 340.712C462.355 346.633 460.819 352.793 461.505 358.934C463.535 377.144 492.824 392.445 504.918 404.586C518.452 418.172 530.68 433.307 541.175 449.386L538.882 471.551C521.742 448.996 501.023 429.643 477.441 413.983C468.784 408.234 451.887 392.111 441.186 393.355C435.808 393.98 430.509 395.297 425.465 397.267C423.11 398.185 420.761 399.279 418.941 401.033C416.748 403.149 415.507 406.038 414.321 408.848C412.587 412.955 410.837 417.118 410.19 421.529C409.886 423.599 409.83 425.697 409.868 427.79C410.039 437.143 412.122 446.456 415.953 454.986C417.96 459.457 422.597 464.351 425.486 468.478C434.057 480.719 444.491 491.833 450.754 505.403C455.081 514.776 457.255 524.905 460.559 534.642C463.408 542.674 468.543 549.796 471.744 557.723C467.004 557.692 462.263 557.659 457.52 557.627C452.748 545.062 446.211 533.171 438.162 522.412C433.617 516.338 429.842 510.555 424.342 505.081C413.202 493.997 401.624 482.533 387.25 475.726C371.983 468.497 358.183 477.152 343.668 483.113C322.677 491.736 300.585 494.804 278.022 494.012C268.671 493.684 262.945 498.885 253.915 500.593C244.17 502.435 235.527 499.461 228.065 493.058C200.769 469.63 175.09 443.798 154.326 414.302C143.657 399.148 122.771 379.419 125.246 360.877C127.131 346.775 126.679 341.192 127.659 340.665Z" fill="url(#paint0_linear_3780_145)"/>
<path d="M177.43 486.138C176.946 486.088 176.477 485.872 176.115 485.492C175.304 484.643 175.332 483.294 176.182 482.481C177.656 481.069 179.133 479.668 180.614 478.281C181.47 477.477 182.815 477.521 183.619 478.38C184.422 479.239 184.377 480.586 183.519 481.39C182.05 482.766 180.586 484.157 179.122 485.559C178.65 486.007 178.03 486.2 177.43 486.138ZM188.572 475.786C188.064 475.733 187.572 475.498 187.205 475.087C186.423 474.21 186.498 472.865 187.374 472.081C188.948 470.674 190.496 469.317 191.979 468.045C192.872 467.281 194.215 467.382 194.979 468.275C195.743 469.168 195.639 470.513 194.749 471.276C193.287 472.529 191.761 473.868 190.209 475.256C189.744 475.672 189.146 475.845 188.572 475.786ZM397.461 488.007C396.308 487.888 395.459 486.862 395.563 485.702C395.667 484.53 396.701 483.665 397.869 483.769C399.089 483.877 400.322 483.968 401.534 484.041C402.158 483.953 402.777 483.858 403.391 483.761C404.554 483.578 405.639 484.373 405.821 485.534C406.003 486.694 405.21 487.785 404.051 487.967C403.346 488.079 402.636 488.185 401.92 488.286L401.712 488.316L401.502 488.303C400.176 488.228 398.828 488.128 397.492 488.01C397.483 488.009 397.472 488.008 397.461 488.007ZM388.424 486.882C388.385 486.878 388.347 486.874 388.308 486.867C386.309 486.549 384.271 486.18 382.251 485.772C381.099 485.54 380.355 484.416 380.587 483.263C380.819 482.111 381.942 481.369 383.094 481.598C385.055 481.995 387.036 482.353 388.976 482.661C390.135 482.845 390.926 483.938 390.741 485.099C390.563 486.22 389.54 486.998 388.424 486.882ZM200.173 465.968C199.622 465.911 199.095 465.64 198.725 465.172C197.997 464.249 198.152 462.91 199.073 462.181C200.71 460.884 202.352 459.624 203.95 458.438C204.895 457.738 206.226 457.938 206.925 458.883C207.624 459.827 207.425 461.16 206.481 461.86C204.917 463.018 203.314 464.249 201.713 465.519C201.259 465.878 200.706 466.023 200.173 465.968ZM373.582 483.737C373.474 483.726 373.367 483.706 373.259 483.678C371.316 483.167 369.326 482.608 367.346 482.015C366.221 481.678 365.581 480.492 365.918 479.365C366.254 478.24 367.449 477.599 368.565 477.936C370.501 478.515 372.441 479.062 374.338 479.559C375.474 479.857 376.153 481.022 375.856 482.158C375.585 483.188 374.608 483.843 373.582 483.737ZM412.438 486.247C411.56 486.156 410.798 485.52 410.586 484.612C410.321 483.466 411.032 482.323 412.177 482.055C414.13 481.6 416.067 481.094 417.937 480.55C419.068 480.222 420.245 480.872 420.572 482C420.899 483.129 420.249 484.311 419.122 484.639C417.179 485.204 415.166 485.73 413.139 486.202C412.903 486.257 412.667 486.271 412.438 486.247ZM359.072 479.28C358.91 479.263 358.749 479.228 358.589 479.171C356.707 478.514 354.771 477.809 352.834 477.075C351.736 476.659 351.183 475.431 351.597 474.33C352.013 473.231 353.236 472.675 354.339 473.091C356.242 473.813 358.142 474.505 359.989 475.149C361.099 475.537 361.682 476.751 361.297 477.86C360.965 478.813 360.03 479.379 359.072 479.28ZM344.904 473.829C344.702 473.808 344.5 473.758 344.305 473.676C342.489 472.918 340.598 472.109 338.68 471.267C337.605 470.795 337.116 469.539 337.588 468.462C338.059 467.386 339.314 466.895 340.39 467.366C342.283 468.198 344.15 468.998 345.941 469.744C347.026 470.197 347.537 471.442 347.087 472.529C346.714 473.417 345.813 473.923 344.904 473.829ZM426.931 481.792C426.165 481.712 425.467 481.216 425.168 480.447C424.741 479.352 425.282 478.117 426.377 477.689C428.235 476.964 430.07 476.179 431.827 475.356C432.89 474.857 434.156 475.316 434.653 476.382C435.15 477.448 434.69 478.715 433.627 479.212C431.784 480.074 429.865 480.897 427.921 481.655C427.594 481.784 427.257 481.825 426.931 481.792ZM212.477 457.055C211.861 456.991 211.277 456.659 210.913 456.099C210.273 455.115 210.551 453.794 211.535 453.153C213.294 452.005 215.063 450.912 216.792 449.9C217.806 449.307 219.108 449.649 219.7 450.663C220.291 451.679 219.951 452.982 218.936 453.574C217.267 454.551 215.557 455.609 213.856 456.719C213.431 456.997 212.945 457.103 212.477 457.055ZM331.008 467.676C330.779 467.652 330.551 467.591 330.332 467.49C328.475 466.627 326.635 465.759 324.813 464.888C323.752 464.383 323.303 463.113 323.808 462.05C324.314 460.988 325.583 460.537 326.642 461.045C328.452 461.908 330.278 462.771 332.122 463.626C333.187 464.121 333.649 465.387 333.155 466.454C332.764 467.3 331.886 467.767 331.008 467.676ZM440.541 475.121C439.9 475.054 439.295 474.699 438.938 474.103C438.331 473.096 438.655 471.788 439.661 471.18C441.35 470.16 443.013 469.07 444.604 467.938C445.562 467.257 446.888 467.482 447.569 468.441C448.249 469.4 448.024 470.728 447.066 471.41C445.389 472.601 443.637 473.751 441.857 474.825C441.446 475.074 440.983 475.167 440.541 475.121ZM317.297 461.118C317.056 461.093 316.816 461.026 316.584 460.913L311.121 458.244C310.064 457.729 309.627 456.454 310.142 455.397C310.657 454.339 311.932 453.903 312.987 454.416L318.448 457.085C319.504 457.6 319.942 458.875 319.427 459.931C319.025 460.758 318.159 461.207 317.297 461.118ZM225.697 449.59C224.983 449.516 224.322 449.081 223.992 448.383C223.491 447.32 223.944 446.05 225.006 445.548C226.911 444.647 228.833 443.813 230.717 443.074C231.808 442.644 233.043 443.183 233.472 444.279C233.901 445.374 233.362 446.609 232.268 447.037C230.473 447.742 228.641 448.536 226.823 449.397C226.458 449.568 226.07 449.628 225.697 449.59ZM303.629 454.471C303.393 454.447 303.156 454.382 302.931 454.274C301.083 453.388 299.257 452.524 297.457 451.689C296.392 451.195 295.929 449.929 296.424 448.863C296.918 447.796 298.179 447.331 299.247 447.828C301.064 448.671 302.904 449.541 304.767 450.435C305.826 450.943 306.275 452.214 305.767 453.274C305.368 454.105 304.498 454.561 303.629 454.471ZM239.929 444.337C239.073 444.248 238.321 443.64 238.092 442.757C237.795 441.619 238.474 440.456 239.61 440.158C241.643 439.626 243.701 439.181 245.727 438.835C246.888 438.639 247.982 439.418 248.179 440.577C248.375 441.736 247.598 442.835 246.44 443.034C244.536 443.358 242.601 443.777 240.687 444.28C240.432 444.345 240.176 444.362 239.929 444.337ZM452.721 466.102C452.215 466.05 451.726 465.817 451.359 465.409C450.573 464.536 450.645 463.19 451.518 462.403C452.974 461.091 454.398 459.705 455.75 458.282C456.558 457.429 457.904 457.396 458.755 458.207C459.606 459.018 459.64 460.365 458.829 461.216C457.401 462.718 455.898 464.183 454.361 465.567C453.897 465.985 453.299 466.162 452.721 466.102ZM289.806 448.159C289.601 448.137 289.393 448.085 289.193 448C287.254 447.175 285.382 446.415 283.63 445.738C282.535 445.315 281.987 444.084 282.41 442.986C282.833 441.89 284.061 441.339 285.159 441.764C286.956 442.456 288.873 443.236 290.857 444.08C291.938 444.54 292.441 445.79 291.982 446.872C291.607 447.753 290.709 448.252 289.806 448.159ZM275.563 442.9C275.433 442.887 275.303 442.861 275.174 442.824C273.185 442.232 271.263 441.738 269.456 441.352C268.308 441.108 267.574 439.978 267.818 438.828C268.063 437.679 269.19 436.941 270.342 437.188C272.257 437.596 274.291 438.119 276.388 438.742C277.514 439.077 278.155 440.262 277.82 441.389C277.521 442.385 276.56 443.004 275.563 442.9ZM254.594 440.581C253.651 440.484 252.858 439.759 252.711 438.777C252.538 437.613 253.34 436.531 254.502 436.358C256.534 436.054 258.699 435.932 260.931 435.996C262.111 436.025 263.029 437.009 262.997 438.184C262.965 439.359 261.985 440.284 260.811 440.252C258.825 440.196 256.913 440.304 255.125 440.569C254.947 440.596 254.769 440.6 254.594 440.581ZM462.96 454.914C462.587 454.875 462.219 454.737 461.899 454.494C460.963 453.786 460.777 452.451 461.485 451.512C462.659 449.958 463.8 448.324 464.878 446.656C465.517 445.67 466.834 445.387 467.819 446.026C468.805 446.666 469.087 447.982 468.45 448.971C467.317 450.724 466.117 452.443 464.882 454.078C464.41 454.696 463.674 454.988 462.96 454.914ZM470.99 442.033C470.736 442.006 470.482 441.933 470.24 441.809C469.195 441.273 468.782 439.992 469.316 438.944C470.203 437.211 471.056 435.401 471.857 433.565C472.327 432.486 473.579 431.992 474.656 432.463C475.732 432.933 476.224 434.188 475.754 435.264C474.919 437.181 474.027 439.071 473.101 440.882C472.69 441.69 471.838 442.12 470.99 442.033ZM476.869 428.022C476.714 428.006 476.558 427.972 476.403 427.919C475.291 427.542 474.696 426.333 475.073 425.219C475.701 423.366 476.296 421.447 476.846 419.511C477.167 418.38 478.339 417.72 479.472 418.043C480.601 418.364 481.258 419.541 480.937 420.672C480.369 422.677 479.751 424.665 479.099 426.585C478.776 427.547 477.834 428.122 476.869 428.022ZM480.867 413.352C480.791 413.345 480.716 413.333 480.639 413.316C479.491 413.072 478.757 411.939 479.003 410.79C479.41 408.88 479.792 406.898 480.137 404.896C480.337 403.736 481.449 402.959 482.596 403.159C483.752 403.359 484.53 404.461 484.33 405.619C483.975 407.675 483.582 409.714 483.164 411.678C482.933 412.752 481.934 413.463 480.867 413.352ZM483.331 398.342C483.318 398.341 483.306 398.339 483.293 398.338C482.127 398.197 481.296 397.137 481.437 395.97C481.58 394.781 481.711 393.607 481.83 392.45C481.917 391.617 481.996 390.793 482.071 389.98C482.18 388.809 483.217 387.947 484.384 388.055C484.392 388.056 484.401 388.057 484.408 388.058C485.565 388.178 486.413 389.209 486.306 390.372C486.229 391.202 486.148 392.041 486.06 392.889C485.937 394.071 485.805 395.269 485.657 396.481C485.522 397.634 484.483 398.461 483.331 398.342Z" fill="white"/>
<path d="M170.663 501.69C173.451 501.979 175.945 499.949 176.234 497.158C176.523 494.367 174.497 491.87 171.709 491.581C168.92 491.293 166.426 493.322 166.137 496.113C165.848 498.905 167.875 501.402 170.663 501.69Z" fill="white"/>
<path d="M173.851 464.517C184.386 465.607 193.811 457.94 194.903 447.392C195.994 436.844 188.338 427.41 177.803 426.32C167.267 425.23 157.842 432.897 156.75 443.445C155.659 453.993 163.315 463.427 173.851 464.517Z" fill="url(#paint1_linear_3780_145)"/>
<path d="M195.028 445.836L175.986 443.865L156.91 441.892C156.91 441.892 154.267 452.6 168.289 483.396C168.901 484.74 170.166 485.77 171.633 485.922C173.1 486.074 174.558 485.272 175.43 484.082C195.459 456.807 195.028 445.836 195.028 445.836Z" fill="url(#paint2_linear_3780_145)"/>
<path d="M171.904 486.711L171.895 486.792L171.548 486.756C169.887 486.585 168.43 485.523 167.744 484.014C159.549 466.012 157.013 454.909 156.327 448.77C156.098 447.349 156.023 445.978 156.1 444.581C156.132 443.15 156.282 442.562 156.299 442.5L156.381 442.201C158.211 432.022 167.566 424.92 177.842 425.983C188.252 427.061 196.019 436.049 195.532 446.45C195.532 446.587 195.525 446.934 195.455 447.506L195.448 447.576C195.254 449.452 194.797 451.283 194.09 453.018C192.118 458.878 187.527 469.141 176.017 484.815C175.026 486.16 173.466 486.873 171.904 486.711ZM157.304 443.198C157.299 443.197 157.228 443.962 157.215 444.582L157.214 444.615C157.141 445.937 157.211 447.241 157.43 448.589L157.434 448.62C158.108 454.677 160.62 465.652 168.76 483.532C169.285 484.683 170.57 485.499 171.839 485.63L171.956 486.203L172.014 485.648C172.638 485.713 174.552 485.224 175.308 484.195C186.742 468.621 191.577 458.473 193.441 452.683L193.444 452.649C194.244 451.021 194.487 449.269 194.671 447.492L194.618 447.408L194.618 447.403C194.676 446.85 194.553 446.535 194.553 446.456L194.486 446.417C194.954 436.6 187.588 428.11 177.759 427.093C167.95 426.078 159.017 432.921 157.438 442.711L157.34 443.202L157.304 443.198V443.198Z" fill="url(#paint3_linear_3780_145)"/>
<path d="M166.634 432.801C166.582 432.795 166.532 432.768 166.501 432.721C166.442 432.637 166.463 432.521 166.548 432.462C169.917 430.121 174.023 429.065 178.106 429.488C178.209 429.498 178.283 429.59 178.273 429.692C178.262 429.795 178.171 429.869 178.068 429.859C174.072 429.445 170.056 430.48 166.758 432.768C166.721 432.795 166.678 432.805 166.634 432.801Z" fill="white"/>
<path d="M159.405 445.04C159.302 445.029 159.228 444.938 159.238 444.835C159.569 441.642 160.775 438.618 162.728 436.09C162.791 436.009 162.907 435.994 162.988 436.057C163.069 436.12 163.084 436.236 163.021 436.317C161.112 438.79 159.931 441.749 159.607 444.873C159.597 444.976 159.505 445.05 159.405 445.04Z" fill="white"/>
<path d="M489.329 379.217C492.194 379.513 494.758 377.428 495.055 374.559C495.352 371.69 493.269 369.123 490.404 368.827C487.538 368.53 484.974 370.616 484.677 373.485C484.38 376.354 486.463 378.92 489.329 379.217Z" fill="white"/>
<path d="M493.416 342.013C504.636 343.174 514.674 335.009 515.837 323.775C516.999 312.542 508.845 302.494 497.625 301.333C486.404 300.172 476.366 308.337 475.204 319.571C474.042 330.805 482.195 340.852 493.416 342.013Z" fill="url(#paint4_linear_3780_145)"/>
<path d="M515.968 322.117L495.689 320.019L475.373 317.917C475.373 317.917 472.558 329.321 487.491 362.12C488.144 363.552 489.491 364.647 491.053 364.811C492.615 364.973 494.168 364.119 495.098 362.851C516.427 333.8 515.968 322.117 515.968 322.117Z" fill="url(#paint5_linear_3780_145)"/>
<path d="M491.336 365.647L491.327 365.734L490.958 365.695C489.189 365.512 487.638 364.381 486.908 362.774C478.179 343.602 475.476 331.778 474.747 325.239C474.503 323.728 474.423 322.264 474.504 320.779C474.538 319.255 474.698 318.628 474.715 318.563L474.803 318.244C476.752 307.402 486.714 299.84 497.659 300.972C508.745 302.12 517.018 311.692 516.497 322.769C516.499 322.915 516.49 323.284 516.416 323.894L516.41 323.969C516.203 325.968 515.716 327.917 514.962 329.764C512.861 336.005 507.972 346.936 495.714 363.629C494.662 365.061 493.001 365.819 491.336 365.647ZM475.788 319.307C475.783 319.307 475.708 320.121 475.694 320.782L475.692 320.816C475.614 322.223 475.69 323.614 475.922 325.049L475.925 325.082C476.642 331.532 479.319 343.221 487.988 362.263C488.547 363.488 489.916 364.358 491.268 364.498L491.392 365.108L491.453 364.517C492.119 364.586 494.156 364.065 494.96 362.97C507.138 346.384 512.287 335.576 514.271 329.409L514.275 329.372C515.128 327.639 515.386 325.772 515.582 323.88L515.526 323.791L515.527 323.783C515.588 323.194 515.457 322.86 515.456 322.774L515.384 322.732C515.884 312.277 508.039 303.236 497.571 302.153C487.125 301.072 477.608 308.359 475.929 318.785L475.824 319.308L475.788 319.304L475.788 319.307Z" fill="url(#paint6_linear_3780_145)"/>
<path d="M408.391 493.569C413.755 494.124 418.553 490.221 419.109 484.851C419.664 479.481 415.767 474.678 410.403 474.123C405.039 473.568 400.241 477.471 399.685 482.841C399.13 488.211 403.027 493.014 408.391 493.569Z" fill="url(#paint7_linear_3780_145)"/>
<path d="M182.143 453.212C186.444 449.714 187.098 443.387 183.605 439.082C180.111 434.777 173.792 434.123 169.491 437.622C165.19 441.12 164.535 447.447 168.029 451.752C171.523 456.057 177.841 456.711 182.143 453.212Z" fill="white"/>
<path d="M185.866 445.636L175.904 444.605L165.924 443.573C165.924 443.573 164.543 449.174 171.876 465.285C172.197 465.989 172.858 466.527 173.626 466.607C174.393 466.686 175.157 466.266 175.614 465.645C186.091 451.376 185.866 445.636 185.866 445.636Z" fill="white"/>
<path d="M500.385 331.766C503.722 329.051 504.23 324.143 501.519 320.803C498.809 317.463 493.906 316.956 490.569 319.67C487.232 322.385 486.725 327.293 489.435 330.633C492.146 333.973 497.048 334.48 500.385 331.766Z" fill="white"/>
<path d="M503.274 325.885L495.546 325.085L487.803 324.284C487.803 324.284 486.731 328.63 492.422 341.129C492.671 341.674 493.184 342.093 493.778 342.155C494.374 342.216 494.964 341.891 495.32 341.407C503.448 330.338 503.274 325.885 503.274 325.885Z" fill="white"/>
<path d="M339.992 157.508L301.652 139.027C300.864 138.646 299.958 138.582 299.124 138.849L253.364 153.444C252.13 153.836 251.225 154.893 251.02 156.171C250.816 157.449 251.349 158.735 252.397 159.496L283.114 181.733L339.992 157.508Z" fill="url(#paint8_linear_3780_145)"/>
<path d="M32.8512 232.259C32.8512 232.259 460.534 107.543 478.129 111.179C495.723 114.816 528.057 129.639 537.026 128.719C545.995 127.797 577.939 129.958 572.17 153.238C566.4 176.517 212.143 283.701 168.515 273.666C124.889 263.631 15.3972 247.662 15.3972 247.662C15.3972 247.662 3.96672 233.413 32.8512 232.259Z" fill="url(#paint9_linear_3780_145)"/>
<path d="M156.813 197.766L90.3758 169.518C86.2095 167.746 82.6252 164.84 80.0274 161.13L49.7874 117.942C47.3915 114.52 43.0401 113.061 39.0718 114.352C26.3611 118.483 0.029822 127.425 0.22562 130.503C0.484063 134.56 24.4168 234.554 24.4168 234.554L156.813 197.766Z" fill="url(#paint10_linear_3780_145)"/>
<path d="M38.4645 246.35L35.5125 268.284C35.0141 271.986 36.2246 275.568 38.8201 278.251C41.4155 280.932 45.081 282.134 48.7917 281.752L70.9622 279.474C74.4643 279.114 77.6514 277.397 79.6808 274.517L114.47 225.228L38.4645 246.35Z" fill="url(#paint11_linear_3780_145)"/>
<path d="M274.417 293.556C274.417 293.556 289.563 308.671 311.425 306.425C333.288 304.179 359.57 295.353 363.822 287.089C368.071 278.824 372.964 220.511 329.415 233.305C285.864 246.1 236.729 277.352 274.417 293.556Z" fill="url(#paint12_linear_3780_145)"/>
<path d="M243.469 237.034L345.173 208.019L269.785 328.971C268.727 330.667 267.011 331.842 265.05 332.215L203.529 343.86C200.867 344.364 198.148 343.317 196.509 341.156C194.87 338.996 194.593 336.093 195.792 333.659L243.469 237.034Z" fill="url(#paint13_linear_3780_145)"/>
<path d="M358.285 289.253C358.558 289.281 358.818 289.266 359.067 289.207C360.432 288.879 361.674 287.297 362.751 284.5C366.221 275.513 367.084 256.957 358.152 243.841C355.505 239.956 351.129 237.742 346.439 237.9C342.589 238.037 337.827 239.686 337 246.765C335.706 257.859 348.698 281.757 355.253 287.584C356.408 288.608 357.405 289.161 358.285 289.253ZM348.095 239.857C351.486 240.211 354.641 242.061 356.582 244.913C365.036 257.322 364.202 275.461 360.978 283.815C360.043 286.236 359.125 287.237 358.625 287.357C358.559 287.374 357.976 287.464 356.515 286.163C349.696 280.1 337.745 256.787 338.889 246.985C339.434 242.315 341.925 239.968 346.508 239.804C347.038 239.78 347.571 239.801 348.095 239.857Z" fill="url(#paint14_linear_3780_145)"/>
<path d="M5.22854 154.298L15.9893 153.192L33.1355 220.94L22.0965 224.75L5.22854 154.298Z" fill="url(#paint15_linear_3780_145)"/>
<path d="M190.621 218.844C190.258 215.299 192.833 212.131 196.373 211.768L196.78 211.726C200.321 211.363 203.485 213.941 203.848 217.485L204.278 221.677C204.641 225.221 202.066 228.389 198.526 228.753L198.119 228.794C194.579 229.157 191.414 226.58 191.051 223.035L190.621 218.844Z" fill="url(#paint16_linear_3780_145)"/>
<path d="M214.993 214.426C214.629 210.882 217.204 207.714 220.744 207.35L221.151 207.309C224.692 206.946 227.856 209.523 228.219 213.068L228.649 217.259C229.012 220.804 226.437 223.972 222.897 224.335L222.49 224.377C218.95 224.74 215.785 222.162 215.422 218.618L214.993 214.426Z" fill="url(#paint17_linear_3780_145)"/>
<path d="M238.981 206.225C238.618 202.681 241.192 199.512 244.732 199.149L245.14 199.108C248.68 198.744 251.845 201.322 252.208 204.867L252.637 209.058C253 212.603 250.426 215.771 246.885 216.134L246.478 216.175C242.938 216.539 239.773 213.961 239.41 210.417L238.981 206.225Z" fill="url(#paint18_linear_3780_145)"/>
<path d="M261.27 200.11C260.907 196.566 263.481 193.397 267.022 193.034L267.429 192.993C270.969 192.629 274.134 195.207 274.497 198.752L274.926 202.943C275.289 206.488 272.715 209.656 269.175 210.019L268.767 210.06C265.227 210.424 262.062 207.846 261.699 204.302L261.27 200.11Z" fill="url(#paint19_linear_3780_145)"/>
<path d="M287.344 193.607C286.981 190.062 289.556 186.894 293.096 186.53L293.503 186.489C297.043 186.126 300.208 188.704 300.571 192.248L301 196.44C301.364 199.984 298.789 203.152 295.249 203.516L294.842 203.557C291.301 203.92 288.137 201.343 287.773 197.798L287.344 193.607Z" fill="url(#paint20_linear_3780_145)"/>
<path d="M311.52 187.296C311.157 183.752 313.731 180.583 317.272 180.22L317.679 180.179C321.219 179.815 324.384 182.393 324.747 185.938L325.176 190.129C325.539 193.674 322.965 196.842 319.424 197.205L319.017 197.247C315.477 197.61 312.312 195.032 311.949 191.488L311.52 187.296Z" fill="url(#paint21_linear_3780_145)"/>
<path d="M335.504 179.095C335.141 175.55 337.716 172.382 341.256 172.018L341.663 171.977C345.203 171.614 348.368 174.192 348.731 177.736L349.161 181.928C349.524 185.472 346.949 188.64 343.409 189.004L343.002 189.045C339.461 189.408 336.297 186.831 335.934 183.286L335.504 179.095Z" fill="url(#paint22_linear_3780_145)"/>
<path d="M357.989 174.873C357.625 171.328 360.2 168.16 363.74 167.797L364.148 167.756C367.688 167.392 370.852 169.97 371.216 173.514L371.645 177.706C372.008 181.25 369.434 184.419 365.893 184.782L365.486 184.823C361.946 185.187 358.781 182.609 358.418 179.065L357.989 174.873Z" fill="url(#paint23_linear_3780_145)"/>
<path d="M382.168 168.562C381.805 165.018 384.38 161.85 387.92 161.486L388.327 161.445C391.867 161.082 395.032 163.659 395.395 167.204L395.825 171.396C396.188 174.94 393.613 178.108 390.073 178.472L389.666 178.513C386.125 178.876 382.961 176.298 382.598 172.754L382.168 168.562Z" fill="url(#paint24_linear_3780_145)"/>
<path d="M406.153 160.361C405.79 156.817 408.364 153.648 411.904 153.285L412.312 153.244C415.852 152.881 419.016 155.458 419.38 159.003L419.809 163.194C420.172 166.739 417.598 169.907 414.057 170.27L413.65 170.312C410.11 170.675 406.945 168.097 406.582 164.553L406.153 160.361Z" fill="url(#paint25_linear_3780_145)"/>
<path d="M428.637 156.139C428.274 152.595 430.848 149.427 434.389 149.063L434.796 149.022C438.336 148.659 441.501 151.237 441.864 154.781L442.293 158.973C442.656 162.517 440.082 165.685 436.542 166.049L436.134 166.09C432.594 166.453 429.43 163.876 429.066 160.331L428.637 156.139Z" fill="url(#paint26_linear_3780_145)"/>
<path d="M509.953 121.544L468.077 137.959C464.931 139.196 463.109 142.502 463.751 145.822C464.515 149.769 465.576 154.209 466.424 153.738C467.925 152.904 533.738 128.774 533.738 128.774L509.953 121.544Z" fill="url(#paint27_linear_3780_145)"/>
<defs>
<linearGradient id="paint0_linear_3780_145" x1="-385.974" y1="1481.14" x2="531.162" y2="113.149" gradientUnits="userSpaceOnUse">
<stop stop-color="#4F52FF"/>
<stop offset="1" stop-color="#4042E2"/>
</linearGradient>
<linearGradient id="paint1_linear_3780_145" x1="177.285" y1="420.684" x2="173.362" y2="487.364" gradientUnits="userSpaceOnUse">
<stop stop-color="#FFBE2E"/>
<stop offset="1" stop-color="#FBBD32"/>
</linearGradient>
<linearGradient id="paint2_linear_3780_145" x1="177.3" y1="420.685" x2="173.377" y2="487.365" gradientUnits="userSpaceOnUse">
<stop stop-color="#FFBE2E"/>
<stop offset="1" stop-color="#FBBD32"/>
</linearGradient>
<linearGradient id="paint3_linear_3780_145" x1="171.302" y1="419.315" x2="183.948" y2="493.35" gradientUnits="userSpaceOnUse">
<stop stop-color="#FFBE2E"/>
<stop offset="1" stop-color="#FFBE2E" stop-opacity="0.2"/>
</linearGradient>
<linearGradient id="paint4_linear_3780_145" x1="498.92" y1="297.634" x2="489.182" y2="366.43" gradientUnits="userSpaceOnUse">
<stop stop-color="#FBBD32"/>
<stop offset="1" stop-color="#FFEECC"/>
</linearGradient>
<linearGradient id="paint5_linear_3780_145" x1="498.871" y1="297.628" x2="489.132" y2="366.424" gradientUnits="userSpaceOnUse">
<stop stop-color="#FFBE2E"/>
<stop offset="1" stop-color="#FBBD32"/>
</linearGradient>
<linearGradient id="paint6_linear_3780_145" x1="490.696" y1="293.871" x2="504.164" y2="372.719" gradientUnits="userSpaceOnUse">
<stop stop-color="#FFBE2E"/>
<stop offset="1" stop-color="#FFBE2E" stop-opacity="0.2"/>
</linearGradient>
<linearGradient id="paint7_linear_3780_145" x1="417.984" y1="377.27" x2="414.473" y2="420.877" gradientUnits="userSpaceOnUse">
<stop stop-color="#FFBE2E"/>
<stop offset="1" stop-color="#FBBD32"/>
</linearGradient>
<linearGradient id="paint8_linear_3780_145" x1="253.555" y1="194.827" x2="389.66" y2="70.2371" gradientUnits="userSpaceOnUse">
<stop stop-color="#FDF53F"/>
<stop offset="1" stop-color="#D93C65"/>
</linearGradient>
<linearGradient id="paint9_linear_3780_145" x1="351.508" y1="188.941" x2="-227.396" y2="305.235" gradientUnits="userSpaceOnUse">
<stop stop-color="#FFBE2E"/>
<stop offset="1" stop-color="#D93C65"/>
</linearGradient>
<linearGradient id="paint10_linear_3780_145" x1="63.4094" y1="157.991" x2="181.05" y2="408.943" gradientUnits="userSpaceOnUse">
<stop stop-color="#FFBE2E"/>
<stop offset="1" stop-color="#D93C65"/>
</linearGradient>
<linearGradient id="paint11_linear_3780_145" x1="57.3239" y1="203.736" x2="129.707" y2="388.06" gradientUnits="userSpaceOnUse">
<stop stop-color="#FDF53F"/>
<stop offset="1" stop-color="#D93C65"/>
</linearGradient>
<linearGradient id="paint12_linear_3780_145" x1="368.842" y1="233.591" x2="259.141" y2="322.333" gradientUnits="userSpaceOnUse">
<stop stop-color="#FDF53F"/>
<stop offset="1" stop-color="#D93C65"/>
</linearGradient>
<linearGradient id="paint13_linear_3780_145" x1="268.104" y1="277.793" x2="220.651" y2="418.082" gradientUnits="userSpaceOnUse">
<stop stop-color="#FFBE2E"/>
<stop offset="1" stop-color="#FBBD33"/>
</linearGradient>
<linearGradient id="paint14_linear_3780_145" x1="239.793" y1="401.769" x2="396.39" y2="207.245" gradientUnits="userSpaceOnUse">
<stop stop-color="#FDF53F"/>
<stop offset="1" stop-color="#D93C65"/>
</linearGradient>
<linearGradient id="paint15_linear_3780_145" x1="-110.011" y1="77.3201" x2="77.4978" y2="239.16" gradientUnits="userSpaceOnUse">
<stop stop-color="#FDF53F"/>
<stop offset="1" stop-color="#D93C65"/>
</linearGradient>
<linearGradient id="paint16_linear_3780_145" x1="526.132" y1="38.3744" x2="385.867" y2="115.816" gradientUnits="userSpaceOnUse">
<stop stop-color="#2C759E"/>
<stop offset="1" stop-color="#051042"/>
</linearGradient>
<linearGradient id="paint17_linear_3780_145" x1="529.328" y1="45.6766" x2="389.061" y2="123.119" gradientUnits="userSpaceOnUse">
<stop stop-color="#2C759E"/>
<stop offset="1" stop-color="#051042"/>
</linearGradient>
<linearGradient id="paint18_linear_3780_145" x1="532.133" y1="49.1964" x2="391.866" y2="126.639" gradientUnits="userSpaceOnUse">
<stop stop-color="#2C759E"/>
<stop offset="1" stop-color="#051042"/>
</linearGradient>
<linearGradient id="paint19_linear_3780_145" x1="533.244" y1="54.802" x2="392.976" y2="132.245" gradientUnits="userSpaceOnUse">
<stop stop-color="#2C759E"/>
<stop offset="1" stop-color="#051042"/>
</linearGradient>
<linearGradient id="paint20_linear_3780_145" x1="538.135" y1="60.0201" x2="397.867" y2="137.463" gradientUnits="userSpaceOnUse">
<stop stop-color="#2C759E"/>
<stop offset="1" stop-color="#051042"/>
</linearGradient>
<linearGradient id="paint21_linear_3780_145" x1="541.128" y1="65.4325" x2="400.861" y2="142.875" gradientUnits="userSpaceOnUse">
<stop stop-color="#2C759E"/>
<stop offset="1" stop-color="#051042"/>
</linearGradient>
<linearGradient id="paint22_linear_3780_145" x1="543.931" y1="68.9527" x2="403.665" y2="146.394" gradientUnits="userSpaceOnUse">
<stop stop-color="#2C759E"/>
<stop offset="1" stop-color="#051042"/>
</linearGradient>
<linearGradient id="paint23_linear_3780_145" x1="545.235" y1="76.4508" x2="404.968" y2="153.893" gradientUnits="userSpaceOnUse">
<stop stop-color="#2C759E"/>
<stop offset="1" stop-color="#051042"/>
</linearGradient>
<linearGradient id="paint24_linear_3780_145" x1="548.233" y1="81.8628" x2="407.966" y2="159.305" gradientUnits="userSpaceOnUse">
<stop stop-color="#2C759E"/>
<stop offset="1" stop-color="#051042"/>
</linearGradient>
<linearGradient id="paint25_linear_3780_145" x1="551.037" y1="85.3826" x2="410.771" y2="162.825" gradientUnits="userSpaceOnUse">
<stop stop-color="#2C759E"/>
<stop offset="1" stop-color="#051042"/>
</linearGradient>
<linearGradient id="paint26_linear_3780_145" x1="552.339" y1="92.8815" x2="412.074" y2="170.322" gradientUnits="userSpaceOnUse">
<stop stop-color="#2C759E"/>
<stop offset="1" stop-color="#051042"/>
</linearGradient>
<linearGradient id="paint27_linear_3780_145" x1="559.814" y1="100.733" x2="417.545" y2="179.281" gradientUnits="userSpaceOnUse">
<stop stop-color="#2C759E"/>
<stop offset="1" stop-color="#051042"/>
</linearGradient>
</defs>
</svg>
