<svg width="281" height="98" viewBox="0 0 281 98" fill="none" xmlns="http://www.w3.org/2000/svg">
<path d="M98.7364 14.7654C98.0598 12.9556 97.6318 10.9063 97.4704 8.84648C97.4165 8.15987 96.084 8.21266 96.1378 8.89927C96.3531 11.6457 95.1847 17.2019 98.5264 18.9062C99.0953 19.3428 99.841 18.6246 99.8051 18.1668C99.7154 17.0225 99.0926 15.8992 98.7364 14.7654Z" fill="black"/>
<path d="M114.776 22.7332C110.408 23.3773 106.609 24.2349 102.331 22.5158C101.762 22.3023 101.524 22.7836 102.093 22.9971C106.427 25.4219 111.2 26.4136 115.713 24.1121C116.778 23.5982 115.584 22.4654 114.776 22.7332Z" fill="black"/>
<path d="M135.317 9.67157C130.52 11.4792 126.18 15.5847 122.88 18.9551C122.388 19.6689 123.264 20.3295 124.049 19.8358C126.109 18.1347 128.444 16.4229 130.796 14.942C132.62 13.7132 134.736 12.7046 136.267 11.2556C137.015 10.3002 136.12 9.40877 135.317 9.67157Z" fill="black"/>
<path d="M159.398 0.0963626C154.425 0.0565555 149.601 1.89379 145.308 3.47475C144.501 3.74185 144.85 4.66955 145.676 4.63708C150.263 3.27993 154.904 2.62667 159.565 2.20804C160.923 1.91929 160.774 0.042245 159.398 0.0963626Z" fill="black"/>
<path d="M178.423 6.79112C176.95 5.46358 174.931 4.15726 173.203 3.07044C171.766 2.2031 170.24 3.64742 171.422 4.75548C172.878 5.8529 174.351 7.18046 175.825 8.50801C177.299 9.83554 178.827 11.8534 180.828 12.9296C181.683 13.358 182.718 12.6252 182.372 11.7154C182.225 9.87457 180.17 8.10805 178.423 6.79112Z" fill="black"/>
<path d="M184.376 18.8738C184.304 17.9581 182.433 18.032 182.505 18.9477C182.418 21.2476 182.045 23.329 181.69 25.6394C181.318 27.7209 180.143 29.834 180.323 32.1233C180.413 33.2679 182.32 33.6518 182.765 32.4861C184.865 28.4993 184.967 22.984 184.376 18.8738Z" fill="black"/>
<path d="M190.376 48.0112C188.402 47.1673 186.719 46.5421 185.252 45.2175C183.749 43.4338 182.987 40.6998 182.822 38.6335C182.767 37.9444 181.41 37.9973 181.465 38.6865C181.27 43.0699 182.958 50.6037 189.997 50.0991C191.065 49.8271 191.498 48.4284 190.376 48.0112Z" fill="black"/>
<path d="M198.309 52.5681C201.096 53.6374 204.153 54.0711 207.029 54.9284C210.601 56.2314 213.641 58.0932 215.799 60.647C216.232 61.0146 216.763 60.4563 216.592 60.1667C212.538 55.1371 206.212 49.9079 198.423 50.214C196.846 50.4606 197.002 52.1784 198.309 52.5681Z" fill="black"/>
<path d="M237.741 73.611C235.947 72.5015 233.768 71.7831 231.611 70.5539C229.818 69.4444 228.409 67.9434 227.25 66.3526C226.432 65.3917 224.686 66.025 225.254 67.0764C227.051 70.9505 231.163 75.2423 236.541 75.8062C238.243 76.195 238.809 74.4809 237.741 73.611Z" fill="black"/>
<path d="M259.951 83.1751C259.016 81.8152 256.746 80.9728 255.044 80.341C253.067 79.7199 250.853 79.5739 248.657 79.6596C247.284 79.7131 247.414 81.3367 248.786 81.2832C250.707 81.2083 252.391 81.6085 254.094 82.2402C255.522 82.8827 256.713 83.9999 258.14 84.642C259.293 85.2949 260.573 84.0817 259.951 83.1751Z" fill="black"/>
<path d="M279.8 93.0897C275.568 87.9514 272.641 82.0705 268.935 76.6811C267.1 74.2163 262.928 76.6846 264.491 79.16C267.307 83.6614 269.87 88.404 273.484 92.6441C271.053 92.9694 268.621 93.2947 265.918 93.6306C264.847 93.9028 262.942 93.9771 262.198 94.9287L261.945 95.1688C261.945 95.1688 261.673 95.1794 261.691 95.4092C261.183 95.8902 261.801 96.7884 262.345 96.7672C262.636 96.9864 262.909 96.9758 263.453 96.9546C264.832 97.1311 266.175 96.8486 267.808 96.785C271.328 96.4172 274.576 96.0597 278.134 96.1521C279.785 96.3184 280.727 94.4371 279.8 93.0897Z" fill="black"/>
<path d="M93.1414 6.55005C91.2377 5.67697 89.0789 4.88673 87.0248 4.31104C84.9707 3.73534 82.3017 3.11077 80.5162 3.69061C79.4959 4.02195 79.5094 5.26032 80.4841 5.4409C82.2831 6.09943 84.4284 5.6513 86.3778 6.01245C88.5822 6.29078 90.3812 6.94931 92.5401 7.73955C93.5147 7.92012 93.861 6.81346 93.1414 6.55005Z" fill="black"/>
<path d="M61.8038 14.9607C57.6474 16.2452 54.0949 17.6527 49.5328 16.6169C48.9291 16.4939 48.7956 16.9995 49.3994 17.1225C54.1636 18.8389 59.0598 19.0904 63.0127 16.166C63.9507 15.5046 62.541 14.5781 61.8038 14.9607Z" fill="black"/>
<path d="M40.7921 13.8499C38.6451 13.201 36.4178 12.237 34.3411 11.0858C33.6489 10.702 32.896 11.6383 33.5883 12.0221C36.3572 13.5571 40.9916 17.7507 44.6444 16.5269C45.407 16.4082 45.1665 15.4627 44.705 15.2068C43.5513 14.5673 42.0964 14.3022 40.7921 13.8499Z" fill="black"/>
<path d="M67.0071 12.7301C69.419 9.64698 71.2607 6.76171 75.6449 5.35248C76.2151 5.15459 75.9627 4.68064 75.3925 4.87854C70.3633 5.83777 66.2688 8.04488 65.1843 12.352C64.9038 13.3478 66.6893 13.402 67.0071 12.7301Z" fill="black"/>
<path d="M27.2426 9.58101C25.3389 8.70798 23.18 7.91778 21.1259 7.34211C19.0718 6.76644 16.4029 6.1419 14.6173 6.72171C13.597 7.05303 13.6105 8.29135 14.5852 8.47192C16.3843 9.13042 18.5296 8.68231 20.479 9.04345C22.6834 9.32176 24.4824 9.98026 26.6413 10.7705C27.6159 10.951 27.9622 9.84442 27.2426 9.58101Z" fill="black"/>
<path d="M8.37678 7.6342C6.49681 8.17236 4.26729 7.93729 2.59407 8.75215C1.31944 9.1842 0.935747 10.5032 1.82669 11.3902C2.78157 12.0573 4.26295 11.9019 5.40969 11.9095C6.28572 11.8603 6.68432 11.4775 6.87616 10.818C7.81615 10.5489 8.75613 10.2798 9.48937 9.73405C10.8279 9.08217 9.98606 7.03918 8.37678 7.6342Z" fill="black"/>
</svg>
