<svg width="287" height="99" viewBox="0 0 287 99" fill="none" xmlns="http://www.w3.org/2000/svg">
<path d="M82.8461 51.7007C80.982 50.5995 79.1414 49.1782 77.5058 47.6111C76.9606 47.0887 75.935 47.8183 76.4802 48.3406C78.6609 50.4302 81.7915 55.4847 85.7069 55.1268C86.4806 55.1833 86.5509 54.2232 86.1874 53.8749C85.2788 53.0043 83.9599 52.4254 82.8461 51.7007Z" fill="black"/>
<path d="M101.413 49.9173C98.4467 52.6433 96.0825 55.2497 91.4785 56.0582C90.8769 56.1777 91.0378 56.6799 91.6394 56.5603C96.7973 56.2826 101.264 54.6469 103.146 50.5341C103.61 49.5872 101.853 49.2956 101.413 49.9173Z" fill="black"/>
<path d="M108.073 29.1691C105.629 33.0493 105.227 38.5393 105.103 42.9133C105.239 43.7349 106.411 43.8203 106.666 43.0272C107.038 40.6194 107.618 38.0643 108.381 35.6849C108.914 33.7758 109.837 31.895 109.979 29.9574C109.866 28.8129 108.511 28.5517 108.073 29.1691Z" fill="black"/>
<path d="M120.095 9.48124C116.16 11.9716 113.702 15.8765 111.475 19.3083C111.035 19.9296 111.982 20.4888 112.607 20.0443C115.226 16.6411 118.399 13.7685 121.756 11.0727C122.613 10.155 121.137 8.74037 120.095 9.48124Z" fill="black"/>
<path d="M140.127 5.20758C137.995 4.8903 135.451 4.86676 133.296 4.87161C131.53 4.90487 131.389 6.83766 133.131 7.12653C135.079 7.2683 137.211 7.58582 139.342 7.90309C141.474 8.22013 144.154 9.06344 146.516 8.91172C147.502 8.82166 147.779 7.7084 146.84 7.1542C145.376 5.75207 142.465 5.37799 140.127 5.20758Z" fill="black"/>
<path d="M153.81 11.7222C153.083 11.0254 151.647 12.0469 152.374 12.7437C153.987 14.6316 155.213 16.4912 156.62 18.5253C157.846 20.3849 158.457 22.6825 160.275 24.4244C161.184 25.2953 162.984 24.622 162.486 23.4588C161.242 19.1839 157.288 14.7117 153.81 11.7222Z" fill="black"/>
<path d="M179.969 31.8925C177.795 32.2191 176.011 32.5737 173.884 32.2571C171.392 31.5908 168.788 29.7852 167.145 28.2112C166.596 27.6863 165.566 28.419 166.114 28.944C169.172 32.5599 176.023 37.7447 181.2 33.7599C181.842 32.9988 181.159 31.6564 179.969 31.8925Z" fill="black"/>
<path d="M189.754 31.4514C192.724 30.9189 195.429 29.7184 198.311 28.9632C202.067 28.2241 205.828 28.2225 209.42 29.2487C210.033 29.3337 210.028 28.597 209.678 28.4433C202.756 26.3223 193.916 25.1961 188.08 29.431C187.037 30.4422 188.444 31.7947 189.754 31.4514Z" fill="black"/>
<path d="M236.393 28.3351C234.164 28.3464 231.922 28.8638 229.319 28.9613C227.09 28.9726 224.874 28.4774 222.788 27.7851C221.436 27.4262 220.532 28.8087 221.756 29.3651C226.031 31.5651 232.432 32.9388 237.073 30.6938C238.698 30.1515 237.875 28.496 236.393 28.3351Z" fill="black"/>
<path d="M261.038 24.6773C259.311 24.063 256.914 24.5394 255.116 24.8967C253.11 25.4016 251.265 26.4068 249.603 27.5879C248.565 28.3262 249.852 29.5592 250.891 28.821C252.345 27.7875 253.959 27.2543 255.757 26.8971C257.348 26.6872 259.099 26.9776 260.688 26.7679C262.071 26.7056 262.189 25.087 261.038 24.6773Z" fill="black"/>
<path d="M284.049 22.5723C276.952 20.5991 270.34 17.3669 263.473 14.9252C260.223 13.8794 258.749 17.9781 261.793 19.1706C267.308 21.3519 272.8 23.8556 278.752 25.4218C277.077 26.9175 275.402 28.4132 273.521 30.0556C272.878 30.8176 271.433 31.8448 271.545 32.9857L271.522 33.307C271.522 33.307 271.315 33.4537 271.498 33.6288C271.451 34.2725 272.596 34.6794 273.008 34.386C273.398 34.4144 273.605 34.2674 274.017 33.9742C275.232 33.4151 276.081 32.5068 277.32 31.6265C279.821 29.5439 282.115 27.6077 284.981 25.8756C286.403 25.1706 285.765 23.1828 284.049 22.5723Z" fill="black"/>
<path d="M72.3073 48.0303C70.1663 48.2858 67.8863 48.7358 65.8472 49.3053C63.8081 49.8748 61.25 50.7139 60.2765 52.0756C59.7203 52.8537 60.6469 53.8403 61.546 53.4958C63.446 53.1208 64.7994 51.6841 66.5976 50.9951C68.5348 50.1115 70.4348 49.7365 72.7148 49.2865C73.6139 48.942 73.0673 47.8803 72.3073 48.0303Z" fill="black"/>
<path d="M53.6884 70.4543C51.3621 73.5775 49.6011 76.4944 45.2521 77.9684C44.6868 78.1748 44.9531 78.6461 45.5183 78.4397C50.526 77.4073 54.562 75.138 55.5242 70.8074C55.7765 69.8057 53.9873 69.7767 53.6884 70.4543Z" fill="black"/>
<path d="M36.2193 80.1455C34.0631 80.7207 31.6099 81.0703 29.1348 81.1818C28.3098 81.219 28.4194 82.4091 29.2444 82.3719C32.5445 82.2232 39.2763 83.354 41.2133 80.3985C41.7195 79.8977 40.8287 79.2208 40.2787 79.2455C38.9037 79.3075 37.5725 79.8455 36.2193 80.1455Z" fill="black"/>
<path d="M56.2892 66.0952C55.8625 62.4265 55.128 59.1992 57.5817 55.8953C57.8896 55.4538 57.3211 55.1988 57.0132 55.6403C53.6925 58.903 52.0868 62.7033 54.5269 66.6956C55.0671 67.6334 56.5498 66.7917 56.2892 66.0952Z" fill="black"/>
<path d="M22.306 83.6423C20.165 83.8977 17.885 84.3478 15.8459 84.9173C13.8068 85.4869 11.2486 86.3259 10.2752 87.6877C9.71896 88.4658 10.6455 89.4525 11.5446 89.108C13.4446 88.733 14.7981 87.2962 16.5962 86.6072C18.5334 85.7235 20.4335 85.3485 22.7135 84.8985C23.6126 84.554 23.066 83.4922 22.306 83.6423Z" fill="black"/>
<path d="M5.89525 91.538C4.84463 92.9229 2.95063 93.8496 2.26479 95.3575C1.60231 96.3515 2.28517 97.6252 3.63051 97.9048C4.86203 97.9721 5.8893 97.1011 6.7794 96.5316C7.41852 96.0514 7.44187 95.5376 7.10044 94.9007C7.62575 94.2083 8.15107 93.5158 8.31159 92.7004C8.86026 91.4941 6.6949 90.2424 5.89525 91.538Z" fill="black"/>
</svg>
